<?xml version="1.0" encoding="UTF-8" standalone="no"?>
<svg
   width="50pt"
   height="50pt"
   version="1.1"
   viewBox="-3 0 50 50"
   id="svg3049"
   sodipodi:docname="ceiling_light.svg"
   inkscape:version="1.3 (0e150ed6c4, 2023-07-21)"
   xmlns:inkscape="http://www.inkscape.org/namespaces/inkscape"
   xmlns:sodipodi="http://sodipodi.sourceforge.net/DTD/sodipodi-0.dtd"
   xmlns="http://www.w3.org/2000/svg"
   xmlns:svg="http://www.w3.org/2000/svg">
  <sodipodi:namedview
     id="namedview3051"
     pagecolor="#ffffff"
     bordercolor="#000000"
     borderopacity="0.25"
     inkscape:showpageshadow="2"
     inkscape:pageopacity="0.0"
     inkscape:pagecheckerboard="0"
     inkscape:deskcolor="#d1d1d1"
     inkscape:document-units="pt"
     showgrid="false"
     inkscape:zoom="7.1007589"
     inkscape:cx="25.631063"
     inkscape:cy="58.937362"
     inkscape:window-width="2096"
     inkscape:window-height="1489"
     inkscape:window-x="0"
     inkscape:window-y="0"
     inkscape:window-maximized="1"
     inkscape:current-layer="svg3049" />
  <defs
     id="defs2951">
    <symbol
       id="w"
       overflow="visible">
      <path
         d="m 14.656,-0.875 c -0.76172,0.39844 -1.5547,0.69531 -2.375,0.89062 -0.8125,0.19531 -1.6641,0.29688 -2.5469,0.29688 -2.6562,0 -4.7617,-0.73828 -6.3125,-2.2188 -1.5547,-1.4883 -2.3281,-3.5039 -2.3281,-6.0469 0,-2.5508 0.77344,-4.5664 2.3281,-6.0469 1.5508,-1.4883 3.6562,-2.2344 6.3125,-2.2344 0.88281,0 1.7344,0.10156 2.5469,0.29688 0.82031,0.19922 1.6133,0.49609 2.375,0.89062 v 3.2969 c -0.76172,-0.51953 -1.5117,-0.89844 -2.25,-1.1406 -0.74219,-0.23828 -1.5234,-0.35938 -2.3438,-0.35938 -1.4688,0 -2.625,0.46875 -3.4688,1.4062 -0.83594,0.9375 -1.25,2.2344 -1.25,3.8906 0,1.6484 0.41406,2.9375 1.25,3.875 0.84375,0.9375 2,1.4062 3.4688,1.4062 0.82031,0 1.6016,-0.11719 2.3438,-0.35938 0.73828,-0.23828 1.4883,-0.61719 2.25,-1.1406 z"
         id="path2882" />
    </symbol>
    <symbol
       id="d"
       overflow="visible">
      <path
         d="m 10.719,-8.7031 c -0.33594,-0.15625 -0.66797,-0.26953 -1,-0.34375 -0.32422,-0.082031 -0.65625,-0.125 -1,-0.125 -0.98047,0 -1.7344,0.32031 -2.2656,0.95312 -0.53125,0.625 -0.79688,1.5273 -0.79688,2.7031 V -3e-5 h -3.8125 v -11.969 h 3.8125 v 1.9688 c 0.48828,-0.78125 1.0508,-1.3477 1.6875,-1.7031 0.64453,-0.36328 1.4102,-0.54688 2.2969,-0.54688 0.13281,0 0.27344,0.0078 0.42188,0.01563 0.14453,0.01172 0.36328,0.03125 0.65625,0.0625 z"
         id="path2885" />
    </symbol>
    <symbol
       id="c"
       overflow="visible">
      <path
         d="m 13.781,-6.0156 v 1.0938 H 4.8435 c 0.09375,0.89844 0.41406,1.5703 0.96875,2.0156 0.55078,0.44922 1.3281,0.67188 2.3281,0.67188 0.80078,0 1.625,-0.11719 2.4688,-0.35938 0.84375,-0.23828 1.7109,-0.59766 2.6094,-1.0781 v 2.9531 c -0.90625,0.33594 -1.8125,0.58984 -2.7188,0.76562 -0.9063,0.17578 -1.8125,0.26562 -2.7188,0.26562 -2.1562,0 -3.8398,-0.54688 -5.0469,-1.6406 -1.1992,-1.1016 -1.7969,-2.6484 -1.7969,-4.6406 0,-1.9453 0.58594,-3.4766 1.7656,-4.5938 1.1758,-1.125 2.8008,-1.6875 4.875,-1.6875 1.875,0 3.375,0.57031 4.5,1.7031 1.1328,1.125 1.7031,2.6367 1.7031,4.5312 z M 9.8435,-7.2812 c 0,-0.72656 -0.21484,-1.3125 -0.64062,-1.75 -0.41797,-0.44531 -0.96875,-0.67188 -1.6562,-0.67188 -0.74219,0 -1.3438,0.21094 -1.8125,0.625 -0.46094,0.41797 -0.74609,1.0156 -0.85938,1.7969 z"
         id="path2888" />
    </symbol>
    <symbol
       id="b"
       overflow="visible">
      <path
         d="m 7.2031,-5.3906 c -0.80469,0 -1.4062,0.13672 -1.8125,0.40625 -0.39844,0.27344 -0.59375,0.67188 -0.59375,1.2031 0,0.48047 0.16016,0.85938 0.48438,1.1406 0.32031,0.27344 0.77344,0.40625 1.3594,0.40625 0.71875,0 1.3203,-0.25391 1.8125,-0.76562 0.48828,-0.51953 0.73438,-1.1719 0.73438,-1.9531 v -0.4375 z m 5.8438,-1.4375 V 0 H 9.1875 v -1.7656 c -0.51172,0.71875 -1.0898,1.2461 -1.7344,1.5781 -0.63672,0.33203 -1.418,0.5 -2.3438,0.5 -1.2422,0 -2.2461,-0.35938 -3.0156,-1.0781 -0.77344,-0.72656 -1.1562,-1.6719 -1.1562,-2.8281 0,-1.3945 0.47656,-2.4219 1.4375,-3.0781 0.96875,-0.65625 2.4883,-0.98438 4.5625,-0.98438 h 2.25 v -0.29688 c 0,-0.60156 -0.24219,-1.0469 -0.71875,-1.3281 -0.48047,-0.28125 -1.2266,-0.42188 -2.2344,-0.42188 -0.8125,0 -1.5742,0.085937 -2.2812,0.25 -0.71094,0.15625 -1.3672,0.40234 -1.9688,0.73438 v -2.9219 c 0.82031,-0.19531 1.6445,-0.34766 2.4688,-0.45312 0.82031,-0.10156 1.6484,-0.15625 2.4844,-0.15625 2.1562,0 3.7109,0.42969 4.6719,1.2812 0.95703,0.84375 1.4375,2.2266 1.4375,4.1406 z"
         id="path2891" />
    </symbol>
    <symbol
       id="f"
       overflow="visible">
      <path
         d="m 6.0156,-15.359 v 3.3906 H 9.9531 V -9.234 H 6.0156 v 5.0781 c 0,0.55469 0.10938,0.92969 0.32812,1.125 0.21875,0.19922 0.65625,0.29688 1.3125,0.29688 h 1.9688 v 2.7344 h -3.2812 c -1.5117,0 -2.5859,-0.3125 -3.2188,-0.9375 -0.625,-0.63281 -0.9375,-1.707 -0.9375,-3.2188 v -5.0781 h -1.9062 v -2.7344 h 1.9062 v -3.3906 z"
         id="path2894" />
    </symbol>
    <symbol
       id="n"
       overflow="visible">
      <path
         d="m 9.9688,-10.219 v -6.4062 h 3.8594 V -2e-4 H 9.9688 V -1.7346 C 9.44536,-1.02366 8.8672,-0.5041 8.2344,-0.1721 7.59768,0.14821 6.8633,0.31228 6.0313,0.31228 c -1.4688,0 -2.6797,-0.58203 -3.625,-1.75 -0.94922,-1.1758 -1.4219,-2.6875 -1.4219,-4.5312 0,-1.8437 0.47266,-3.3477 1.4219,-4.5156 0.94531,-1.1758 2.1562,-1.7656 3.625,-1.7656 0.83203,0 1.5664,0.16797 2.2031,0.5 0.63281,0.32422 1.2109,0.83594 1.7344,1.5312 z m -2.5156,7.75 c 0.82031,0 1.4453,-0.29688 1.875,-0.89062 0.42578,-0.60156 0.64062,-1.4727 0.64062,-2.6094 0,-1.1445 -0.21484,-2.0156 -0.64062,-2.6094 -0.42969,-0.59375 -1.0547,-0.89062 -1.875,-0.89062 -0.8125,0 -1.4336,0.29688 -1.8594,0.89062 -0.42969,0.59375 -0.64062,1.4648 -0.64062,2.6094 0,1.1367 0.21094,2.0078 0.64062,2.6094 0.42578,0.59375 1.0469,0.89062 1.8594,0.89062 z"
         id="path2897" />
    </symbol>
    <symbol
       id="m"
       overflow="visible">
      <path
         d="m 8.2031,-2.4688 c 0.82031,0 1.4453,-0.29688 1.875,-0.89062 0.42578,-0.60156 0.64062,-1.4727 0.64062,-2.6094 0,-1.1445 -0.21484,-2.0156 -0.64062,-2.6094 -0.42969,-0.59375 -1.0547,-0.89062 -1.875,-0.89062 -0.82422,0 -1.4531,0.30469 -1.8906,0.90625 -0.4375,0.59375 -0.65625,1.4609 -0.65625,2.5938 0,1.1367 0.21875,2.0078 0.65625,2.6094 0.4375,0.59375 1.0664,0.89062 1.8906,0.89062 z m -2.5469,-7.75 c 0.53125,-0.69531 1.1133,-1.207 1.75,-1.5312 0.64453,-0.33203 1.3828,-0.5 2.2188,-0.5 1.4688,0 2.6758,0.58984 3.625,1.7656 0.94531,1.168 1.4219,2.6719 1.4219,4.5156 0,1.8437 -0.47656,3.3555 -1.4219,4.5312 -0.94922,1.168 -2.1562,1.75 -3.625,1.75 -0.83594,0 -1.5742,-0.16797 -2.2188,-0.5 -0.63672,-0.33203 -1.2188,-0.84766 -1.75,-1.5469 V -1e-4 H 1.8437 v -16.625 h 3.8125 z"
         id="path2900" />
    </symbol>
    <symbol
       id="l"
       overflow="visible">
      <path
         d="m 0.26562,-11.969 h 3.8281 l 3.2188,8.125 2.7344,-8.125 h 3.8125 L 8.82822,1.125 c -0.5,1.332 -1.0898,2.2656 -1.7656,2.7969 -0.66797,0.53125 -1.5547,0.79688 -2.6562,0.79688 h -2.2188 v -2.5 h 1.2031 c 0.64453,0 1.1133,-0.10547 1.4062,-0.3125 C 5.0977,1.69534 5.32817,1.32816 5.48442,0.79688 L 5.5938,0.45313 Z"
         id="path2903" />
    </symbol>
    <symbol
       id="k"
       overflow="visible">
      <path
         d="M 2.0156,-15.953 H 6.125 v 5.8281 l 5.9219,-5.8281 h 4.7812 L 9.1406,-8.3905 17.6094,1e-4 H 12.4688 L 6.125,-6.2811 V 1e-4 H 2.0156 Z"
         id="path2906" />
    </symbol>
    <symbol
       id="e"
       overflow="visible">
      <path
         d="m 7.5312,-9.5156 c -0.84375,0 -1.4922,0.30859 -1.9375,0.92188 -0.44922,0.60547 -0.67188,1.4805 -0.67188,2.625 0,1.1484 0.22266,2.0273 0.67188,2.6406 0.44531,0.60547 1.0938,0.90625 1.9375,0.90625 0.83203,0 1.4688,-0.30078 1.9062,-0.90625 0.44531,-0.61328 0.67188,-1.4922 0.67188,-2.6406 0,-1.1445 -0.22656,-2.0195 -0.67188,-2.625 C 8.9999,-9.207 8.3632,-9.5156 7.5312,-9.5156 Z m 0,-2.7344 c 2.0508,0 3.6562,0.55859 4.8125,1.6719 1.1641,1.1055 1.75,2.6406 1.75,4.6094 0,1.9688 -0.58594,3.5117 -1.75,4.625 -1.1562,1.1055 -2.7617,1.6562 -4.8125,1.6562 -2.0625,0 -3.6797,-0.55078 -4.8438,-1.6562 -1.168,-1.1133 -1.75,-2.6562 -1.75,-4.625 0,-1.9688 0.58203,-3.5039 1.75,-4.6094 1.1641,-1.1133 2.7812,-1.6719 4.8438,-1.6719 z"
         id="path2909" />
    </symbol>
    <symbol
       id="a"
       overflow="visible">
      <path
         d="M 13.859,-7.2812 V 0 h -3.8438 v -5.5781 c 0,-1.0312 -0.027344,-1.7383 -0.078125,-2.125 -0.042969,-0.39453 -0.12109,-0.6875 -0.23438,-0.875 -0.14844,-0.25 -0.35156,-0.44141 -0.60938,-0.57812 -0.25,-0.14453 -0.54297,-0.21875 -0.875,-0.21875 -0.79297,0 -1.418,0.3125 -1.875,0.9375 -0.46094,0.61719 -0.6875,1.4648 -0.6875,2.5469 V 3e-5 h -3.8125 v -11.969 h 3.8125 v 1.75 c 0.58203,-0.69531 1.1953,-1.207 1.8438,-1.5312 0.64453,-0.33203 1.3594,-0.5 2.1406,-0.5 1.3828,0 2.4297,0.42969 3.1406,1.2812 0.71875,0.84375 1.0781,2.0742 1.0781,3.6875 z"
         id="path2912" />
    </symbol>
    <symbol
       id="j"
       overflow="visible">
      <path
         d="m 0.32812,-11.969 h 3.8281 l 2.9844,8.2656 2.9688,-8.2656 h 3.8281 L 9.23442,0 h -4.2031 z"
         id="path2915" />
    </symbol>
    <symbol
       id="i"
       overflow="visible">
      <path
         d="M 1.8438,-11.969 H 5.6563 V 0 H 1.8438 Z m 0,-4.6562 h 3.8125 v 3.125 H 1.8438 Z"
         id="path2918" />
    </symbol>
    <symbol
       id="h"
       overflow="visible">
      <path
         d="m 11.188,-11.594 v 2.9062 c -0.82422,-0.34375 -1.6172,-0.59766 -2.375,-0.76562 -0.76172,-0.16406 -1.4805,-0.25 -2.1562,-0.25 -0.73047,0 -1.2734,0.089844 -1.625,0.26562 -0.35547,0.17969 -0.53125,0.46094 -0.53125,0.84375 0,0.30469 0.13281,0.53906 0.40625,0.70312 0.26953,0.16797 0.75,0.28906 1.4375,0.35938 l 0.67188,0.09375 c 1.957,0.25 3.2734,0.66406 3.9531,1.2344 0.67578,0.57422 1.0156,1.4648 1.0156,2.6719 0,1.2812 -0.46875,2.2461 -1.4062,2.8906 -0.9375,0.63672 -2.3438,0.95312 -4.2188,0.95312 -0.78125,0 -1.5938,-0.0625 -2.4375,-0.1875 -0.8437,-0.125 -1.7148,-0.3125 -2.6094,-0.5625 v -2.9062 c 0.75781,0.375 1.5391,0.65625 2.3438,0.84375 0.80078,0.17969 1.6133,0.26562 2.4375,0.26562 0.75,0 1.3125,-0.10156 1.6875,-0.3125 0.38281,-0.20703 0.57812,-0.50781 0.57812,-0.90625 0,-0.34375 -0.13281,-0.59766 -0.39062,-0.76562 C 7.70756,-4.38304 7.18803,-4.51586 6.40678,-4.6096 L 5.7349,-4.70335 C 4.0357,-4.91038 2.8443,-5.30101 2.1568,-5.87525 1.4693,-6.45728 1.1256,-7.33615 1.1256,-8.51585 c 0,-1.2695 0.42969,-2.207 1.2969,-2.8125 0.875,-0.61328 2.2109,-0.92188 4.0156,-0.92188 0.69531,0 1.4297,0.05469 2.2031,0.15625 0.78125,0.10547 1.6289,0.27344 2.5469,0.5 z"
         id="path2921" />
    </symbol>
    <symbol
       id="g"
       overflow="visible">
      <path
         d="m 1.7031,-4.6562 v -7.3125 h 3.8438 v 1.2031 c 0,0.64844 -0.00781,1.4609 -0.015625,2.4375 v 1.9688 c 0,0.96094 0.023438,1.6523 0.078125,2.0781 0.050781,0.41797 0.13281,0.72656 0.25,0.92188 0.15625,0.25 0.35938,0.44531 0.60938,0.57812 0.25781,0.13672 0.55078,0.20312 0.875,0.20312 0.80078,0 1.4258,-0.30469 1.875,-0.92188 0.45703,-0.61328 0.6875,-1.4688 0.6875,-2.5625 v -5.9062 h 3.8281 v 11.969 h -3.8281 v -1.7344 c -0.57422,0.69922 -1.1836,1.2148 -1.8281,1.5469 -0.64844,0.33203 -1.3555,0.5 -2.125,0.5 -1.3867,0 -2.4453,-0.42188 -3.1719,-1.2656 -0.71875,-0.85156 -1.0781,-2.0859 -1.0781,-3.7031 z"
         id="path2924" />
    </symbol>
    <symbol
       id="v"
       overflow="visible">
      <path
         d="m 13.109,-15.438 v 3.375 c -0.875,-0.39453 -1.7305,-0.69141 -2.5625,-0.89062 -0.83594,-0.19531 -1.6211,-0.29688 -2.3594,-0.29688 -0.99219,0 -1.7188,0.13672 -2.1875,0.40625 -0.46875,0.27344 -0.70312,0.6875 -0.70312,1.25 0,0.42969 0.15625,0.76172 0.46875,1 0.32031,0.24219 0.89844,0.44922 1.7344,0.625 l 1.75,0.34375 c 1.7695,0.35547 3.0312,0.89844 3.7812,1.625 0.75,0.73047 1.125,1.7617 1.125,3.0938 0,1.7617 -0.52734,3.0742 -1.5781,3.9375 -1.043,0.85547 -2.6328,1.2812 -4.7656,1.2812 -1.0117,0 -2.0273,-0.10156 -3.0469,-0.29688 -1.0234,-0.1875 -2.043,-0.46875 -3.0625,-0.84375 v -3.4688 c 1.0195,0.53125 2.0039,0.9375 2.9531,1.2188 0.95703,0.27344 1.875,0.40625 2.75,0.40625 0.90625,0 1.5938,-0.14453 2.0625,-0.4375 0.47656,-0.30078 0.71875,-0.73438 0.71875,-1.2969 0,-0.48828 -0.16406,-0.86719 -0.48438,-1.1406 C 9.37848,-5.81691 8.73395,-6.063 7.7652,-6.28176 L 6.1714,-6.64114 c -1.5938,-0.33203 -2.7617,-0.875 -3.5,-1.625 -0.74219,-0.75 -1.1094,-1.7578 -1.1094,-3.0312 0,-1.582 0.50781,-2.8008 1.5312,-3.6562 1.0312,-0.85156 2.5078,-1.2812 4.4375,-1.2812 0.875,0 1.7734,0.07031 2.7031,0.20312 0.92578,0.125 1.8828,0.32422 2.875,0.59375 z"
         id="path2927" />
    </symbol>
    <symbol
       id="u"
       overflow="visible">
      <path
         d="m 9.7031,-16.625 v 2.5156 H 7.5937 c -0.54297,0 -0.92188,0.10156 -1.1406,0.29688 -0.21094,0.19922 -0.3125,0.53906 -0.3125,1.0156 v 0.82812 h 3.2656 v 2.7344 H 6.1406 V 0 H 2.3125 V -9.2344 H 0.4219 v -2.7344 h 1.8906 v -0.82812 c 0,-1.3008 0.36328,-2.2656 1.0938,-2.8906 0.72656,-0.625 1.8516,-0.9375 3.375,-0.9375 z"
         id="path2930" />
    </symbol>
    <symbol
       id="t"
       overflow="visible">
      <path
         d="m 12.922,-9.9688 c 0.48828,-0.75 1.0625,-1.3164 1.7188,-1.7031 0.66406,-0.38281 1.3984,-0.57812 2.2031,-0.57812 1.375,0 2.4219,0.42969 3.1406,1.2812 0.71875,0.84375 1.0781,2.0742 1.0781,3.6875 v 7.2812 h -3.8438 v -6.2344 c 0.0078,-0.09375 0.01563,-0.1875 0.01563,-0.28125 v -0.4375 c 0,-0.84375 -0.125,-1.457 -0.375,-1.8438 -0.25,-0.38281 -0.65234,-0.57812 -1.2031,-0.57812 -0.73047,0 -1.293,0.30469 -1.6875,0.90625 -0.38672,0.59375 -0.58984,1.4609 -0.60938,2.5938 v 5.875 h -3.8438 v -6.2344 c 0,-1.3203 -0.11719,-2.1758 -0.34375,-2.5625 -0.23047,-0.38281 -0.63672,-0.57812 -1.2188,-0.57812 -0.73047,0 -1.2969,0.30469 -1.7031,0.90625 -0.39844,0.60547 -0.59375,1.4648 -0.59375,2.5781 v 5.8906 h -3.8438 v -11.969 h 3.8438 v 1.75 c 0.46875,-0.66406 1.0039,-1.1719 1.6094,-1.5156 0.61328,-0.34375 1.2891,-0.51562 2.0312,-0.51562 0.82031,0 1.5508,0.19922 2.1875,0.59375 0.63281,0.39844 1.1133,0.96094 1.4375,1.6875 z"
         id="path2933" />
    </symbol>
    <symbol
       id="s"
       overflow="visible">
      <path
         d="M 13.859,-7.2812 V 0 h -3.8438 v -5.5469 c 0,-1.0508 -0.027344,-1.7695 -0.078125,-2.1562 -0.042969,-0.39453 -0.12109,-0.6875 -0.23438,-0.875 -0.14844,-0.25 -0.35156,-0.44141 -0.60938,-0.57812 -0.25,-0.14453 -0.54297,-0.21875 -0.875,-0.21875 -0.79297,0 -1.418,0.3125 -1.875,0.9375 -0.46094,0.61719 -0.6875,1.4648 -0.6875,2.5469 V 3e-5 h -3.8125 v -16.625 h 3.8125 v 6.4062 c 0.58203,-0.69531 1.1953,-1.207 1.8438,-1.5312 0.64453,-0.33203 1.3594,-0.5 2.1406,-0.5 1.3828,0 2.4297,0.42969 3.1406,1.2812 0.71875,0.84375 1.0781,2.0742 1.0781,3.6875 z"
         id="path2936" />
    </symbol>
    <symbol
       id="r"
       overflow="visible">
      <path
         d="m 2.0156,-15.953 h 4.5781 l 5.8125,10.938 v -10.938 h 3.8906 V 0 H 11.703 L 5.9061,-10.938 V 0 H 2.0155 Z"
         id="path2939" />
    </symbol>
    <symbol
       id="q"
       overflow="visible">
      <path
         d="m 2.0156,-15.953 h 6.8125 c 2.0312,0 3.5859,0.45312 4.6719,1.3594 1.0938,0.89844 1.6406,2.1797 1.6406,3.8438 0,1.6797 -0.54688,2.9688 -1.6406,3.875 -1.0859,0.89844 -2.6406,1.3438 -4.6719,1.3438 H 6.125 V 2e-4 H 2.0156 Z m 4.1094,2.9844 v 4.4531 h 2.2656 c 0.80078,0 1.4141,-0.19141 1.8438,-0.57812 0.4375,-0.38281 0.65625,-0.9375 0.65625,-1.6562 0,-0.70703 -0.21875,-1.2539 -0.65625,-1.6406 -0.42969,-0.38281 -1.043,-0.57812 -1.8438,-0.57812 z"
         id="path2942" />
    </symbol>
    <symbol
       id="p"
       overflow="visible">
      <path
         d="m 1.8438,-11.969 h 3.8125 v 11.75 c 0,1.6016 -0.38672,2.8281 -1.1562,3.6719 C 3.73838,4.29665 2.629,4.7185 1.172,4.7185 h -1.8906 v -2.5 h 0.65625 c 0.72656,0 1.2266,-0.16797 1.5,-0.5 C 1.70718,1.39428 1.8439,0.74975 1.8439,-0.219 Z m 0,-4.6562 h 3.8125 v 3.125 H 1.8438 Z"
         id="path2945" />
    </symbol>
    <symbol
       id="o"
       overflow="visible">
      <path
         d="m 11.5,-11.594 v 3.125 C 10.97656,-8.82056 10.457,-9.08228 9.9375,-9.25025 9.41406,-9.42603 8.875,-9.51587 8.3125,-9.51587 c -1.0742,0 -1.9062,0.3125 -2.5,0.9375 -0.5938,0.625 -0.89062,1.4961 -0.89062,2.6094 0,1.1172 0.29688,1.9844 0.89062,2.6094 0.59374,0.625 1.4258,0.9375 2.5,0.9375 0.59375,0 1.1562,-0.085937 1.6875,-0.26562 0.53906,-0.17578 1.0391,-0.44141 1.5,-0.79688 v 3.125 c -0.59375,0.23047 -1.1992,0.39453 -1.8125,0.5 -0.61719,0.11328 -1.2344,0.17188 -1.8594,0.17188 -2.1562,0 -3.8438,-0.55078 -5.0625,-1.6562 -1.2188,-1.1133 -1.8281,-2.6562 -1.8281,-4.625 0,-1.9688 0.60938,-3.5039 1.8281,-4.6094 1.2188,-1.1133 2.9062,-1.6719 5.0625,-1.6719 0.625,0 1.2383,0.05859 1.8438,0.17188 0.61328,0.10547 1.2227,0.26562 1.8281,0.48438 z"
         id="path2948" />
    </symbol>
  </defs>
  <path
     id="path3"
     class="active"
     style="display:inline;fill:#00ffff;stroke-width:0.0373432"
     d="m 33.716896,25.944406 c -0.214914,0.214314 -0.170265,0.557264 -0.169868,0.839346 0.07531,1.064089 1.070126,1.931428 2.126885,1.91785 0.830934,0.02276 1.667436,-0.463305 1.979044,-1.248955 0.193485,-0.449502 0.295194,-0.989181 0.09555,-1.451133 -0.264583,-0.203829 -0.628324,-0.06423 -0.937738,-0.105246 -0.988378,0.007 -1.980843,-0.01413 -2.966672,0.01057 -0.0424,0.01252 -0.0848,0.02504 -0.127197,0.03756 z M 22.140505,45.912221 c -0.631487,0.01391 -1.271035,-0.02795 -1.897434,0.02115 -0.329294,0.09764 -0.215232,0.506929 -0.219605,0.772537 0.0541,0.895573 0.7602,1.678909 1.63413,1.857532 0.987341,0.247509 2.142526,-0.292909 2.485438,-1.273534 0.127088,-0.351596 0.23592,-0.753166 0.126033,-1.119785 -0.202402,-0.330051 -0.653405,-0.226753 -0.978144,-0.256953 -0.383467,-0.0023 -0.766946,-8.25e-4 -1.150418,-9.75e-4 z M 5.7312327,35.392234 c -0.2405099,0.219594 -0.089721,0.571408 -0.057036,0.851819 0.1583226,0.814155 0.8381911,1.485164 1.657853,1.62219 1.006739,0.228548 2.1429215,-0.37771 2.4582133,-1.374353 0.098751,-0.314906 0.1773645,-0.656213 0.1204178,-0.983687 -0.2080635,-0.282867 -0.6043868,-0.121486 -0.9022905,-0.164106 -1.049466,0.0071 -2.1030438,-0.01418 -3.1499601,0.01058 -0.042399,0.01252 -0.084798,0.02504 -0.1271976,0.03756 z"
     inkscape:label="active" />
  <path
     id="path2953"
     d="m 43.410296,24.982436 -1.99317,-4.077854 c -0.48265,-0.971898 -1.37555,-1.675975 -2.43307,-1.918504 v -1.414991 c -7.5e-4,-0.664526 -0.25285,-1.304171 -0.7055,-1.790823 -0.45265,-0.486315 -1.07251,-0.783814 -1.73518,-0.832114 V 5.754222 h 3.29884 c 0.21736,0 0.42594,-0.08636 0.57962,-0.240048 0.15369,-0.153688 0.24005,-0.362267 0.24005,-0.579626 V 3.139322 c -0.001,-0.832479 -0.33263,-1.630167 -0.9214,-2.219021 C 39.151706,0.331898 38.353606,7.31e-4 37.521186,0 H 6.7885755 c -0.83248,0.0011 -1.63054,0.332263 -2.2193,0.921032 -0.5884,0.588779 -0.91957,1.386888 -0.92067,2.219021 v 1.795226 c 0,0.217358 0.0864,0.425939 0.24005,0.579626 0.15405,0.153686 0.36227,0.240047 0.57963,0.240047 h 2.47916 V 24.42665 c -0.67184,0.03586 -1.30455,0.327869 -1.76778,0.815646 -0.46363,0.487776 -0.7227,1.134334 -0.72417,1.80731 v 1.378457 c -0.98323,0.187719 -1.8223,0.824797 -2.26726,1.721314 l -2.10848998,4.311671 c -0.12076,0.254689 -0.10356,0.55291 0.0461,0.791861 0.1493,0.238951 0.4102,0.385322 0.6916,0.388244 H 4.2560455 c -0.0355,0.954007 0.31835,1.881971 0.98108,2.56956 0.66232,0.687945 1.5764,1.076536 2.53143,1.076536 0.95466,0 1.86877,-0.388609 2.5311605,-1.076536 0.66268,-0.68757 1.01686,-1.615553 0.98107,-2.56956 h 3.43861 c 0.28176,-0.0029 0.54267,-0.148927 0.69196,-0.387879 0.14967,-0.238951 0.16686,-0.537546 0.0457,-0.792226 l -2.11101,-4.311671 c -0.45301,-0.914081 -1.31401,-1.55738 -2.31851,-1.733024 v -1.366747 c -7.5e-4,-0.664526 -0.25285,-1.304171 -0.7055,-1.790449 C 9.8693955,24.772477 9.2495355,24.475343 8.5868555,24.426678 V 5.75498 H 21.335366 v 29.204739 c -0.67185,0.03586 -1.30455,0.327869 -1.76778,0.815645 -0.46363,0.487777 -0.7227,1.134335 -0.72454,1.807311 v 1.41396 c -1.02201,0.237115 -1.88487,0.91884 -2.35148,1.858552 l -2.02389,4.139398 c -0.12076,0.254689 -0.10356,0.55291 0.0457,0.791861 0.1493,0.238952 0.4102,0.384957 0.69197,0.387879 h 3.44881 c -0.0871,0.982485 0.2426,1.956257 0.90859,2.683659 C 20.228736,49.585807 21.169496,50 22.156096,50 c 0.98614,0 1.92731,-0.41423 2.59336,-1.142016 0.66598,-0.727458 0.99569,-1.701174 0.90859,-2.683659 h 3.44778 c 0.28176,-0.0029 0.54267,-0.148927 0.69196,-0.387879 0.1493,-0.238951 0.1665,-0.537181 0.0457,-0.791861 l -2.02323,-4.139398 c -0.47534,-0.955787 -1.35944,-1.643751 -2.403,-1.869137 v -1.401127 c -10e-4,-0.664891 -0.25359,-1.304171 -0.70661,-1.790448 -0.45302,-0.486278 -1.07326,-0.783449 -1.73593,-0.831384 V 5.754606 h 11.92883 v 9.192054 c -0.67184,0.03623 -1.30454,0.32787 -1.76815,0.815646 -0.46326,0.487776 -0.72234,1.134709 -0.72417,1.80731 v 1.426701 c -1.03598,0.253949 -1.90717,0.951383 -2.38146,1.906795 l -1.99391,4.077853 c -0.12076,0.254689 -0.10356,0.553275 0.0457,0.792226 0.1493,0.238586 0.4102,0.384956 0.69196,0.387879 h 3.4313 c -0.11674,0.997192 0.19833,1.996819 0.86614,2.746609 0.66745,0.750147 1.62361,1.179019 2.62774,1.179019 1.00374,0 1.95991,-0.428863 2.62773,-1.179019 0.66745,-0.749781 0.98248,-1.749511 0.86615,-2.746609 h 3.48366 c 0.28066,-0.0044 0.53973,-0.150764 0.68831,-0.388975 0.14856,-0.23822 0.16576,-0.535345 0.0461,-0.789303 z M 9.6453555,35.771215 c -0.0959,2.572463 -3.84993,2.434477 -3.74595,-0.130633 h 3.73462 c 0.003,0.04355 0.0113,0.08636 0.0113,0.130633 z m 2.2269905,-4.903054 1.53143,3.132371 H 2.1288155 l 1.53143,-3.132371 c 0.12771,-0.259073 0.32531,-0.477172 0.57011,-0.630128 0.24517,-0.152956 0.52803,-0.234558 0.81675,-0.235654 h 5.1599105 c 0.333,-0.04464 0.67148,0.01464 0.96937,0.16979 0.29823,0.154782 0.5412,0.398127 0.69563,0.695992 z M 9.3877455,27.04895 v 1.314757 h -3.29331 V 27.04895 c 3.8e-4,-0.547795 0.44424,-0.991665 0.99204,-0.992414 h 1.30895 c 0.5478,7.49e-4 0.99167,0.4446 0.99242,0.992414 z M 24.033206,46.483178 c -0.11965,2.689186 -4.06726,2.357288 -3.72516,-0.307007 h 3.69069 c 0.0198,0.101358 0.0311,0.203822 0.0344,0.306642 z m 2.31195,-4.906332 1.44684,2.960006 h -11.27496 l 1.44722,-2.960006 v 3.75e-4 c 0.15332,-0.310671 0.39044,-0.572676 0.68428,-0.756002 0.29383,-0.183326 0.63305,-0.281396 0.97958,-0.282492 h 4.96778 c 0.36044,-0.01427 0.71759,0.07648 1.02792,0.260534 0.31031,0.184432 0.56097,0.454118 0.7216,0.777594 z m -2.56918,-3.992607 v 1.314757 l -3.29406,3.74e-4 v -1.315131 c 7.5e-4,-0.547795 0.4446,-0.991665 0.99241,-0.992414 h 1.30895 c 0.5478,7.49e-4 0.99167,0.4446 0.99279,0.992414 z M 5.2878855,3.13921 c 7.4e-4,-0.397762 0.15917,-0.77869 0.4402,-1.060049 0.2814,-0.281031 0.66269,-0.439476 1.06043,-0.439842 h 30.7326105 -3.8e-4 c 0.39776,3.66e-4 0.77942,0.158811 1.06042,0.440207 0.2814,0.281396 0.43948,0.66269 0.44021,1.060424 V 4.115502 H 5.2873555 Z M 34.050466,17.571087 c 7.5e-4,-0.547795 0.4446,-0.991665 0.99241,-0.992414 h 1.30895 c 0.5478,7.49e-4 0.99129,0.4446 0.99204,0.992414 v 1.314756 h -3.29331 z m 3.5246,8.997394 c -0.13942,2.756164 -4.17481,2.311198 -3.71196,-0.406174 h 3.66699 c 0.03,0.133564 0.0454,0.269686 0.0457,0.406174 z m -7.48976,-2.045531 1.41724,-2.89846 v 3.75e-4 c 0.16247,-0.328966 0.4135,-0.606343 0.7249,-0.800648 0.31103,-0.193939 0.67037,-0.297865 1.03738,-0.298961 h 4.89902 c 0.36995,-0.0022 0.73295,0.0999 1.04806,0.294568 0.3147,0.194304 0.56828,0.473143 0.73222,0.805041 l 1.41724,2.898179 z"
     style="stroke-width:0.093677"
     inkscape:label="path2953" />
</svg>
