<?xml version="1.0" encoding="UTF-8" standalone="no"?>
<svg
   width="50pt"
   height="50pt"
   version="1.1"
   viewBox="0 0 50 50"
   id="svg3970"
   sodipodi:docname="cleaver.svg"
   inkscape:version="1.2.2 (b0a8486541, 2022-12-01)"
   xmlns:inkscape="http://www.inkscape.org/namespaces/inkscape"
   xmlns:sodipodi="http://sodipodi.sourceforge.net/DTD/sodipodi-0.dtd"
   xmlns="http://www.w3.org/2000/svg"
   xmlns:svg="http://www.w3.org/2000/svg">
  <defs
     id="defs3974" />
  <sodipodi:namedview
     id="namedview3972"
     pagecolor="#ffffff"
     bordercolor="#000000"
     borderopacity="0.25"
     inkscape:showpageshadow="2"
     inkscape:pageopacity="0.0"
     inkscape:pagecheckerboard="0"
     inkscape:deskcolor="#d1d1d1"
     inkscape:document-units="pt"
     showgrid="false"
     inkscape:zoom="1.005"
     inkscape:cx="469.15423"
     inkscape:cy="469.15423"
     inkscape:window-width="1836"
     inkscape:window-height="1476"
     inkscape:window-x="3016"
     inkscape:window-y="56"
     inkscape:window-maximized="1"
     inkscape:current-layer="svg3970" />
  <path
     id="path3966"
     d="m 30.12882,11.877904 c 0.604652,0.404557 1.302199,0.616611 2.01646,0.616611 0.235563,0 0.471524,-0.02391 0.709475,-0.06895 0.949824,-0.188136 1.773714,-0.733392 2.314205,-1.538109 0.542869,-0.804737 0.73578,-1.7737136 0.547654,-2.7259252 C 35.528488,7.2093142 34.980834,6.3878123 34.178505,5.847321 32.521624,4.7376659 30.259662,5.1780995 29.138069,6.8401944 28.024026,8.501871 28.466857,10.761078 30.128942,11.877875 Z m 0.490258,-4.0452667 c 0.354743,-0.53091 0.942651,-0.816696 1.53811,-0.816696 0.352344,0 0.711873,0.1000445 1.026392,0.3120912 0.409343,0.2738271 0.685568,0.6927411 0.78082,1.1761834 C 34.05966,8.987699 33.962,9.480345 33.685787,9.8896776 33.41196,10.29902 32.995444,10.577633 32.511951,10.672895 32.021294,10.770545 31.533434,10.668095 31.126489,10.394282 30.28109,9.8255064 30.052343,8.6780159 30.619088,7.8326373 Z M 1.740016,49.255169 c 0.6548751,0.440434 1.4093385,0.669222 2.1833931,0.669222 0.2546951,0 0.511778,-0.02631 0.7664732,-0.07613 1.0307803,-0.202483 1.9192186,-0.792779 2.5047084,-1.664126 l 10.0211803,-14.93009 12.615886,8.466336 c 0.540481,0.364304 1.281077,0.223605 1.650146,-0.323651 L 49.797489,14.109929 c 0.176178,-0.261868 0.242737,-0.583122 0.178566,-0.892826 -0.05939,-0.309703 -0.242737,-0.583122 -0.504605,-0.75731 L 31.320043,0.27654526 C 30.78196,-0.08537066 30.038966,0.05294083 29.669897,0.60019722 L 0.66784938,43.803789 c -0.58552035,0.871307 -0.79517629,1.919219 -0.59269357,2.94755 0.20208478,1.02874 0.79477835,1.919219 1.66412549,2.504709 z M 30.983892,2.9139317 42.878374,10.897122 31.330818,28.098562 c -0.273827,0.409342 -0.164218,0.96417 0.245125,1.240364 0.15226,0.102436 0.326039,0.149873 0.497431,0.149873 0.285786,0 0.569174,-0.137914 0.742954,-0.395395 l 11.547555,-17.201439 2.797658,1.878506 -16.994304,25.31136 -2.797658,-1.876159 2.390325,-3.559365 c 0.273827,-0.409343 0.164219,-0.964171 -0.245124,-1.240365 -0.409343,-0.273827 -0.961783,-0.168994 -1.240365,0.245124 L 25.88409,36.210431 17.550912,30.615525 13.991547,28.2252 Z M 2.644066,45.131844 12.665246,30.201753 15.236483,31.92802 5.2153027,46.856069 C 4.984525,47.201241 4.6345679,47.432416 4.2272148,47.513332 3.8178719,47.591853 3.4105188,47.508546 3.0653166,47.280157 2.720145,47.049379 2.4889694,46.699422 2.4080539,46.292069 2.3323228,45.887103 2.415625,45.475373 2.644015,45.132211 Z"
     style="stroke-width:0.102037" />
</svg>
