<?xml version="1.0" encoding="UTF-8" standalone="no"?>
<svg
   width="50pt"
   height="50pt"
   version="1.1"
   viewBox="0 0 50 50"
   id="svg4881"
   sodipodi:docname="computer.svg"
   inkscape:version="1.3 (0e150ed6c4, 2023-07-21)"
   xmlns:inkscape="http://www.inkscape.org/namespaces/inkscape"
   xmlns:sodipodi="http://sodipodi.sourceforge.net/DTD/sodipodi-0.dtd"
   xmlns="http://www.w3.org/2000/svg"
   xmlns:svg="http://www.w3.org/2000/svg">
  <sodipodi:namedview
     id="namedview4883"
     pagecolor="#ffffff"
     bordercolor="#000000"
     borderopacity="0.25"
     inkscape:showpageshadow="2"
     inkscape:pageopacity="0.0"
     inkscape:pagecheckerboard="0"
     inkscape:deskcolor="#d1d1d1"
     inkscape:document-units="pt"
     showgrid="false"
     inkscape:zoom="22.539618"
     inkscape:cx="43.124067"
     inkscape:cy="34.406084"
     inkscape:window-width="2096"
     inkscape:window-height="1489"
     inkscape:window-x="0"
     inkscape:window-y="0"
     inkscape:window-maximized="1"
     inkscape:current-layer="svg4881" />
  <defs
     id="defs4835">
    <symbol
       id="o"
       overflow="visible">
      <path
         d="m 33.5,-2 c -1.7305,0.89844 -3.5312,1.5703 -5.4062,2.0156 -1.8672,0.45703 -3.8203,0.6875 -5.8594,0.6875 -6.0625,0 -10.871,-1.6914 -14.422,-5.0781 -3.5547,-3.3945 -5.3281,-8 -5.3281,-13.812 0,-5.8203 1.7734,-10.43 5.3281,-13.828 3.5508,-3.3945 8.3594,-5.0938 14.422,-5.0938 2.0391,0 3.9922,0.23047 5.8594,0.6875 1.875,0.44922 3.6758,1.1211 5.4062,2.0156 v 7.5469 c -1.7422,-1.1875 -3.4609,-2.0547 -5.1562,-2.6094 -1.6875,-0.55078 -3.4688,-0.82812 -5.3438,-0.82812 -3.3555,0 -5.9961,1.0742 -7.9219,3.2188 -1.918,2.1484 -2.875,5.1094 -2.875,8.8906 0,3.7617 0.95703,6.7148 2.875,8.8594 1.9258,2.1484 4.5664,3.2188 7.9219,3.2188 1.875,0 3.6562,-0.27344 5.3438,-0.82812 1.6953,-0.55078 3.4141,-1.4219 5.1562,-2.6094 z"
         id="path4790" />
    </symbol>
    <symbol
       id="b"
       overflow="visible">
      <path
         d="m 24.516,-19.891 c -0.77344,-0.36328 -1.5391,-0.62891 -2.2969,-0.79688 -0.75,-0.17578 -1.5078,-0.26562 -2.2656,-0.26562 -2.25,0 -3.9844,0.72656 -5.2031,2.1719 -1.2109,1.4375 -1.8125,3.5 -1.8125,6.1875 V -1e-4 H 4.2035 v -27.344 h 8.7344 v 4.4844 c 1.125,-1.7812 2.4141,-3.082 3.875,-3.9062 1.457,-0.82031 3.2031,-1.2344 5.2344,-1.2344 0.28906,0 0.60938,0.01172 0.95312,0.03125 0.34375,0.02344 0.83594,0.07422 1.4844,0.15625 z"
         id="path4793" />
    </symbol>
    <symbol
       id="a"
       overflow="visible">
      <path
         d="m 31.5,-13.75 v 2.5 H 11.062 c 0.20703,2.0547 0.94531,3.5898 2.2188,4.6094 1.2695,1.0234 3.0469,1.5312 5.3281,1.5312 1.832,0 3.7109,-0.26953 5.6406,-0.8125 1.9375,-0.53906 3.9219,-1.3672 5.9531,-2.4844 v 6.75 c -2.0742,0.78125 -4.1406,1.3711 -6.2031,1.7656 -2.0625,0.3945 -4.1328,0.59375 -6.2031,0.59375 -4.9492,0 -8.793,-1.2539 -11.531,-3.7656 -2.7422,-2.5195 -4.1094,-6.0469 -4.1094,-10.578 0,-4.4688 1.3438,-7.9766 4.0312,-10.531 2.6953,-2.5508 6.4062,-3.8281 11.125,-3.8281 4.2891,0 7.7266,1.2969 10.312,3.8906 2.582,2.5859 3.875,6.0391 3.875,10.359 z m -8.9844,-2.9062 c 0,-1.6562 -0.48438,-2.9883 -1.4531,-4 -0.96875,-1.0195 -2.2344,-1.5312 -3.7969,-1.5312 -1.6992,0 -3.0781,0.47656 -4.1406,1.4219 -1.0547,0.94922 -1.7109,2.3203 -1.9688,4.1094 z"
         id="path4796" />
    </symbol>
    <symbol
       id="h"
       overflow="visible">
      <path
         d="m 16.453,-12.312 c -1.8242,0 -3.1953,0.3125 -4.1094,0.9375 -0.91797,0.61719 -1.375,1.5273 -1.375,2.7344 0,1.1055 0.36719,1.9688 1.1094,2.5938 0.73828,0.625 1.7656,0.9375 3.0781,0.9375 1.6445,0 3.0312,-0.58594 4.1562,-1.7656 1.125,-1.1758 1.6875,-2.6484 1.6875,-4.4219 v -1.0156 z m 13.359,-3.2812 V 8e-4 h -8.8125 v -4.0469 c -1.1797,1.6562 -2.5,2.8672 -3.9688,3.625 -1.4609,0.75 -3.2422,1.125 -5.3438,1.125 -2.8242,0 -5.1211,-0.82031 -6.8906,-2.4688 -1.7617,-1.6562 -2.6406,-3.8008 -2.6406,-6.4375 0,-3.207 1.0977,-5.5547 3.2969,-7.0469 2.207,-1.5 5.6719,-2.25 10.391,-2.25 h 5.1562 v -0.6875 c 0,-1.3828 -0.54688,-2.3945 -1.6406,-3.0312 -1.0938,-0.64453 -2.793,-0.96875 -5.0938,-0.96875 -1.875,0 -3.6211,0.1875 -5.2344,0.5625 -1.6172,0.375 -3.1094,0.93359 -4.4844,1.6719 v -6.6562 c 1.8633,-0.45703 3.7383,-0.80078 5.625,-1.0312 1.8945,-0.23828 3.7852,-0.35938 5.6719,-0.35938 4.9375,0 8.5,0.97656 10.688,2.9219 2.1875,1.9375 3.2812,5.1016 3.2812,9.4844 z"
         id="path4799" />
    </symbol>
    <symbol
       id="g"
       overflow="visible">
      <path
         d="m 13.75,-35.109 v 7.7656 h 9 v 6.25 h -9 v 11.594 c 0,1.2734 0.25,2.1328 0.75,2.5781 0.50781,0.44922 1.5078,0.67188 3,0.67188 H 22 v 6.25 h -7.5 c -3.4492,0 -5.8984,-0.71875 -7.3438,-2.1562 C 5.7187,-3.60092 5,-6.05012 5,-9.49942 v -11.594 H 0.6562 v -6.25 H 5 v -7.7656 z"
         id="path4802" />
    </symbol>
    <symbol
       id="c"
       overflow="visible">
      <path
         d="m 22.797,-23.344 v -14.641 h 8.7969 V -0.001 H 22.797 v -3.9531 c -1.1992,1.6172 -2.5234,2.7969 -3.9688,3.5469 -1.4492,0.73828 -3.125,1.1094 -5.0312,1.1094 -3.375,0 -6.1484,-1.3359 -8.3125,-4.0156 -2.1562,-2.6758 -3.2344,-6.1172 -3.2344,-10.328 0,-4.2188 1.0781,-7.6641 3.2344,-10.344 2.1641,-2.6758 4.9375,-4.0156 8.3125,-4.0156 1.8828,0 3.5547,0.38281 5.0156,1.1406 1.457,0.75 2.7852,1.9219 3.9844,3.5156 z m -5.75,17.703 c 1.8633,0 3.2852,-0.67969 4.2656,-2.0469 0.98828,-1.3633 1.4844,-3.3477 1.4844,-5.9531 0,-2.6016 -0.49609,-4.5859 -1.4844,-5.9531 -0.98047,-1.375 -2.4023,-2.0625 -4.2656,-2.0625 -1.8555,0 -3.2773,0.6875 -4.2656,2.0625 -0.99219,1.3672 -1.4844,3.3516 -1.4844,5.9531 0,2.6055 0.49219,4.5898 1.4844,5.9531 0.98828,1.3672 2.4102,2.0469 4.2656,2.0469 z"
         id="path4805" />
    </symbol>
    <symbol
       id="f"
       overflow="visible">
      <path
         d="m 18.75,-5.6406 c 1.875,0 3.3008,-0.67969 4.2812,-2.0469 0.98828,-1.3633 1.4844,-3.3477 1.4844,-5.9531 0,-2.6016 -0.49609,-4.5859 -1.4844,-5.9531 -0.98047,-1.375 -2.4062,-2.0625 -4.2812,-2.0625 -1.875,0 -3.3125,0.6875 -4.3125,2.0625 -1,1.375 -1.5,3.3594 -1.5,5.9531 0,2.5859 0.5,4.5625 1.5,5.9375 1,1.375 2.4375,2.0625 4.3125,2.0625 z m -5.8125,-17.703 c 1.207,-1.5938 2.5391,-2.7656 4,-3.5156 1.4688,-0.75781 3.1562,-1.1406 5.0625,-1.1406 3.3633,0 6.1289,1.3398 8.2969,4.0156 2.1641,2.6797 3.25,6.125 3.25,10.344 0,4.2109 -1.0859,7.6523 -3.25,10.328 -2.168,2.6797 -4.9336,4.0156 -8.2969,4.0156 -1.9062,0 -3.5938,-0.375 -5.0625,-1.125 -1.4609,-0.75781 -2.793,-1.9375 -4,-3.5312 V 3e-4 H 4.2031 v -37.984 h 8.7344 z"
         id="path4808" />
    </symbol>
    <symbol
       id="e"
       overflow="visible">
      <path
         d="m 0.60938,-27.344 h 8.7344 l 7.3594,18.547 6.25,-18.547 h 8.7344 l -11.5,29.938 c -1.1562,3.0391 -2.5078,5.1641 -4.0469,6.375 -1.5312,1.2188 -3.5586,1.8281 -6.0781,1.8281 h -5.0625 v -5.75 h 2.7344 c 1.4883,0 2.5664,-0.23438 3.2344,-0.70312 0.67578,-0.46875 1.2031,-1.3125 1.5781,-2.5312 l 0.25,-0.76562 z"
         id="path4811" />
    </symbol>
    <symbol
       id="d"
       overflow="visible">
      <path
         d="M 26.703,-6.6406 H 12.015 L 9.6869,0 H 0.2494 l 13.5,-36.453 h 11.203 L 38.4524,0 h -9.4531 z m -12.344,-6.7656 h 9.9844 l -4.9844,-14.5 z"
         id="path4814" />
    </symbol>
    <symbol
       id="n"
       overflow="visible">
      <path
         d="M 31.688,-16.656 V 0 h -8.7812 v -12.75 c 0,-2.3516 -0.05859,-3.9766 -0.17188,-4.875 -0.10547,-0.89453 -0.28906,-1.5547 -0.54688,-1.9844 -0.33594,-0.5625 -0.79688,-1 -1.3906,-1.3125 -0.58594,-0.32031 -1.25,-0.48438 -2,-0.48438 -1.8242,0 -3.2578,0.70312 -4.2969,2.1094 -1.043,1.4062 -1.5625,3.3555 -1.5625,5.8438 V -8e-5 h -8.7344 v -27.344 h 8.7344 v 4 c 1.3203,-1.5938 2.7227,-2.7656 4.2031,-3.5156 1.4766,-0.75781 3.1133,-1.1406 4.9062,-1.1406 3.1562,0 5.5508,0.96875 7.1875,2.9062 1.6328,1.9375 2.4531,4.75 2.4531,8.4375 z"
         id="path4817" />
    </symbol>
    <symbol
       id="m"
       overflow="visible">
      <path
         d="m 4.2031,-27.344 h 8.7344 v 26.859 c 0,3.6562 -0.88281,6.4453 -2.6406,8.375 C 8.5469,9.8275 6,10.7962 2.6563,10.7962 h -4.3125 v -5.75 h 1.5156 c 1.6562,0 2.7891,-0.375 3.4062,-1.125 0.625,-0.74219 0.9375,-2.2109 0.9375,-4.4062 z m 0,-10.641 h 8.7344 v 7.125 H 4.2031 Z"
         id="path4820" />
    </symbol>
    <symbol
       id="l"
       overflow="visible">
      <path
         d="m 25.562,-26.484 v 6.6406 c -1.875,-0.78125 -3.6836,-1.3633 -5.4219,-1.75 -1.7422,-0.39453 -3.3867,-0.59375 -4.9375,-0.59375 -1.6562,0 -2.8906,0.21094 -3.7031,0.625 -0.80469,0.40625 -1.2031,1.043 -1.2031,1.9062 0,0.69922 0.30469,1.2344 0.92188,1.6094 0.61328,0.375 1.707,0.65234 3.2812,0.82812 l 1.5469,0.21875 c 4.4688,0.57422 7.4727,1.5117 9.0156,2.8125 1.5508,1.3047 2.3281,3.3438 2.3281,6.125 0,2.918 -1.0742,5.1094 -3.2188,6.5781 -2.1484,1.4609 -5.3555,2.1875 -9.625,2.1875 -1.8047,0 -3.668,-0.14062 -5.5938,-0.42188 -1.9297,-0.28125 -3.9141,-0.70703 -5.9531,-1.2812 v -6.6406 c 1.7383,0.84375 3.5234,1.4805 5.3594,1.9062 1.832,0.41797 3.6914,0.625 5.5781,0.625 1.707,0 2.9922,-0.23438 3.8594,-0.70312 0.86328,-0.46875 1.2969,-1.1641 1.2969,-2.0938 0,-0.78125 -0.29688,-1.3633 -0.89062,-1.75 -0.59375,-0.38281 -1.7773,-0.67969 -3.5469,-0.89062 l -1.5469,-0.20312 c -3.8867,-0.47656 -6.6094,-1.3789 -8.1719,-2.7031 -1.5625,-1.3203 -2.3438,-3.3203 -2.3438,-6 0,-2.8945 0.98828,-5.0391 2.9688,-6.4375 1.9883,-1.4062 5.0352,-2.1094 9.1406,-2.1094 1.6016,0 3.2891,0.125 5.0625,0.375 1.7812,0.24219 3.7109,0.62109 5.7969,1.1406 z"
         id="path4823" />
    </symbol>
    <symbol
       id="k"
       overflow="visible">
      <path
         d="m 4.5938,-36.453 h 9.3906 v 13.312 l 13.562,-13.312 h 10.906 l -17.547,17.266 19.359,19.188 h -11.781 l -14.5,-14.359 V 0.001 H 4.5928 Z"
         id="path4826" />
    </symbol>
    <symbol
       id="j"
       overflow="visible">
      <path
         d="m 4.2031,-27.344 h 8.7344 V 0 H 4.2031 Z m 0,-10.641 h 8.7344 v 7.125 H 4.2031 Z"
         id="path4829" />
    </symbol>
    <symbol
       id="i"
       overflow="visible">
      <path
         d="m 29.547,-22.797 c 1.1016,-1.6953 2.4141,-2.9883 3.9375,-3.875 1.5195,-0.88281 3.1914,-1.3281 5.0156,-1.3281 3.1445,0 5.5352,0.96875 7.1719,2.9062 1.6445,1.9375 2.4688,4.75 2.4688,8.4375 V -4e-4 h -8.7812 v -14.266 c 0.0078,-0.20703 0.01953,-0.42578 0.03125,-0.65625 0.0078,-0.22656 0.01563,-0.55078 0.01563,-0.96875 0,-1.9375 -0.28906,-3.3359 -0.85938,-4.2031 -0.5625,-0.875 -1.4805,-1.3125 -2.75,-1.3125 -1.668,0 -2.9531,0.68359 -3.8594,2.0469 -0.89844,1.3672 -1.3594,3.3438 -1.3906,5.9375 V -6e-4 h -8.7969 v -14.266 c 0,-3.0195 -0.26172,-4.9609 -0.78125,-5.8281 -0.52344,-0.875 -1.4492,-1.3125 -2.7812,-1.3125 -1.6797,0 -2.9766,0.6875 -3.8906,2.0625 -0.90625,1.375 -1.3594,3.3398 -1.3594,5.8906 v 13.453 h -8.7812 v -27.344 h 8.7812 v 4 c 1.0703,-1.5391 2.3008,-2.7031 3.6875,-3.4844 1.3945,-0.78125 2.9297,-1.1719 4.6094,-1.1719 1.8945,0 3.5664,0.46094 5.0156,1.375 1.4453,0.90625 2.5469,2.1836 3.2969,3.8281 z"
         id="path4832" />
    </symbol>
  </defs>
  <rect
     style="fill:#00ffff;stroke-width:0.75"
     id="rect1"
     class="active"
     width="25"
     height="19.117647"
     x="22.058825"
     y="14.227678"
     inkscape:label="active" />
  <path
     d="m 1.470588,3.9335598 h 16.176471 c 0.812279,0 1.470588,0.6583162 1.470588,1.4705882 v 38.235294 c 0,0.81228 -0.658316,1.470589 -1.470588,1.470589 H 1.470588 C 0.658309,45.110031 0,44.451714 0,43.639442 V 5.404148 C 0,4.5918686 0.658316,3.9335598 1.470588,3.9335598 Z m 12.5,10.2941182 H 5.147059 c -0.406133,0 -0.735294,0.329161 -0.735294,0.735294 v 1.470588 c 0,0.406132 0.329161,0.735294 0.735294,0.735294 h 8.823529 c 0.406133,0 0.735294,-0.329162 0.735294,-0.735294 v -1.470588 c 0,-0.406133 -0.329161,-0.735294 -0.735294,-0.735294 z M 9.558824,34.815913 c 1.218382,0 2.205882,-0.9875 2.205882,-2.205882 0,-1.218383 -0.9875,-2.205883 -2.205882,-2.205883 -1.218383,0 -2.205883,0.9875 -2.205883,2.205883 0,1.218382 0.9875,2.205882 2.205883,2.205882 z M 13.970588,20.110031 H 5.147059 c -0.406133,0 -0.735294,0.329161 -0.735294,0.735294 v 1.470588 c 0,0.406132 0.329161,0.735294 0.735294,0.735294 h 8.823529 c 0.406133,0 0.735294,-0.329162 0.735294,-0.735294 v -1.470588 c 0,-0.406133 -0.329161,-0.735294 -0.735294,-0.735294 z m 8.088236,13.235294 h 25 V 14.227678 h -25 V 11.286501 H 48.529412 C 49.341691,11.286501 50,11.944817 50,12.757089 v 22.058824 c 0,0.812279 -0.658316,1.470588 -1.470588,1.470588 H 33.823529 v 5.882353 h 5.147059 c 0.406133,0 0.735294,0.329162 0.735294,0.735294 v 1.470588 c 0,0.406133 -0.329161,0.735295 -0.735294,0.735295 H 25.735294 C 25.329162,45.110031 25,44.780869 25,44.374736 v -1.470588 c 0,-0.406132 0.329162,-0.735294 0.735294,-0.735294 h 5.147059 v -5.882353 h -8.823529 z"
     fill-rule="evenodd"
     id="path4837"
     style="stroke-width:0.0735294" />
</svg>
