<?xml version="1.0" encoding="UTF-8" standalone="no"?>
<svg
   version="1.1"
   viewBox="-13 -10 50 50"
   id="svg2"
   sodipodi:docname="door.svg"
   width="50"
   height="50"
   inkscape:version="1.3.2 (091e20ef0f, 2023-11-25, custom)"
   xmlns:inkscape="http://www.inkscape.org/namespaces/inkscape"
   xmlns:sodipodi="http://sodipodi.sourceforge.net/DTD/sodipodi-0.dtd"
   xmlns="http://www.w3.org/2000/svg"
   xmlns:svg="http://www.w3.org/2000/svg">
  <defs
     id="defs2" />
  <sodipodi:namedview
     id="namedview2"
     pagecolor="#ffffff"
     bordercolor="#000000"
     borderopacity="0.25"
     inkscape:showpageshadow="2"
     inkscape:pageopacity="0.0"
     inkscape:pagecheckerboard="0"
     inkscape:deskcolor="#d1d1d1"
     inkscape:zoom="8"
     inkscape:cx="27.75"
     inkscape:cy="21.375"
     inkscape:window-width="1475"
     inkscape:window-height="698"
     inkscape:window-x="0"
     inkscape:window-y="0"
     inkscape:window-maximized="1"
     inkscape:current-layer="svg2" />
  <path
     d="M 21.843287,1.7191741 C 20.706738,1.8714468 19.618339,2.2894836 18.501196,2.5455456 14.293,3.6776139 10.07884,4.7880891 5.8761959,5.940438 5.1947949,6.2363939 5.5148563,7.0843698 5.4429781,7.6617064 5.454617,19.608361 5.4662559,31.555015 5.4778949,43.50167 c 0.097574,0.742895 1.0087545,0.656189 1.5488798,0.87615 4.9062743,1.301621 9.7938133,2.680062 14.7204293,3.901366 1.006744,0.06627 1.973192,-0.903444 1.770092,-1.927262 C 23.50523,31.880974 23.493243,17.410025 23.481321,2.9390756 23.32838,2.3569628 22.76521,1.8926783 22.183212,1.7485021 22.071436,1.7260008 21.957221,1.71706 21.843287,1.7191741 Z M 19.949543,24.434478 c 0.594455,-0.03833 0.768153,0.8467 0.254873,1.076474 -0.75547,0.379929 -1.194826,-0.999234 -0.309479,-1.075217 l 0.02863,-0.0014 z"
     id="path10"
     class="active"
     inkscape:label="active"
     transform="translate(-5,-10)" />
  <path
     d="m 14.952711,13.86347 h 0.0028 c 0.624999,0 1.133362,0.508328 1.133362,1.133363 v 0.0028 c 0,0.627772 -0.508328,1.136136 -1.136135,1.136136 -0.627808,0 -1.136136,-0.508328 -1.136136,-1.136136 v -0.0028 c 0,-0.624999 0.508328,-1.133363 1.136136,-1.133363 z M -3.863891,-4.4667338 v 0.0028 c 0,-0.0028 0.0028,-0.0028 0.0028,-0.0028 0.624999,0 1.133362,0.508327 1.133362,1.136135 V 33.530347 c 0,0.627772 -0.508327,1.136135 -1.136135,1.136135 C -4.491637,34.666482 -5,34.158154 -5,33.530347 V -3.3305988 c 0,-0.627772 0.508328,-1.136135 1.136136,-1.136135 z m 30.4944,-2.1333211 v 0.0028 c 1.863883,-0.0028 3.377759,1.497236 3.405563,3.3555721 V 33.23882 c -0.02778,1.858336 -1.54168,3.358345 -3.405563,3.358345 h -3.613845 c -0.627773,0 -1.136136,-0.508328 -1.136136,-1.136136 0,-0.627772 0.508328,-1.136136 1.136136,-1.136136 h 3.608299 c 0.627772,0 1.136135,-0.486105 1.138909,-1.113878 V -3.2140478 c -0.0028,-0.627773 -0.511108,-1.113878 -1.138909,-1.113878 l -3.608299,-0.0028 c -0.627773,0 -1.136136,-0.508327 -1.136136,-1.1333621 0,-0.627772 0.508328,-1.136136 1.136136,-1.136136 z m -9.780565,-1.127745 v 0.0028 c -0.0055,-0.0028 -0.0083,-0.0028 -0.01389,-0.0028 -0.09444,0 -0.186111,0.01111 -0.274999,0.03333 L 1.011278,-3.5278098 V 33.524423 l 15.549777,4.16666 c 0.09167,0.02219 0.188884,0.03612 0.288887,0.03612 0.627772,0 1.136136,-0.511108 1.136136,-1.138908 V -6.5922689 c 0,-0.627772 -0.508328,-1.136135 -1.136136,-1.136135 z m 0,-2.2722001 v 0.0055 c 0,-0.0028 0.0028,-0.0028 0.0028,-0.0028 1.880523,0 3.405563,1.5249691 3.405563,3.4055631 V 36.588816 c 0,1.883296 -1.524969,3.411111 -3.408336,3.411111 -0.283333,0 -0.558333,-0.03612 -0.822182,-0.1 L -0.38885402,35.500028 v 0.0028 C -0.88884702,35.380603 -1.258324,34.930607 -1.258324,34.394497 V -4.3971308 c 0,-0.519442 0.34721898,-0.9555861 0.82218198,-1.0916921 h 0.0028 v 0.0028 L 16.027362,-9.8998639 c 0.263885,-0.06667 0.538884,-0.1000001 0.822182,-0.1000001 z"
     id="path1"
     style="stroke-width:0.711107" />
</svg>
