<?xml version="1.0" encoding="UTF-8" standalone="no"?>
<svg
   width="50pt"
   height="50pt"
   version="1.1"
   viewBox="-6.5 0 50 50"
   id="svg1106"
   sodipodi:docname="fan.svg"
   inkscape:version="1.3 (0e150ed6c4, 2023-07-21)"
   xmlns:inkscape="http://www.inkscape.org/namespaces/inkscape"
   xmlns:sodipodi="http://sodipodi.sourceforge.net/DTD/sodipodi-0.dtd"
   xmlns="http://www.w3.org/2000/svg"
   xmlns:svg="http://www.w3.org/2000/svg">
  <sodipodi:namedview
     id="namedview1108"
     pagecolor="#ffffff"
     bordercolor="#000000"
     borderopacity="0.25"
     inkscape:showpageshadow="2"
     inkscape:pageopacity="0.0"
     inkscape:pagecheckerboard="0"
     inkscape:deskcolor="#d1d1d1"
     inkscape:document-units="pt"
     showgrid="false"
     inkscape:zoom="15.298605"
     inkscape:cx="32.846132"
     inkscape:cy="34.610999"
     inkscape:window-width="2096"
     inkscape:window-height="1489"
     inkscape:window-x="0"
     inkscape:window-y="0"
     inkscape:window-maximized="1"
     inkscape:current-layer="svg1106" />
  <defs
     id="defs1062">
    <symbol
       id="e"
       overflow="visible">
      <path
         d="m 31.266,-1.875 c -1.6172,0.84375 -3.2969,1.4766 -5.0469,1.8906 -1.7422,0.42578 -3.5586,0.64062 -5.4531,0.64062 -5.668,0 -10.156,-1.582 -13.469,-4.75 -3.3125,-3.1641 -4.9688,-7.4609 -4.9688,-12.891 0,-5.4375 1.6562,-9.7383 4.9688,-12.906 3.3125,-3.1641 7.8008,-4.75 13.469,-4.75 1.8945,0 3.7109,0.21484 5.4531,0.64062 1.75,0.42969 3.4297,1.0586 5.0469,1.8906 v 7.0469 c -1.625,-1.1133 -3.2305,-1.9258 -4.8125,-2.4375 -1.5742,-0.51953 -3.2344,-0.78125 -4.9844,-0.78125 -3.1367,0 -5.6016,1.0078 -7.3906,3.0156 -1.793,2 -2.6875,4.7617 -2.6875,8.2812 0,3.5117 0.89453,6.2734 2.6875,8.2812 1.7891,2 4.2539,3 7.3906,3 1.75,0 3.4102,-0.25391 4.9844,-0.76562 1.582,-0.51953 3.1875,-1.332 4.8125,-2.4375 z"
         id="path1023" />
    </symbol>
    <symbol
       id="d"
       overflow="visible">
      <path
         d="m 22.875,-18.578 c -0.71094,-0.33203 -1.418,-0.57812 -2.125,-0.73438 -0.71094,-0.15625 -1.418,-0.23438 -2.125,-0.23438 -2.1055,0 -3.7266,0.67188 -4.8594,2.0156 -1.125,1.3438 -1.6875,3.2656 -1.6875,5.7656 V 4.4e-4 H 3.9219 v -25.531 h 8.1562 v 4.2031 c 1.0508,-1.6758 2.2539,-2.8945 3.6094,-3.6562 1.3633,-0.76953 2.9922,-1.1562 4.8906,-1.1562 0.26953,0 0.56641,0.01172 0.89062,0.03125 0.32031,0.02344 0.78516,0.07422 1.3906,0.15625 z"
         id="path1026" />
    </symbol>
    <symbol
       id="c"
       overflow="visible">
      <path
         d="m 29.391,-12.828 v 2.3281 H 10.329 c 0.19531,1.9062 0.88281,3.3398 2.0625,4.2969 1.1875,0.96094 2.8438,1.4375 4.9688,1.4375 1.7188,0 3.4766,-0.25391 5.2812,-0.76562 1.8008,-0.50781 3.6484,-1.2812 5.5469,-2.3125 v 6.2969 c -1.9297,0.73047 -3.8594,1.2773 -5.7969,1.6406 -1.9297,0.375 -3.8555,0.5625 -5.7812,0.5625 -4.6172,0 -8.2031,-1.1719 -10.766,-3.5156 -2.5629,-2.3437 -3.8438,-5.6328 -3.8438,-9.875 0,-4.1641 1.2539,-7.4414 3.7656,-9.8281 2.5195,-2.3828 5.9844,-3.5781 10.391,-3.5781 4.0078,0 7.2188,1.2109 9.625,3.625 2.4062,2.418 3.6094,5.6484 3.6094,9.6875 z m -8.375,-2.7188 c 0,-1.5391 -0.45312,-2.7852 -1.3594,-3.7344 -0.90625,-0.95703 -2.0898,-1.4375 -3.5469,-1.4375 -1.5859,0 -2.8711,0.44922 -3.8594,1.3438 -0.98047,0.88672 -1.5898,2.1641 -1.8281,3.8281 z"
         id="path1029" />
    </symbol>
    <symbol
       id="b"
       overflow="visible">
      <path
         d="m 15.359,-11.484 c -1.6992,0 -2.9805,0.29297 -3.8438,0.875 -0.85547,0.57422 -1.2812,1.4219 -1.2812,2.5469 0,1.0312 0.34375,1.8398 1.0312,2.4219 0.69531,0.58594 1.6602,0.875 2.8906,0.875 1.5312,0 2.8164,-0.54688 3.8594,-1.6406 1.0508,-1.1016 1.5781,-2.4844 1.5781,-4.1406 v -0.9375 z m 12.469,-3.0781 V -1e-4 h -8.2344 v -3.7812 c -1.0938,1.5547 -2.3242,2.6836 -3.6875,3.3906 -1.3672,0.69531 -3.0273,1.0469 -4.9844,1.0469 -2.6484,0 -4.7969,-0.76953 -6.4531,-2.3125 -1.6484,-1.5391 -2.4688,-3.5391 -2.4688,-6 0,-2.9883 1.0312,-5.1797 3.0938,-6.5781 2.0625,-1.4062 5.2969,-2.1094 9.7031,-2.1094 h 4.7969 v -0.64062 c 0,-1.2891 -0.51172,-2.2344 -1.5312,-2.8281 -1.0117,-0.60156 -2.5938,-0.90625 -4.75,-0.90625 -1.75,0 -3.3828,0.17969 -4.8906,0.53125 -1.5,0.34375 -2.8984,0.86719 -4.1875,1.5625 v -6.2188 c 1.75,-0.42578 3.5039,-0.75 5.2656,-0.96875 1.7578,-0.21875 3.5234,-0.32812 5.2969,-0.32812 4.5938,0 7.9102,0.91406 9.9531,2.7344 2.0508,1.8125 3.0781,4.7617 3.0781,8.8438 z"
         id="path1032" />
    </symbol>
    <symbol
       id="a"
       overflow="visible">
      <path
         d="m 12.828,-32.766 v 7.2344 h 8.4062 v 5.8438 H 12.828 v 10.828 c 0,1.1797 0.23438,1.9805 0.70312,2.4062 0.47656,0.41797 1.4141,0.625 2.8125,0.625 h 4.1875 V -5e-4 h -7 c -3.2188,0 -5.5,-0.67188 -6.8438,-2.0156 -1.3438,-1.34372 -2.0156,-3.625 -2.0156,-6.8438 v -10.828 h -4.0625 v -5.8438 h 4.0625 v -7.2344 z"
         id="path1035" />
    </symbol>
    <symbol
       id="i"
       overflow="visible">
      <path
         d="m 21.281,-21.781 v -13.672 h 8.2031 V 0 H 21.281 v -3.6875 c -1.125,1.5 -2.3672,2.6016 -3.7188,3.2969 -1.3438,0.69531 -2.9062,1.0469 -4.6875,1.0469 -3.1484,0 -5.7305,-1.25 -7.75,-3.75 -2.0234,-2.5 -3.0312,-5.7109 -3.0312,-9.6406 0,-3.9375 1.0078,-7.1562 3.0312,-9.6562 2.0195,-2.5 4.6016,-3.75 7.75,-3.75 1.7578,0 3.3164,0.35547 4.6719,1.0625 1.3633,0.71094 2.6094,1.8086 3.7344,3.2969 z m -5.375,16.516 c 1.75,0 3.082,-0.63281 4,-1.9062 0.91406,-1.2812 1.375,-3.1328 1.375,-5.5625 0,-2.4375 -0.46094,-4.2891 -1.375,-5.5625 -0.91797,-1.2812 -2.25,-1.9219 -4,-1.9219 -1.7305,0 -3.0586,0.64062 -3.9844,1.9219 -0.91797,1.2734 -1.375,3.125 -1.375,5.5625 0,2.4297 0.45703,4.2812 1.375,5.5625 0.92578,1.2734 2.2539,1.9062 3.9844,1.9062 z"
         id="path1038" />
    </symbol>
    <symbol
       id="h"
       overflow="visible">
      <path
         d="m 17.5,-5.2656 c 1.75,0 3.082,-0.63281 4,-1.9062 0.91406,-1.2812 1.375,-3.1328 1.375,-5.5625 0,-2.4375 -0.46094,-4.2891 -1.375,-5.5625 -0.91797,-1.2812 -2.25,-1.9219 -4,-1.9219 -1.75,0 -3.0938,0.64844 -4.0312,1.9375 -0.92969,1.2812 -1.3906,3.1328 -1.3906,5.5469 0,2.418 0.46094,4.2656 1.3906,5.5469 0.9375,1.2812 2.2812,1.9219 4.0312,1.9219 z m -5.4219,-16.516 c 1.125,-1.4883 2.3672,-2.5859 3.7344,-3.2969 1.3633,-0.70703 2.9375,-1.0625 4.7188,-1.0625 3.1445,0 5.7266,1.25 7.75,3.75 2.0195,2.5 3.0312,5.7188 3.0312,9.6562 0,3.9297 -1.0117,7.1406 -3.0312,9.6406 -2.0234,2.5 -4.6055,3.75 -7.75,3.75 -1.7812,0 -3.3555,-0.35156 -4.7188,-1.0469 -1.3672,-0.70703 -2.6094,-1.8047 -3.7344,-3.2969 V -5e-4 H 3.9219 v -35.453 h 8.1562 z"
         id="path1041" />
    </symbol>
    <symbol
       id="g"
       overflow="visible">
      <path
         d="m 0.5625,-25.531 h 8.1719 l 6.8594,17.328 5.8281,-17.328 h 8.1562 L 18.8441,2.422 C 17.7699,5.254 16.516,7.2384 15.0785,8.3751 13.641,9.5079 11.7426,10.0782 9.391,10.0782 H 4.6722 V 4.7188 h 2.5469 c 1.3828,0 2.3906,-0.22656 3.0156,-0.67188 0.63281,-0.4375 1.1289,-1.2266 1.4844,-2.3594 L 11.93785,0.9844 Z"
         id="path1044" />
    </symbol>
    <symbol
       id="f"
       overflow="visible">
      <path
         d="m 4.2812,-34.031 h 8.7812 V 0 H 4.2812 Z"
         id="path1047" />
    </symbol>
    <symbol
       id="m"
       overflow="visible">
      <path
         d="m 24.547,-24.719 v 6.6406 c -1.1172,-0.75781 -2.2305,-1.3203 -3.3438,-1.6875 -1.1172,-0.36328 -2.2734,-0.54688 -3.4688,-0.54688 -2.2812,0 -4.0586,0.66797 -5.3281,2 -1.2734,1.3359 -1.9062,3.1953 -1.9062,5.5781 0,2.3867 0.63281,4.2461 1.9062,5.5781 1.2695,1.3242 3.0469,1.9844 5.3281,1.9844 1.2695,0 2.4766,-0.1875 3.625,-0.5625 1.1445,-0.38281 2.207,-0.94531 3.1875,-1.6875 v 6.6719 C 23.2657,-0.28153 21.9688,0.06613 20.6563,0.29662 19.3438,0.5349 18.0235,0.656 16.7032,0.656 c -4.6055,0 -8.2109,-1.1758 -10.812,-3.5312 -2.5938,-2.3633 -3.8906,-5.6484 -3.8906,-9.8594 0,-4.207 1.2969,-7.4922 3.8906,-9.8594 2.6016,-2.3633 6.207,-3.5469 10.812,-3.5469 1.332,0 2.6484,0.12109 3.9531,0.35938 1.3008,0.23047 2.5977,0.58594 3.8906,1.0625 z"
         id="path1050" />
    </symbol>
    <symbol
       id="l"
       overflow="visible">
      <path
         d="m 16.062,-20.312 c -1.8047,0 -3.1836,0.65234 -4.1406,1.9531 -0.94922,1.3047 -1.4219,3.1797 -1.4219,5.625 0,2.4492 0.47266,4.3242 1.4219,5.625 0.95703,1.293 2.3359,1.9375 4.1406,1.9375 1.7812,0 3.1406,-0.64453 4.0781,-1.9375 0.94531,-1.3008 1.4219,-3.1758 1.4219,-5.625 0,-2.4453 -0.47656,-4.3203 -1.4219,-5.625 -0.9375,-1.3008 -2.2969,-1.9531 -4.0781,-1.9531 z m 0,-5.8281 c 4.3945,0 7.8281,1.1875 10.297,3.5625 2.4688,2.3672 3.7031,5.6484 3.7031,9.8438 0,4.1875 -1.2344,7.4688 -3.7031,9.8438 -2.4688,2.3672 -5.9023,3.5469 -10.297,3.5469 -4.4062,0 -7.8555,-1.1797 -10.344,-3.5469 -2.4805,-2.375 -3.7188,-5.6562 -3.7188,-9.8438 0,-4.1953 1.2383,-7.4766 3.7188,-9.8438 2.4883,-2.375 5.9375,-3.5625 10.344,-3.5625 z"
         id="path1053" />
    </symbol>
    <symbol
       id="k"
       overflow="visible">
      <path
         d="M 29.578,-15.547 V 0 h -8.2031 v -11.891 c 0,-2.207 -0.05469,-3.7266 -0.15625,-4.5625 -0.09375,-0.83203 -0.26172,-1.4453 -0.5,-1.8438 -0.32422,-0.53125 -0.76172,-0.94141 -1.3125,-1.2344 -0.54297,-0.30078 -1.1641,-0.45312 -1.8594,-0.45312 -1.6992,0 -3.0391,0.65625 -4.0156,1.9688 -0.96875,1.3125 -1.4531,3.1328 -1.4531,5.4531 v 12.562 h -8.1562 v -25.531 h 8.1562 v 3.75 c 1.2266,-1.4883 2.5352,-2.5859 3.9219,-3.2969 1.3828,-0.70703 2.9102,-1.0625 4.5781,-1.0625 2.9453,0 5.1797,0.90625 6.7031,2.7188 1.5312,1.8047 2.2969,4.4297 2.2969,7.875 z"
         id="path1056" />
    </symbol>
    <symbol
       id="j"
       overflow="visible">
      <path
         d="m 23.859,-24.719 v 6.1875 c -1.75,-0.72656 -3.4375,-1.2734 -5.0625,-1.6406 -1.625,-0.36328 -3.1562,-0.54688 -4.5938,-0.54688 -1.5547,0 -2.7109,0.19922 -3.4688,0.59375 -0.75,0.38672 -1.125,0.98047 -1.125,1.7812 0,0.65625 0.28516,1.1641 0.85938,1.5156 0.57031,0.34375 1.5938,0.60156 3.0625,0.76562 l 1.4375,0.20312 c 4.1758,0.53125 6.9844,1.4062 8.4219,2.625 1.4453,1.2109 2.1719,3.1172 2.1719,5.7188 0,2.7188 -1.0078,4.7617 -3.0156,6.125 -2,1.3672 -4.9922,2.0469 -8.9688,2.0469 -1.6875,0 -3.4336,-0.13672 -5.2344,-0.40625 -1.793,-0.25781 -3.6406,-0.65625 -5.5469,-1.1875 v -6.2031 c 1.625,0.79297 3.2891,1.3867 5,1.7812 1.7188,0.39844 3.457,0.59375 5.2188,0.59375 1.5938,0 2.7891,-0.21875 3.5938,-0.65625 0.8125,-0.4375 1.2188,-1.0938 1.2188,-1.9688 0,-0.72656 -0.28125,-1.2695 -0.84375,-1.625 -0.55469,-0.35156 -1.6562,-0.62891 -3.3125,-0.82812 l -1.4375,-0.1875 c -3.625,-0.44531 -6.168,-1.2852 -7.625,-2.5156 -1.4609,-1.2383 -2.1875,-3.1094 -2.1875,-5.6094 0,-2.707 0.92188,-4.7109 2.7656,-6.0156 1.8516,-1.3125 4.6953,-1.9688 8.5312,-1.9688 1.5,0 3.0781,0.11719 4.7344,0.34375 1.6562,0.23047 3.457,0.58984 5.4062,1.0781 z"
         id="path1059" />
    </symbol>
  </defs>
  <path
     id="path5"
     class="active"
     style="fill:#00ffff;stroke-width:0.0653654"
     d="m 24.719242,21.895634 c -1.829996,0.105049 -3.297351,2.155209 -2.721602,3.921543 0.406186,1.46713 1.959783,2.57302 3.490612,2.267588 1.789821,-0.199715 3.072117,-2.202351 2.534498,-3.917171 -0.360945,-1.362213 -1.724246,-2.412201 -3.151201,-2.273364 -0.05078,-7.01e-4 -0.101541,5.52e-4 -0.152307,0.0014 z m 1.842361,8.077738 c -0.685246,0.131175 -1.383469,0.201711 -2.077263,0.20557 -0.454856,0.156662 -0.49715,0.756454 -0.766772,1.113101 -1.658007,2.929816 -4.111541,5.306034 -6.676594,7.450767 -0.393682,0.308546 -0.347395,0.9205 0.05796,1.196365 1.686037,1.445732 3.947835,2.109003 6.142819,2.131016 1.503816,-0.06479 3.087764,-0.338713 4.336716,-1.229815 0.654848,-0.531065 1.006281,-1.385808 0.925567,-2.224976 0.05366,-2.024711 -0.09672,-4.069946 -0.701436,-6.013166 C 27.549781,31.772962 27.305294,30.930941 26.931709,30.147765 26.82,30.060513 26.717026,29.950253 26.561603,29.973372 Z m 11.110081,-8.506443 c -2.551746,0.06317 -5.117466,0.565536 -7.45434,1.605028 -0.451935,0.357068 -0.03195,0.959381 -0.06,1.422464 0.0935,0.500254 -0.163654,1.26063 0.486457,1.451883 3.210543,1.635874 5.808509,4.250154 8.095438,7.007451 0.330271,0.428094 0.981493,0.339018 1.261731,-0.09575 1.131793,-1.361282 1.792486,-3.090569 2.001306,-4.839085 0.07171,-1.4748 0.09764,-3.006099 -0.499049,-4.390081 -0.305967,-1.04852 -1.170706,-1.981874 -2.297238,-2.094247 -0.507738,-0.07199 -1.022653,-0.07012 -1.534301,-0.06766 z M 26.656076,7.9518586 c -1.508084,0.044633 -3.101942,0.3508102 -4.319098,1.2932654 -0.941124,0.824812 -0.86817,2.199294 -0.85056,3.336898 0.05919,2.494158 0.621373,4.976647 1.616817,7.259707 0.385626,0.424158 0.962724,-0.02461 1.434976,0.02107 0.476097,-0.08657 1.198576,0.194506 1.399688,-0.410892 1.500886,-3.093842 3.979267,-5.575517 6.577065,-7.778045 0.289426,-0.322725 0.878497,-0.536368 0.848985,-1.038825 C 33.16176,10.076447 32.553746,9.8014632 32.113722,9.4496828 30.507043,8.4040049 28.562109,7.9292424 26.656076,7.9518586 Z M 10.656354,16.760362 c -0.585465,0.07505 -0.8489687,0.712388 -1.1805073,1.124636 -1.613341,2.522765 -1.9841338,5.837644 -0.8944628,8.635368 0.3072868,0.98324 1.1391494,1.781686 2.1665071,1.956368 2.988157,0.245479 6.017455,-0.308045 8.793949,-1.417613 0.374104,-0.09611 0.61679,-0.478077 0.451774,-0.848382 -0.185177,-0.616234 -0.08422,-1.275751 -0.209547,-1.890056 -0.341343,-0.353659 -0.906601,-0.475906 -1.30416,-0.763592 -2.798509,-1.600524 -5.058851,-4.009535 -7.158537,-6.45522 -0.176585,-0.179542 -0.399652,-0.351695 -0.665016,-0.341509 z"
     transform="scale(0.75)" />
  <path
     id="path1066"
     d="m 15.593358,37.208456 c -0.16654,3.114488 -1.08337,4.853986 -2.57309,6.541586 H 9.3852481 c -0.3958597,0 -0.7603197,0.218849 -0.9272897,0.572858 l -2.08347,4.16649 c -0.15607,0.32304 -0.14605,0.70844 0.0418,1.01056 C 6.6037584,49.81253 6.9372684,50 7.3017284,50 H 30.217868 c 0.36446,0 0.69798,-0.18747 0.88544,-0.48958 0.18747,-0.30212 0.20839,-0.68752 0.0419,-1.01057 l -2.08347,-4.16649 c -0.16654,-0.364458 -0.531,-0.583318 -0.92686,-0.583318 h -3.63547 c -1.48972,-1.6876 -2.40612,-3.427098 -2.57308,-6.541586 8.83342,-1.510592 15.5836,-9.197929 15.5836,-18.458582 C 37.509938,8.406194 29.103748,0 18.760058,0 8.4163784,0 0.01018836,8.406194 0.01018836,18.749874 c 0,9.260318 6.74995004,16.947432 15.58247964,18.458582 z M 28.530768,47.91653 H 8.9896084 l 1.0415096,-2.08347 h 17.45858 z m -6.68768,-4.166488 h -6.1667 c 1.10429,-1.604342 1.82276,-3.531338 1.98972,-6.301855 0.36446,0.02049 0.72937,0.05188 1.09383,0.05188 0.36446,0 0.72937,-0.03139 1.09383,-0.05188 0.16654,2.770517 0.88544,4.697513 1.98928,6.301855 z M 18.759958,2.084026 c 9.18744,0 16.66619,7.478968 16.66619,16.666183 0,9.187216 -7.47897,16.666183 -16.66619,16.666183 -9.1872099,0 -16.6661796,-7.478967 -16.6661796,-16.666183 0,-9.187215 7.4789697,-16.666183 16.6661796,-16.666183 z M 5.0733384,21.249858 c 0.59378,1.114758 1.73949,1.833246 3.05221,1.926996 0.32304,0.02093 0.65612,0.03139 0.9896297,0.03139 2.2604799,0 4.6456199,-0.520979 6.7604499,-1.46874 0.16654,0.166539 0.34354,0.312587 0.54147,0.447731 -0.88544,1.771305 -2.57309,3.68781 -4.94773,5.58378 -0.47913,0.385388 -0.77078,0.958241 -0.80218,1.57298 -0.0314,0.635197 0.2084,1.260371 0.6666,1.708583 1.52063,1.489722 3.82296,2.291837 6.08344,2.291837 1.36461,0 2.70824,-0.291661 3.85432,-0.906367 1.11476,-0.593779 1.83325,-1.739497 1.927,-3.052211 0.177,-2.541613 -0.34354,-5.312688 -1.43738,-7.75006 0.16654,-0.166539 0.31259,-0.343536 0.44773,-0.54147 1.77086,0.874972 3.68737,2.562595 5.58334,4.947735 0.38538,0.479126 0.95824,0.770776 1.57298,0.802171 h 0.11465 c 0.59378,0 1.16662,-0.239775 1.59385,-0.666592 2.39563,-2.437483 3.02074,-6.895601 1.39597,-9.937321 -0.59378,-1.114759 -1.73949,-1.833247 -3.05221,-1.926996 -2.54161,-0.176997 -5.32262,0.343535 -7.75006,1.437378 -0.16654,-0.166539 -0.34353,-0.312587 -0.54147,-0.447731 0.87497,-1.770859 2.5626,-3.687364 4.94774,-5.583333 0.47912,-0.385388 0.77077,-0.958242 0.80217,-1.572981 0.0314,-0.635196 -0.20839,-1.260371 -0.66659,-1.708582 -2.43749,-2.395631 -6.8956,-3.020739 -9.93733,-1.395973 -1.11475,0.59378 -1.83324,1.739497 -1.92699,3.052212 -0.177,2.541612 0.34353,5.312688 1.43738,7.75006 -0.16654,0.166539 -0.31259,0.343535 -0.44773,0.541469 -1.78225,-0.864949 -3.69875,-2.55255 -5.5947199,-4.927199 -0.38539,-0.479126 -0.9582397,-0.770776 -1.5729797,-0.802171 -0.6352,-0.03139 -1.26037,0.208392 -1.70858,0.666592 -2.38514,2.426992 -3.00992,6.885556 -1.38504,9.92683 z M 18.760748,16.666629 c 1.14575,0 2.08346,0.937316 2.08346,2.083469 0,1.145751 -0.93731,2.083468 -2.08346,2.083468 -1.14576,0 -2.08347,-0.937315 -2.08347,-2.083468 0,-1.145752 0.93775,-2.083469 2.08347,-2.083469 z m 2.35422,12.573577 c -0.0419,0.583322 -0.354,1.104289 -0.83312,1.364611 -2.26047,1.208474 -5.68757,0.72937 -7.48935,-1.041511 -0.0418,-0.04185 -0.0519,-0.09373 -0.0209,-0.166539 2.75009,-2.197641 4.63557,-4.38535 5.62474,-6.520715 0.11465,0.01002 0.23934,0.04098 0.36446,0.04098 0.41678,0 0.81263,-0.08327 1.19798,-0.197923 0.88544,2.062486 1.30178,4.395841 1.15613,6.521162 z m 8.13555,-12.843664 c 0.58332,0.04185 1.10429,0.354004 1.36461,0.833119 1.20847,2.260476 0.72937,5.687574 -1.04151,7.489348 -0.0419,0.04185 -0.0937,0.05188 -0.16654,0.02093 -2.19764,-2.750093 -4.38535,-4.635572 -6.52072,-5.624739 0.01,-0.114654 0.041,-0.23934 0.041,-0.364462 0,-0.416783 -0.0833,-0.812629 -0.19793,-1.197983 2.07298,-0.885441 4.39584,-1.301777 6.52116,-1.156131 z M 16.406848,8.260994 c 0.0419,-0.583322 0.35401,-1.10429 0.83312,-1.364612 2.26048,-1.208474 5.68758,-0.72937 7.48935,1.041511 0.0419,0.04185 0.0519,0.09373 0.0209,0.166539 -2.7501,2.197642 -4.63557,4.38535 -5.62474,6.520716 -0.11465,-0.01002 -0.23934,-0.04098 -0.36446,-0.04098 -0.41679,0 -0.81263,0.08327 -1.19799,0.197923 -0.88544,-2.062487 -1.30177,-4.395841 -1.15613,-6.521162 z m -8.4580896,4.520952 c 0.0419,-0.04185 0.0937,-0.05188 0.16654,-0.02093 2.1976396,2.750094 4.3853496,4.635572 6.5207196,5.62474 -0.0105,0.115088 -0.0414,0.239775 -0.0414,0.364897 0,0.416783 0.0833,0.812628 0.19793,1.197983 -2.06249,0.88544 -4.39585,1.302223 -6.5207196,1.15613 -0.58332,-0.04185 -1.10429,-0.354004 -1.36461,-0.833119 -1.20848,-2.260476 -0.72937,-5.687574 1.04151,-7.489794 z"
     style="stroke-width:0.111606" />
</svg>
