<svg width="350" height="130" viewBox="0 0 350 130" fill="none" xmlns="http://www.w3.org/2000/svg">
<path d="M66.4727 89.79H53.1999V70.8136H44.6132V89.79H31V40.8399H44.587V59.1076H53.1737V40.8399H66.4466V89.79H66.4727ZM127.313 90C140.9 90 152 78.6614 152 64.8556C152 50.8399 140.9 40 127.313 40C113.543 40 106.579 50.0262 104.904 54.1207C104.904 48.0577 98.8563 40.8136 91.8403 40.8136H69.1692V89.79H90.2696C98.8563 89.79 104.904 82.4409 104.904 75.9843C106.815 79.9738 113.569 90 127.313 90ZM88.5941 70.105C90.5576 70.105 92.1283 72.021 92.1283 74.1995C92.1283 76.4829 90.5576 78.3989 88.5941 78.3989H81.8399V70.105H88.5941ZM88.5941 51.7323C90.5576 51.7323 92.1283 53.6483 92.1283 55.8268C92.1283 58.0052 90.5576 59.9213 88.5941 59.9213H81.8399V51.7323H88.5941ZM97.5212 64.8556C99.0919 64.7507 101.657 62.9396 102.626 61.8635C102.26 63.1759 102.26 67.3228 102.626 68.6352C101.553 67.0341 99.0919 65.1444 97.5212 64.8556ZM114.93 64.8556C114.93 57.9528 120.533 52.3884 127.418 52.4146C134.329 52.4672 139.827 58.1102 139.748 65.0394C139.643 71.8635 134.146 77.3491 127.339 77.3491C120.48 77.3491 114.93 71.7848 114.93 64.8556ZM127.313 74.6719C132.601 74.6719 137.052 70.315 137.052 64.8556C137.052 59.3963 132.601 55.0919 127.313 55.0919C121.868 55.0919 117.522 59.3963 117.522 64.8556C117.522 70.315 121.868 74.6719 127.313 74.6719Z" fill="black"/>
<path d="M223.062 58.1794C222.8 46.3221 214.431 40.0525 204.18 40.0525C198.557 40.0525 193.483 41.9412 190.031 45.6139C186.579 41.9412 181.505 40.0525 175.882 40.0525C165.63 40.0525 157.262 46.3484 157 58.2057C157 58.2319 157 58.2581 157 58.2844V85.3305C157 87.8227 159.014 89.8164 161.472 89.8164H165.709C166.127 89.8164 166.467 89.4753 166.467 89.0556V58.2581C166.65 52.4082 170.782 49.3127 175.882 49.3127C180.982 49.3127 185.114 52.4082 185.297 58.2581V85.3043C185.297 87.7964 187.311 89.7901 189.769 89.7901H194.006C194.425 89.7901 194.765 89.4491 194.765 89.0294V58.2319C194.948 52.382 199.08 49.2865 204.18 49.2865C209.279 49.2865 213.411 52.382 213.595 58.2319V85.2781C213.595 87.7702 215.608 89.7639 218.067 89.7639H222.303C222.722 89.7639 223.062 89.4229 223.062 89.0031V58.2057C223.088 58.2319 223.062 58.2057 223.062 58.1794ZM318.441 40.8132H311.249C309.261 40.8132 307.404 41.8101 306.28 43.4627L298.329 55.2676C297.283 56.8153 295.034 56.8153 293.988 55.2676L286.038 43.4627C284.939 41.8101 283.056 40.8132 281.069 40.8132H273.877C273.432 40.8132 273.171 41.3116 273.406 41.6789L287.581 62.7702C288.601 64.2917 288.601 66.2854 287.581 67.8069L273.406 88.8982C273.144 89.2655 273.432 89.7639 273.877 89.7639H281.069C283.056 89.7639 284.913 88.7671 286.038 87.1144L293.988 75.3095C295.034 73.7618 297.283 73.7618 298.329 75.3095L306.28 87.1144C307.378 88.7671 309.261 89.7639 311.249 89.7639H318.441C318.885 89.7639 319.147 89.2655 318.912 88.8982L304.711 67.8332C303.691 66.3116 303.691 64.3179 304.711 62.7964L318.885 41.7051C319.147 41.3379 318.885 40.8132 318.441 40.8132ZM270.163 40.8132H265.926C263.782 40.8132 261.977 42.3347 261.533 44.3547C257.767 41.469 253.033 40 247.933 40C235.537 40 225.468 48.6569 225.468 65C225.468 81.3431 235.511 90 247.933 90C253.007 90 257.688 88.5572 261.454 85.724C261.663 88.0063 263.572 89.8164 265.926 89.8164H270.163C270.581 89.8164 270.921 89.4753 270.921 89.0556V41.574C270.895 41.1542 270.581 40.8132 270.163 40.8132ZM247.933 80.7135C240.532 80.7135 234.517 75.2833 234.517 65.0262C234.517 54.7692 240.532 49.3389 247.933 49.3389C255.334 49.3389 261.349 54.7692 261.349 65.0262C261.349 75.2833 255.334 80.7135 247.933 80.7135Z" fill="url(#paint0_linear_104_45)"/>
<mask id="mask0_104_45" style="mask-type:alpha" maskUnits="userSpaceOnUse" x="157" y="40" width="162" height="50">
<path d="M223.062 58.1794C222.8 46.3221 214.431 40.0525 204.18 40.0525C198.557 40.0525 193.483 41.9412 190.031 45.6139C186.579 41.9412 181.505 40.0525 175.882 40.0525C165.63 40.0525 157.262 46.3484 157 58.2057C157 58.2319 157 58.2581 157 58.2844V85.3305C157 87.8227 159.014 89.8164 161.472 89.8164H165.709C166.127 89.8164 166.467 89.4753 166.467 89.0556V58.2581C166.65 52.4082 170.782 49.3127 175.882 49.3127C180.982 49.3127 185.114 52.4082 185.297 58.2581V85.3043C185.297 87.7964 187.311 89.7901 189.769 89.7901H194.006C194.425 89.7901 194.765 89.4491 194.765 89.0294V58.2319C194.948 52.382 199.08 49.2865 204.18 49.2865C209.279 49.2865 213.411 52.382 213.595 58.2319V85.2781C213.595 87.7702 215.608 89.7639 218.067 89.7639H222.303C222.722 89.7639 223.062 89.4229 223.062 89.0031V58.2057C223.088 58.2319 223.062 58.2057 223.062 58.1794ZM318.441 40.8132H311.249C309.261 40.8132 307.404 41.8101 306.28 43.4627L298.329 55.2676C297.283 56.8153 295.034 56.8153 293.988 55.2676L286.038 43.4627C284.939 41.8101 283.056 40.8132 281.069 40.8132H273.877C273.432 40.8132 273.171 41.3116 273.406 41.6789L287.581 62.7702C288.601 64.2917 288.601 66.2854 287.581 67.8069L273.406 88.8982C273.144 89.2655 273.432 89.7639 273.877 89.7639H281.069C283.056 89.7639 284.913 88.7671 286.038 87.1144L293.988 75.3095C295.034 73.7618 297.283 73.7618 298.329 75.3095L306.28 87.1144C307.378 88.7671 309.261 89.7639 311.249 89.7639H318.441C318.885 89.7639 319.147 89.2655 318.912 88.8982L304.711 67.8332C303.691 66.3116 303.691 64.3179 304.711 62.7964L318.885 41.7051C319.147 41.3379 318.885 40.8132 318.441 40.8132ZM270.163 40.8132H265.926C263.782 40.8132 261.977 42.3347 261.533 44.3547C257.767 41.469 253.033 40 247.933 40C235.537 40 225.468 48.6569 225.468 65C225.468 81.3431 235.511 90 247.933 90C253.007 90 257.688 88.5572 261.454 85.724C261.663 88.0063 263.572 89.8164 265.926 89.8164H270.163C270.581 89.8164 270.921 89.4753 270.921 89.0556V41.574C270.895 41.1542 270.581 40.8132 270.163 40.8132ZM247.933 80.7135C240.532 80.7135 234.517 75.2833 234.517 65.0262C234.517 54.7692 240.532 49.3389 247.933 49.3389C255.334 49.3389 261.349 54.7692 261.349 65.0262C261.349 75.2833 255.334 80.7135 247.933 80.7135Z" fill="white"/>
</mask>
<g mask="url(#mask0_104_45)">
<path d="M195.994 93.593C211.969 93.593 224.919 76.6806 224.919 55.818C224.919 34.9554 211.969 18.043 195.994 18.043C180.019 18.043 167.069 34.9554 167.069 55.818C167.069 76.6806 180.019 93.593 195.994 93.593Z" fill="url(#paint1_radial_104_45)"/>
</g>
<mask id="mask1_104_45" style="mask-type:alpha" maskUnits="userSpaceOnUse" x="157" y="40" width="162" height="50">
<path d="M223.062 58.1794C222.8 46.3221 214.431 40.0525 204.18 40.0525C198.557 40.0525 193.483 41.9412 190.031 45.6139C186.579 41.9412 181.505 40.0525 175.882 40.0525C165.63 40.0525 157.262 46.3484 157 58.2057C157 58.2319 157 58.2581 157 58.2844V85.3305C157 87.8227 159.014 89.8164 161.472 89.8164H165.709C166.127 89.8164 166.467 89.4753 166.467 89.0556V58.2581C166.65 52.4082 170.782 49.3127 175.882 49.3127C180.982 49.3127 185.114 52.4082 185.297 58.2581V85.3043C185.297 87.7964 187.311 89.7901 189.769 89.7901H194.006C194.425 89.7901 194.765 89.4491 194.765 89.0294V58.2319C194.948 52.382 199.08 49.2865 204.18 49.2865C209.279 49.2865 213.411 52.382 213.595 58.2319V85.2781C213.595 87.7702 215.608 89.7639 218.067 89.7639H222.303C222.722 89.7639 223.062 89.4229 223.062 89.0031V58.2057C223.088 58.2319 223.062 58.2057 223.062 58.1794ZM318.441 40.8132H311.249C309.261 40.8132 307.404 41.8101 306.28 43.4627L298.329 55.2676C297.283 56.8153 295.034 56.8153 293.988 55.2676L286.038 43.4627C284.939 41.8101 283.056 40.8132 281.069 40.8132H273.877C273.432 40.8132 273.171 41.3116 273.406 41.6789L287.581 62.7702C288.601 64.2917 288.601 66.2854 287.581 67.8069L273.406 88.8982C273.144 89.2655 273.432 89.7639 273.877 89.7639H281.069C283.056 89.7639 284.913 88.7671 286.038 87.1144L293.988 75.3095C295.034 73.7618 297.283 73.7618 298.329 75.3095L306.28 87.1144C307.378 88.7671 309.261 89.7639 311.249 89.7639H318.441C318.885 89.7639 319.147 89.2655 318.912 88.8982L304.711 67.8332C303.691 66.3116 303.691 64.3179 304.711 62.7964L318.885 41.7051C319.147 41.3379 318.885 40.8132 318.441 40.8132ZM270.163 40.8132H265.926C263.782 40.8132 261.977 42.3347 261.533 44.3547C257.767 41.469 253.033 40 247.933 40C235.537 40 225.468 48.6569 225.468 65C225.468 81.3431 235.511 90 247.933 90C253.007 90 257.688 88.5572 261.454 85.724C261.663 88.0063 263.572 89.8164 265.926 89.8164H270.163C270.581 89.8164 270.921 89.4753 270.921 89.0556V41.574C270.895 41.1542 270.581 40.8132 270.163 40.8132ZM247.933 80.7135C240.532 80.7135 234.517 75.2833 234.517 65.0262C234.517 54.7692 240.532 49.3389 247.933 49.3389C255.334 49.3389 261.349 54.7692 261.349 65.0262C261.349 75.2833 255.334 80.7135 247.933 80.7135Z" fill="white"/>
</mask>
<g mask="url(#mask1_104_45)">
<path d="M224.814 129.559C257.688 129.559 284.338 110.638 284.338 87.298C284.338 63.9579 257.688 45.037 224.814 45.037C191.94 45.037 165.29 63.9579 165.29 87.298C165.29 110.638 191.94 129.559 224.814 129.559Z" fill="url(#paint2_radial_104_45)"/>
</g>
<mask id="mask2_104_45" style="mask-type:alpha" maskUnits="userSpaceOnUse" x="157" y="40" width="162" height="50">
<path d="M223.062 58.1794C222.8 46.3221 214.431 40.0525 204.18 40.0525C198.557 40.0525 193.483 41.9412 190.031 45.6139C186.579 41.9412 181.505 40.0525 175.882 40.0525C165.63 40.0525 157.262 46.3484 157 58.2057C157 58.2319 157 58.2581 157 58.2844V85.3305C157 87.8227 159.014 89.8164 161.472 89.8164H165.709C166.127 89.8164 166.467 89.4753 166.467 89.0556V58.2581C166.65 52.4082 170.782 49.3127 175.882 49.3127C180.982 49.3127 185.114 52.4082 185.297 58.2581V85.3043C185.297 87.7964 187.311 89.7901 189.769 89.7901H194.006C194.425 89.7901 194.765 89.4491 194.765 89.0294V58.2319C194.948 52.382 199.08 49.2865 204.18 49.2865C209.279 49.2865 213.411 52.382 213.595 58.2319V85.2781C213.595 87.7702 215.608 89.7639 218.067 89.7639H222.303C222.722 89.7639 223.062 89.4229 223.062 89.0031V58.2057C223.088 58.2319 223.062 58.2057 223.062 58.1794ZM318.441 40.8132H311.249C309.261 40.8132 307.404 41.8101 306.28 43.4627L298.329 55.2676C297.283 56.8153 295.034 56.8153 293.988 55.2676L286.038 43.4627C284.939 41.8101 283.056 40.8132 281.069 40.8132H273.877C273.432 40.8132 273.171 41.3116 273.406 41.6789L287.581 62.7702C288.601 64.2917 288.601 66.2854 287.581 67.8069L273.406 88.8982C273.144 89.2655 273.432 89.7639 273.877 89.7639H281.069C283.056 89.7639 284.913 88.7671 286.038 87.1144L293.988 75.3095C295.034 73.7618 297.283 73.7618 298.329 75.3095L306.28 87.1144C307.378 88.7671 309.261 89.7639 311.249 89.7639H318.441C318.885 89.7639 319.147 89.2655 318.912 88.8982L304.711 67.8332C303.691 66.3116 303.691 64.3179 304.711 62.7964L318.885 41.7051C319.147 41.3379 318.885 40.8132 318.441 40.8132ZM270.163 40.8132H265.926C263.782 40.8132 261.977 42.3347 261.533 44.3547C257.767 41.469 253.033 40 247.933 40C235.537 40 225.468 48.6569 225.468 65C225.468 81.3431 235.511 90 247.933 90C253.007 90 257.688 88.5572 261.454 85.724C261.663 88.0063 263.572 89.8164 265.926 89.8164H270.163C270.581 89.8164 270.921 89.4753 270.921 89.0556V41.574C270.895 41.1542 270.581 40.8132 270.163 40.8132ZM247.933 80.7135C240.532 80.7135 234.517 75.2833 234.517 65.0262C234.517 54.7692 240.532 49.3389 247.933 49.3389C255.334 49.3389 261.349 54.7692 261.349 65.0262C261.349 75.2833 255.334 80.7135 247.933 80.7135Z" fill="white"/>
</mask>
<g mask="url(#mask2_104_45)">
<path d="M261.349 75.335C279.23 75.335 293.726 60.795 293.726 42.859C293.726 24.923 279.23 10.383 261.349 10.383C243.468 10.383 228.972 24.923 228.972 42.859C228.972 60.795 243.468 75.335 261.349 75.335Z" fill="url(#paint3_radial_104_45)"/>
</g>
<defs>
<linearGradient id="paint0_linear_104_45" x1="157.01" y1="65.0145" x2="318.99" y2="65.0145" gradientUnits="userSpaceOnUse">
<stop stop-color="#991EEB"/>
<stop offset="0.399" stop-color="#5822B4"/>
<stop offset="0.727" stop-color="#5822B4"/>
<stop offset="1" stop-color="#991EEB"/>
</linearGradient>
<radialGradient id="paint1_radial_104_45" cx="0" cy="0" r="1" gradientUnits="userSpaceOnUse" gradientTransform="translate(196.006 52.2213) scale(28.9238 28.9232)">
<stop stop-color="#7BA7F2" stop-opacity="0.5"/>
<stop offset="1" stop-color="#7BA7F2" stop-opacity="0"/>
</radialGradient>
<radialGradient id="paint2_radial_104_45" cx="0" cy="0" r="1" gradientUnits="userSpaceOnUse" gradientTransform="translate(205.285 87.2904) scale(59.5143 59.5128)">
<stop offset="0.2" stop-color="#7BA7F2"/>
<stop offset="1" stop-color="#7BA7F2" stop-opacity="0"/>
</radialGradient>
<radialGradient id="paint3_radial_104_45" cx="0" cy="0" r="1" gradientUnits="userSpaceOnUse" gradientTransform="translate(261.345 42.8626) scale(32.3699 32.3695)">
<stop stop-color="#7BA7F2"/>
<stop offset="1" stop-color="#7BA7F2" stop-opacity="0"/>
</radialGradient>
</defs>
</svg>
