<?xml version="1.0" encoding="UTF-8" standalone="no"?>
<svg
   width="50pt"
   height="50pt"
   version="1.1"
   viewBox="0 0 50 50"
   id="svg5959"
   sodipodi:docname="litter.svg"
   inkscape:version="1.2.2 (b0a8486541, 2022-12-01)"
   xmlns:inkscape="http://www.inkscape.org/namespaces/inkscape"
   xmlns:sodipodi="http://sodipodi.sourceforge.net/DTD/sodipodi-0.dtd"
   xmlns="http://www.w3.org/2000/svg"
   xmlns:svg="http://www.w3.org/2000/svg">
  <defs
     id="defs5963" />
  <sodipodi:namedview
     id="namedview5961"
     pagecolor="#ffffff"
     bordercolor="#000000"
     borderopacity="0.25"
     inkscape:showpageshadow="2"
     inkscape:pageopacity="0.0"
     inkscape:pagecheckerboard="0"
     inkscape:deskcolor="#d1d1d1"
     inkscape:document-units="pt"
     showgrid="false"
     inkscape:zoom="8.6788396"
     inkscape:cx="32.896103"
     inkscape:cy="53.290534"
     inkscape:window-width="1836"
     inkscape:window-height="1476"
     inkscape:window-x="3016"
     inkscape:window-y="56"
     inkscape:window-maximized="1"
     inkscape:current-layer="svg5959" />
  <path
     id="path5955"
     style="stroke-width:0.0892858"
     d="m 35.636081,35.435254 c -0.359232,-0.03976 -0.719518,0.06522 -1.00134,0.291919 -0.281803,0.226358 -0.461429,0.555947 -0.499446,0.915179 -0.0422,0.362027 0.0579,0.726144 0.278669,1.015626 0.221126,0.289482 0.545831,0.482 0.905804,0.536759 0.691965,0.175081 1.30018,0.586983 1.719466,1.164554 0.231937,0.286688 0.568848,0.469447 0.935714,0.507465 0.367259,0.03802 0.73417,-0.0715 1.020537,-0.304483 0.285991,-0.232982 0.467705,-0.570241 0.504669,-0.9375 0.03697,-0.366911 -0.07359,-0.733822 -0.307268,-1.019108 -0.865304,-1.150982 -2.13759,-1.927322 -3.556787,-2.170447 z M 30.35215,15.512029 c 0,0.495956 0.264714,0.954554 0.694402,1.20259 0.429688,0.248321 0.959108,0.248321 1.38884,0 0.429688,-0.247973 0.694402,-0.706617 0.694402,-1.20259 0.05546,-1.438661 -0.441545,-2.84393 -1.38884,-3.928216 -0.255652,-0.253911 -0.600589,-0.397599 -0.960893,-0.399349 -0.360286,-0.0021 -0.706965,0.13742 -0.96509,0.388536 -0.261232,0.253911 -0.413643,0.599188 -0.424804,0.963304 -0.01151,0.364117 0.118929,0.718126 0.363768,0.987679 0.4255,0.57234 0.637206,1.275805 0.598143,1.988037 z M 18.461965,29.723643 c -1.056429,0.978305 -1.699197,2.323484 -1.795804,3.759735 7.14e-4,0.360634 0.143348,0.706268 0.396553,0.962232 0.253206,0.256348 0.597447,0.402831 0.957769,0.407715 h 0.03453 c 0.358188,-0.0038 0.701385,-0.144742 0.959465,-0.393063 0.25809,-0.248679 0.411206,-0.586286 0.428643,-0.944108 0.10359,-0.705563 0.451313,-1.3525 0.982858,-1.828304 0.347027,-0.351563 0.481304,-0.861117 0.352259,-1.338215 -0.128697,-0.476768 -0.501188,-0.849608 -0.978304,-0.978304 -0.476768,-0.129045 -0.98634,0.0052 -1.337858,0.352259 z m -2.20268,-4.166966 c -0.260535,-0.260536 -0.613839,-0.407018 -0.982143,-0.407018 -0.368304,0 -0.721607,0.146482 -0.981786,0.407018 -1.056429,0.977947 -1.69884,2.323215 -1.795805,3.759734 7.15e-4,0.360286 0.143349,0.705911 0.396554,0.962233 0.253554,0.256 0.597447,0.402482 0.957769,0.407714 h 0.03453 c 0.358188,-0.0042 0.701384,-0.144741 0.959465,-0.393411 0.258089,-0.248678 0.411554,-0.586286 0.428643,-0.944107 0.103938,-0.705563 0.451661,-1.352501 0.982858,-1.828305 0.260535,-0.260536 0.407018,-0.613839 0.407018,-0.982143 0,-0.368304 -0.146483,-0.721608 -0.407018,-0.981786 z m 32.351803,16.25983 H 47.458409 C 47.028024,39.719363 45.013854,30.678108 41.972245,25.802213 39.624297,22.17605 38.504386,17.891048 38.777868,13.579885 38.791819,10.343634 38.80577,7.2883641 34.291616,5.7743455 32.258937,5.1130773 30.04081,5.3505863 28.194381,6.4272476 24.611075,8.3437664 21.305449,12.899394 18.472054,18.177254 l 3.58e-4,-3.58e-4 c -1.68143,-0.139509 -3.367413,0.202286 -4.861164,0.98634 C 6.0418695,23.079935 3.2782074,37.468603 2.6112424,41.815926 H 1.3888311 c -0.49595566,0 -0.95455411,0.264715 -1.20258995,0.694403 -0.24832155,0.429687 -0.24832155,0.959107 0,1.38884 0.24797334,0.429687 0.70661644,0.694402 1.20258995,0.694402 H 48.611169 c 0.495956,0 0.954554,-0.264715 1.20259,-0.694402 0.248321,-0.429688 0.248321,-0.959108 0,-1.38884 -0.247973,-0.429688 -0.706617,-0.694403 -1.20259,-0.694403 z M 29.500364,8.871847 29.500007,8.8714988 c 1.18125,-0.7020807 2.605358,-0.8687951 3.916698,-0.4582859 2.486073,0.8332147 2.597323,1.8195541 2.583394,5.1527701 -0.284946,4.839199 0.985268,9.642862 3.625181,13.708936 1.005893,1.719822 1.829643,3.539734 2.458483,5.43036 -1.921697,-1.721519 -4.532681,-2.455001 -7.069647,-1.985894 -3.26384,0.555599 -3.555358,-0.180661 -4.513841,-2.611251 -1.158929,-3.616788 -3.713752,-6.621432 -7.097147,-8.347147 -0.686384,-0.370045 -1.396161,-0.695108 -2.12509,-0.972055 2.472144,-4.541698 5.277592,-8.347504 8.221969,-9.9169689 z M 12.111962,41.816507 H 5.4173156 C 6.3478518,36.010879 9.2507104,24.538819 14.889642,21.636139 h -3.57e-4 c 0.674527,-0.355053 1.409375,-0.581054 2.166965,-0.6665 0.979376,-0.09487 1.967412,0.01395 2.902859,0.319473 0.737652,0.232634 1.449465,0.539902 2.12509,0.916608 2.808305,1.411161 4.916253,3.910448 5.833217,6.916521 1.027858,2.583395 2.069644,5.264021 7.555451,4.347145 5.222145,-0.875071 7.888843,5.277592 8.874826,8.347148 z" />
</svg>
