<?xml version="1.0" encoding="UTF-8" standalone="no"?>
<svg
   width="50pt"
   height="50pt"
   version="1.1"
   viewBox="-4.5 0 50 50"
   id="svg1428"
   sodipodi:docname="plant.svg"
   inkscape:version="1.2.2 (b0a8486541, 2022-12-01)"
   xmlns:inkscape="http://www.inkscape.org/namespaces/inkscape"
   xmlns:sodipodi="http://sodipodi.sourceforge.net/DTD/sodipodi-0.dtd"
   xmlns="http://www.w3.org/2000/svg"
   xmlns:svg="http://www.w3.org/2000/svg">
  <sodipodi:namedview
     id="namedview1430"
     pagecolor="#ffffff"
     bordercolor="#000000"
     borderopacity="0.25"
     inkscape:showpageshadow="2"
     inkscape:pageopacity="0.0"
     inkscape:pagecheckerboard="0"
     inkscape:deskcolor="#d1d1d1"
     inkscape:document-units="pt"
     showgrid="false"
     inkscape:zoom="4.7013954"
     inkscape:cx="20.100415"
     inkscape:cy="32.54353"
     inkscape:window-width="1226"
     inkscape:window-height="1489"
     inkscape:window-x="0"
     inkscape:window-y="0"
     inkscape:window-maximized="1"
     inkscape:current-layer="svg1428" />
  <defs
     id="defs1366">
    <symbol
       id="m"
       overflow="visible">
      <path
         d="m 37.516,-2.25 c -1.9297,1.0117 -3.9453,1.7734 -6.0469,2.2812 -2.0938,0.50781 -4.2812,0.76562 -6.5625,0.76562 -6.793,0 -12.18,-1.8984 -16.156,-5.7031 -3.9688,-3.8008 -5.9531,-8.957 -5.9531,-15.469 0,-6.5195 1.9844,-11.68 5.9531,-15.484 3.9766,-3.8008 9.3633,-5.7031 16.156,-5.7031 2.2812,0 4.4688,0.25781 6.5625,0.76562 2.1016,0.51172 4.1172,1.2656 6.0469,2.2656 v 8.4531 c -1.9492,-1.332 -3.8711,-2.3047 -5.7656,-2.9219 -1.8984,-0.625 -3.8906,-0.9375 -5.9844,-0.9375 -3.7617,0 -6.7188,1.2031 -8.875,3.6094 -2.1484,2.4062 -3.2188,5.7266 -3.2188,9.9531 0,4.2109 1.0703,7.5156 3.2188,9.9219 2.1562,2.4062 5.1133,3.6094 8.875,3.6094 2.0938,0 4.0859,-0.30469 5.9844,-0.92188 1.8945,-0.625 3.8164,-1.5977 5.7656,-2.9219 z"
         id="path1327" />
    </symbol>
    <symbol
       id="i"
       overflow="visible">
      <path
         d="m 27.453,-22.281 c -0.85547,-0.40625 -1.7109,-0.70312 -2.5625,-0.89062 -0.84375,-0.19531 -1.6953,-0.29688 -2.5469,-0.29688 -2.5234,0 -4.4609,0.80859 -5.8125,2.4219 -1.3555,1.6172 -2.0312,3.9297 -2.0312,6.9375 V -1e-4 H 4.703 v -30.625 h 9.7969 v 5.0312 c 1.25,-2.0078 2.6914,-3.4727 4.3281,-4.3906 1.6328,-0.91406 3.5859,-1.375 5.8594,-1.375 0.33203,0 0.6875,0.01563 1.0625,0.04687 0.38281,0.02344 0.94141,0.07813 1.6719,0.17188 z"
         id="path1330" />
    </symbol>
    <symbol
       id="a"
       overflow="visible">
      <path
         d="m 35.281,-15.391 v 2.7812 H 12.39 c 0.23828,2.3047 1.0664,4.0273 2.4844,5.1719 1.4258,1.1484 3.4141,1.7188 5.9688,1.7188 2.0508,0 4.1562,-0.30078 6.3125,-0.90625 2.1641,-0.61328 4.3906,-1.5391 6.6719,-2.7812 v 7.5469 c -2.3125,0.875 -4.6328,1.5391 -6.9531,1.9844 -2.3125,0.44531 -4.625,0.67188 -6.9375,0.67188 -5.543,0 -9.8516,-1.4062 -12.922,-4.2188 -3.0742,-2.8203 -4.6094,-6.7734 -4.6094,-11.859 0,-5 1.5039,-8.9258 4.5156,-11.781 3.0195,-2.8633 7.1758,-4.2969 12.469,-4.2969 4.8125,0 8.6602,1.4492 11.547,4.3438 2.8945,2.8984 4.3438,6.7734 4.3438,11.625 z m -10.062,-3.2656 c 0,-1.8516 -0.54688,-3.3477 -1.6406,-4.4844 -1.0859,-1.1445 -2.5,-1.7188 -4.25,-1.7188 -1.8984,0 -3.4375,0.53906 -4.625,1.6094 -1.1797,1.0625 -1.9141,2.5938 -2.2031,4.5938 z"
         id="path1333" />
    </symbol>
    <symbol
       id="h"
       overflow="visible">
      <path
         d="m 18.438,-13.781 c -2.043,0 -3.5781,0.35156 -4.6094,1.0469 -1.0312,0.6875 -1.5469,1.7031 -1.5469,3.0469 0,1.2422 0.41016,2.2148 1.2344,2.9219 0.83203,0.69922 1.9883,1.0469 3.4688,1.0469 1.8438,0 3.3906,-0.66016 4.6406,-1.9844 1.2578,-1.3203 1.8906,-2.9727 1.8906,-4.9531 v -1.125 z m 14.953,-3.6875 V 5e-4 h -9.875 v -4.5469 c -1.3125,1.8672 -2.793,3.2266 -4.4375,4.0781 -1.6367,0.84375 -3.6328,1.2656 -5.9844,1.2656 -3.168,0 -5.7422,-0.92578 -7.7188,-2.7812 -1.9805,-1.8516 -2.9688,-4.2539 -2.9688,-7.2031 0,-3.5938 1.2344,-6.2266 3.7031,-7.9062 2.4688,-1.6758 6.3477,-2.5156 11.641,-2.5156 h 5.7656 v -0.76562 c 0,-1.5508 -0.60938,-2.6875 -1.8281,-3.4062 -1.21872,-0.7187 -3.125,-1.0781 -5.7188,-1.0781 -2.0938,0 -4.0469,0.21484 -5.8594,0.64062 -1.8047,0.41797 -3.4766,1.043 -5.0156,1.875 v -7.4688 c 2.0938,-0.50781 4.1953,-0.89453 6.3125,-1.1562 2.1133,-0.25781 4.2266,-0.39062 6.3438,-0.39062 5.5195,0 9.5039,1.0898 11.953,3.2656 2.457,2.1797 3.6875,5.7188 3.6875,10.625 z"
         id="path1336" />
    </symbol>
    <symbol
       id="g"
       overflow="visible">
      <path
         d="m 15.391,-39.328 v 8.7031 h 10.094 v 7 H 15.391 v 12.984 c 0,1.4297 0.28125,2.3906 0.84375,2.8906 0.57031,0.5 1.6953,0.75 3.375,0.75 h 5.0312 v 7 h -8.3906 c -3.8672,0 -6.6055,-0.80469 -8.2188,-2.4219 -1.6172,-1.6133 -2.4219,-4.3516 -2.4219,-8.2188 v -12.984 h -4.875 v -7 h 4.875 v -8.7031 z"
         id="path1339" />
    </symbol>
    <symbol
       id="f"
       overflow="visible">
      <path
         d="m 25.547,-26.141 v -16.406 h 9.8438 V 0 H 25.547 v -4.4375 c -1.3555,1.8125 -2.8438,3.1406 -4.4688,3.9844 -1.6172,0.83203 -3.4922,1.25 -5.625,1.25 -3.7734,0 -6.8711,-1.5 -9.2969,-4.5 -2.4297,-3 -3.6406,-6.8594 -3.6406,-11.578 0,-4.7266 1.2109,-8.5859 3.6406,-11.578 2.4258,-3 5.5234,-4.5 9.2969,-4.5 2.1133,0 3.9844,0.42188 5.6094,1.2656 1.6328,0.84375 3.1289,2.1641 4.4844,3.9531 z m -6.4531,19.828 c 2.0938,0 3.6914,-0.76562 4.7969,-2.2969 1.1016,-1.5312 1.6562,-3.7539 1.6562,-6.6719 0,-2.9141 -0.55469,-5.1406 -1.6562,-6.6719 -1.1055,-1.5312 -2.7031,-2.2969 -4.7969,-2.2969 -2.0859,0 -3.6797,0.76562 -4.7812,2.2969 -1.1055,1.5312 -1.6562,3.7578 -1.6562,6.6719 0,2.918 0.55078,5.1406 1.6562,6.6719 1.1016,1.5312 2.6953,2.2969 4.7812,2.2969 z"
         id="path1342" />
    </symbol>
    <symbol
       id="e"
       overflow="visible">
      <path
         d="m 21,-6.3125 c 2.0938,0 3.6914,-0.76562 4.7969,-2.2969 1.1016,-1.5312 1.6562,-3.7539 1.6562,-6.6719 0,-2.9141 -0.55469,-5.1406 -1.6562,-6.6719 -1.1055,-1.5312 -2.7031,-2.2969 -4.7969,-2.2969 -2.0938,0 -3.7031,0.77344 -4.8281,2.3125 -1.1172,1.5312 -1.6719,3.75 -1.6719,6.6562 0,2.8984 0.55469,5.1172 1.6719,6.6562 1.125,1.543 2.7344,2.3125 4.8281,2.3125 z m -6.5,-19.828 c 1.3438,-1.7891 2.832,-3.1094 4.4688,-3.9531 1.6445,-0.84375 3.5352,-1.2656 5.6719,-1.2656 3.7695,0 6.8672,1.5 9.2969,4.5 2.4258,2.9922 3.6406,6.8516 3.6406,11.578 0,4.7188 -1.2148,8.5781 -3.6406,11.578 -2.4297,3 -5.5273,4.5 -9.2969,4.5 -2.1367,0 -4.0273,-0.42188 -5.6719,-1.2656 C 17.3321,-1.32036 15.8438,-2.6446 14.5,-4.4376 V -1e-4 H 4.7031 v -42.547 H 14.5 Z"
         id="path1345" />
    </symbol>
    <symbol
       id="d"
       overflow="visible">
      <path
         d="m 0.6875,-30.625 h 9.7812 l 8.2344,20.781 7,-20.781 H 35.5 L 22.609,2.906 c -1.293,3.4062 -2.8047,5.7852 -4.5312,7.1406 -1.7188,1.3633 -3.9922,2.0469 -6.8125,2.0469 H 5.6091 V 5.656 h 3.0625 c 1.6562,0 2.8594,-0.26562 3.6094,-0.79688 0.75781,-0.52344 1.3516,-1.4648 1.7812,-2.8281 l 0.26562,-0.85938 z"
         id="path1348" />
    </symbol>
    <symbol
       id="c"
       overflow="visible">
      <path
         d="m 5.1406,-40.828 h 10.531 v 14.906 l 15.172,-14.906 h 12.219 L 23.4066,-21.5 45.0946,0 H 31.9066 L 15.6726,-16.078 V 0 H 5.1416 Z"
         id="path1351" />
    </symbol>
    <symbol
       id="b"
       overflow="visible">
      <path
         d="m 4.375,-11.922 v -18.703 h 9.8438 v 3.0625 c 0,1.6562 -0.01172,3.7422 -0.03125,6.25 -0.01172,2.5 -0.01563,4.1719 -0.01563,5.0156 0,2.4609 0.0625,4.2305 0.1875,5.3125 0.125,1.0859 0.34375,1.875 0.65625,2.375 0.39453,0.63672 0.91406,1.125 1.5625,1.4688 0.65625,0.34375 1.3984,0.51562 2.2344,0.51562 2.0391,0 3.6445,-0.78125 4.8125,-2.3438 1.1641,-1.5703 1.75,-3.75 1.75,-6.5312 v -15.125 h 9.7969 V 2e-5 h -9.7969 v -4.4375 c -1.4805,1.793 -3.043,3.1172 -4.6875,3.9688 -1.6484,0.84375 -3.4648,1.2656 -5.4531,1.2656 -3.543,0 -6.2422,-1.082 -8.0938,-3.25 -1.8438,-2.1758 -2.7656,-5.332 -2.7656,-9.4688 z"
         id="path1354" />
    </symbol>
    <symbol
       id="l"
       overflow="visible">
      <path
         d="M 4.7031,-42.547 H 14.5 v 23.156 L 25.766,-30.625 H 37.141 L 22.172,-16.578 38.313,0 H 26.438 L 14.5,-12.766 V 0 H 4.7031 Z"
         id="path1357" />
    </symbol>
    <symbol
       id="k"
       overflow="visible">
      <path
         d="M 35.5,-18.656 V 0 h -9.8438 v -14.219 c 0,-2.6758 -0.0625,-4.5156 -0.1875,-5.5156 -0.11719,-1.0078 -0.32031,-1.75 -0.60938,-2.2188 -0.38672,-0.64453 -0.90625,-1.1445 -1.5625,-1.5 -0.65625,-0.35156 -1.4023,-0.53125 -2.2344,-0.53125 -2.043,0 -3.6484,0.79297 -4.8125,2.375 -1.168,1.5742 -1.75,3.7578 -1.75,6.5469 v 15.062 h -9.7969 v -42.547 h 9.7969 v 16.406 c 1.4688,-1.7891 3.0312,-3.1094 4.6875,-3.9531 1.6641,-0.84375 3.5,-1.2656 5.5,-1.2656 3.5391,0 6.2266,1.0859 8.0625,3.25 1.832,2.168 2.75,5.3203 2.75,9.4531 z"
         id="path1360" />
    </symbol>
    <symbol
       id="j"
       overflow="visible">
      <path
         d="m 1.6719,-40.828 h 10.094 l 7.0469,29.672 7,-29.672 h 10.141 l 7,29.672 7.0625,-29.672 h 10 L 50.3913,0 H 38.2503 L 30.8441,-31.031 23.516,0 H 11.375 Z"
         id="path1363" />
    </symbol>
  </defs>
  <path
     id="path1394"
     d="m 11.900524,4.609228 c -0.26142,-0.261422 -0.65424,-0.261422 -0.91565,0 -0.26142,0.261421 -0.26142,0.654237 0,0.915647 1.83134,1.700414 3.40118,3.531639 4.97067,5.493907 0.13094,0.130938 0.26142,0.261421 0.5233,0.261421 0.13093,0 0.26142,0 0.39236,-0.130938 0.26142,-0.261422 0.39236,-0.654237 0.13093,-0.915647 -1.56948,-1.961801 -3.27025,-3.924069 -5.10159,-5.624367 z m 11.11885,5.886337 c 0.13094,0 0.26143,0 0.39236,-0.130939 2.74702,-2.223654 5.88623,-3.531638 9.02602,-4.185922 0.5233,0 1.04658,-0.130483 1.70076,-0.130483 0.39236,0 0.65424,-0.392361 0.65424,-0.654238 -0.13094,-0.39236 -0.52375,-0.654237 -0.78518,-0.654237 -0.5233,0 -1.17705,0.130939 -1.70041,0.261422 -3.40118,0.654237 -6.67143,2.093195 -9.54937,4.316849 -0.26142,0.261422 -0.39236,0.654237 -0.13094,0.915647 0,0.130939 0.13094,0.261877 0.39236,0.261877 z m -12.68857,6.409694 c -0.26143,-0.261422 -0.6542402,-0.130939 -0.9156502,0.130939 -0.26142,0.261421 -0.13094,0.654237 0.13094,0.915647 1.1770602,0.78472 2.2236502,1.962268 2.8779402,3.531638 0.13094,0.261422 0.39236,0.392361 0.65423,0.392361 h 0.26143 c 0.39236,-0.130939 0.52329,-0.523299 0.26142,-0.915648 -0.78518,-1.830874 -1.83134,-3.139325 -3.27026,-4.054995 z m 5.2324,8.895086 c 0.39236,-0.130939 0.5233,-0.523299 0.39236,-0.784721 -0.13094,-0.39236 -0.5233,-0.523298 -0.78472,-0.39236 l -0.5233,0.130939 c -4.18592,1.438911 -6.6714302,2.223654 -10.2030702,5.363447 -0.26142,0.261421 -0.26142,0.654237 0,0.915647 0.13094,0.130938 0.26142,0.261422 0.5233,0.261422 0.13094,0 0.26142,0 0.39236,-0.130939 3.27025,-3.008866 5.4939102,-3.793492 9.6798302,-5.101593 z m 21.19123,1.3081 -11.11874,-6.932817 c -0.26142,-0.130939 -0.65423,-0.130939 -0.91564,0.261421 -0.13094,0.261422 -0.13094,0.654238 0.26142,0.915648 l 11.11874,6.932817 c 0.13094,0.130939 0.26142,0.130939 0.39236,0.130939 0.26142,0 0.39236,-0.130939 0.5233,-0.261422 0.13094,-0.523754 0.13094,-0.916114 -0.26142,-1.046586 z M 23.019374,12.980956 h 0.13094 c 0.91565,0.130939 1.96227,0.261422 2.74701,0.261422 2.61597,0 4.97067,-0.78472 6.8019,-2.223655 0.52329,-0.523298 1.04658,-1.046585 2.09319,-2.223654 1.56984,-1.700414 2.87794,-3.531639 4.18592,-5.23252 0.13094,-0.130939 0.13094,-0.392361 0.13094,-0.654238 -0.26142,-0.654237 -4.57823,-1.700414 -4.70916,-1.700414 -1.43891,-0.26142199 -2.74701,-0.39235999 -4.055,-0.26142199 -2.87794,0.13093899 -5.62483,1.17705799 -7.5871,2.74701199 -1.56984,1.307984 -2.87794,4.447309 -2.35458,6.671431 0.39236,1.438444 1.30798,2.354115 2.61597,2.615968 z m 0.78518,-8.110342 c 1.70041,-1.43891 4.18592,-2.354581 6.80189,-2.485508 1.17706,-0.130938 2.48551,0 3.79349,0.261422 0.26143,0 2.0932,0.654237 3.27026,0.915647 -1.17706,1.569838 -2.35459,3.008865 -3.66257,4.447309 -1.04659,1.046586 -1.43891,1.569838 -1.96227,1.962268 -2.09319,1.700415 -5.23252,2.354582 -8.50277,1.700415 h -0.13094 c -0.78472,-0.261422 -1.30798,-0.654238 -1.56984,-1.569838 -0.3919,-1.569021 0.6547,-4.184989 1.96274,-5.231586 z m -4.9711,1.831342 c -0.91565,-1.962268 -2.48551,-3.662566 -4.70916,-4.84009 -0.91565,-0.523299 -2.0932,-1.04658599 -3.13933,-1.30798399 0,0 -3.7934902,-0.915648 -4.1859202,-0.39236 -0.13094,0.130938 -0.26142,0.39236 -0.13094,0.523298 0.26142,1.83134099 0.78472,3.66256599 1.17706,5.49390699 0.26142,1.177057 0.5233,1.831341 0.78472,2.354581 1.04659,2.354582 3.4011802,4.31685 6.5405002,5.101594 h 0.13094 c 0.26142,0 0.5233,0.130938 0.65424,0.130938 0.91565,0 1.56984,-0.39236 2.22365,-1.046585 1.17753,-1.569488 1.30846,-4.44731 0.65424,-6.017264 z m -1.70041,5.101593 c -0.39236,0.523299 -0.91565,0.654237 -1.56984,0.523299 l -0.13094,0.654237 v -0.654237 c -2.74701,-0.654238 -4.84009,-2.354582 -5.7557602,-4.31685 -0.26142,-0.523299 -0.39236,-1.046586 -0.65424,-2.223655 -0.39236,-1.43891 -0.78472,-3.008865 -1.04658,-4.447309 0.91564,0.130939 2.3545802,0.39236 2.6159702,0.39236 1.04658,0.261422 1.96226,0.654238 2.87793,1.177058 1.83135,1.046585 3.40118,2.615968 4.055,4.316849 0.65515,1.177524 0.52421,3.532106 -0.39145,4.578236 z m 7.06363,18.575149 c 0.39236,-0.130939 0.52329,-0.523299 0.39236,-0.784721 -0.13094,-0.39236 -0.5233,-0.523299 -0.78472,-0.39236 -2.48551,0.78472 -2.48551,2.877939 -2.48551,2.877939 0,0.130938 0.13094,0.39236 0.26142,0.523298 0.5233,0.392361 1.43891,1.046586 2.87794,1.177058 h 0.13094 c 2.35458,0 3.79349,-1.831342 3.92453,-1.962268 0.26142,-0.261422 0.13094,-0.654238 -0.13094,-0.915648 -0.26142,-0.261421 -0.65423,-0.130938 -0.91564,0.130939 -0.13094,0.130938 -1.17706,1.569838 -3.00887,1.438911 -0.78472,0 -1.43891,-0.39236 -1.83134,-0.654238 0.13094,-0.523298 0.5233,-1.046585 1.56984,-1.43891 z m -8.24104,-9.418326 c 0.13094,0.39236 0.5233,0.523298 0.91565,0.261421 0.39236,-0.130938 0.5233,-0.523299 0.26142,-0.915647 -0.78472,-1.569838 -1.96227,-3.008866 -3.27025,-4.054996 -2.87794,-2.093195 -6.1481902,-2.093195 -7.4561802,-1.962268 -0.26142,0 -0.39236,0.130939 -0.5233,0.261422 -0.13094,0.130938 -0.13094,0.39236 0,0.654237 l 3.00887,6.671431 c 0.13094,0.261422 0.39236,0.39236 0.65424,0.39236 h 0.26142 c 0.3923602,-0.130938 0.5233002,-0.523298 0.3923602,-0.915647 l -2.6159702,-5.75576 c 1.30798,0 3.5316402,0.261421 5.6248302,1.700414 1.04613,1.046586 2.09273,2.224122 2.74702,3.663033 z m 25.24635,7.194554 c -0.26143,-1.307984 -0.5233,-3.008865 -2.22366,-4.970666 -2.48551,-2.877939 -4.97066,-4.84009 -7.71756,-5.755761 -3.00887,-1.046585 -5.75576,-0.523298 -7.45617,1.307984 l -0.13094,0.130939 h -0.5233 -0.91565 c -0.5233,0.130938 -0.91565,0.523299 -1.17706,1.046586 0,0.130938 -0.13093,0.130938 -0.13093,0.261421 -0.65424,1.962268 0.13093,4.970667 1.70041,6.540504 0.13094,0.130939 1.17706,1.177058 2.48551,1.962269 3.00886,1.831341 8.11034,2.093194 11.90372,2.223654 1.83134,0.130939 3.66256,0.130939 4.18592,0.39236 0.13094,0 0.26142,0.130939 0.26142,0.130939 0.13094,0 0.39236,-0.130939 0.5233,-0.261422 0.26142,-0.261421 0.26142,-0.523298 0,-0.78472 -0.52376,-0.523299 -0.65469,-1.308451 -0.78518,-2.224122 z m -4.18593,1.438911 c -3.66256,-0.130938 -8.50277,-0.39236 -11.24966,-2.093195 -1.17706,-0.654237 -2.0932,-1.569838 -2.22366,-1.700414 -1.17706,-1.307984 -1.83134,-3.662566 -1.30798,-5.23252 v -0.130939 l 0.39236,-0.39236 h 0.39236 c 0.39236,0 0.78472,0 1.30798,-0.261422 l 0.39236,-0.39236 c 1.83134,-2.093195 5.1016,-1.177057 6.01727,-0.915647 2.4855,0.78472 4.84009,2.615968 7.06374,5.363447 1.30798,1.569838 1.56984,3.008865 1.83134,4.31685 0.13094,0.523298 0.13094,1.046585 0.39236,1.43891 -0.65424,0.130484 -1.70041,0.130484 -3.0084,-4.67e-4 z m -21.06042,-0.26162 c 0.13094,-0.130939 2.74701,-3.662566 1.83134,-5.493907 -0.39236,-0.915647 -1.56984,-1.438911 -3.40118,-1.569838 -3.40118,-0.261421 -9.6798302,1.307984 -12.9502002,6.409578 -1.30798003,2.093195 -1.30798003,3.662565 -1.30798003,4.84009 v 1.046585 c 0,0.261422 0.13094,0.392361 0.26142,0.523299 0.13094,0.130939 0.26142,0.130939 0.39236,0.130939 h 0.13094 c 0.13094003,0 0.39236003,-0.130939 0.65424003,-0.130939 2.35458,-0.39236 9.5493702,-1.831341 12.5577702,-4.054996 1.04613,-0.654237 1.83134,-1.700764 1.83134,-1.700764 z M 1.4357138,33.910453 v -0.261422 c 0,-1.177057 0,-2.354581 1.17706,-4.054995 2.87794,-4.44731 8.1103402,-5.886221 11.2496702,-5.886221 h 0.52329 c 1.30799,0.130939 2.0932,0.523299 2.22366,0.784721 0.39236,0.654237 -0.65424,2.747012 -1.70042,4.185922 0,0 -0.65423,0.784721 -1.43891,1.438911 -2.74701,1.961801 -9.5493702,3.269785 -12.0345202,3.793142 z M 19.487504,34.69543 c 0.39236,0 0.65424,-0.261421 0.65424,-0.654237 V 12.065099 c 0,-0.39236 -0.26142,-0.654237 -0.65424,-0.654237 -0.39236,0 -0.65423,0.261421 -0.65423,0.654237 v 21.976094 c 0,0.39236 0.26187,0.653782 0.65423,0.653782 z m -7.71779,3.924303 2.87794,8.895086 c 0.13093,0.261421 0.39236,0.39236 0.65423,0.39236 h 0.26142 c 0.39237,-0.130939 0.5233,-0.523299 0.39237,-0.784721 l -2.87794,-8.895085 c -0.13094,-0.39236 -0.5233,-0.523299 -0.78472,-0.39236 -0.39282,0.130483 -0.65424,0.522843 -0.5233,0.78472 z m 18.1826,-2.877822 H 9.1535138 c -0.26143,0 -0.39236,0.130939 -0.5233,0.261422 -0.13094,0.130938 -0.13094,0.39236 -0.13094,0.523298 L 12.816124,49.60764 C 12.947064,49.869061 13.208484,50 13.470364,50 h 12.16533 c 0.26142,0 0.5233,-0.130939 0.65424,-0.39236 l 4.31685,-13.081009 c 0.13094,-0.261421 0,-0.39236 -0.13094,-0.523298 -0.13094,-0.130483 -0.39281,-0.261422 -0.5233,-0.261422 z m -4.84009,13.081008 H 13.862554 L 9.9380238,37.050012 H 29.036294 Z"
     style="stroke-width:0.116795" />
</svg>
