<?xml version="1.0" encoding="UTF-8" standalone="no"?>
<svg
   width="50pt"
   height="50pt"
   version="1.1"
   viewBox="0 0 50 50"
   id="svg8660"
   sodipodi:docname="roomba.svg"
   inkscape:version="1.2.2 (b0a8486541, 2022-12-01)"
   xmlns:inkscape="http://www.inkscape.org/namespaces/inkscape"
   xmlns:sodipodi="http://sodipodi.sourceforge.net/DTD/sodipodi-0.dtd"
   xmlns="http://www.w3.org/2000/svg"
   xmlns:svg="http://www.w3.org/2000/svg">
  <sodipodi:namedview
     id="namedview8662"
     pagecolor="#ffffff"
     bordercolor="#000000"
     borderopacity="0.25"
     inkscape:showpageshadow="2"
     inkscape:pageopacity="0.0"
     inkscape:pagecheckerboard="0"
     inkscape:deskcolor="#d1d1d1"
     inkscape:document-units="pt"
     showgrid="false"
     inkscape:zoom="1.1003571"
     inkscape:cx="466.66668"
     inkscape:cy="468.48428"
     inkscape:window-width="1836"
     inkscape:window-height="1476"
     inkscape:window-x="3016"
     inkscape:window-y="56"
     inkscape:window-maximized="1"
     inkscape:current-layer="svg8660" />
  <defs
     id="defs8556">
    <symbol
       id="w"
       overflow="visible">
      <path
         d="M 3.75,-0.21875 C 3.55078,-0.125 3.34766,-0.05078 3.14062,0 2.92968,0.050781 2.71093,0.078125 2.48437,0.078125 c -0.67969,0 -1.2148,-0.1875 -1.6094,-0.5625 -0.39844,-0.38281 -0.59375,-0.89844 -0.59375,-1.5469 0,-0.65625 0.19531,-1.1719 0.59375,-1.5469 0.39453,-0.38281 0.92969,-0.57812 1.6094,-0.57812 0.22656,0 0.44531,0.027344 0.65625,0.078125 0.20703,0.054687 0.41016,0.13281 0.60938,0.23438 v 0.84375 C 3.55078,-3.13285 3.35938,-3.23442 3.17188,-3.29692 2.98438,-3.35942 2.78516,-3.39067 2.57813,-3.39067 c -0.375,0 -0.67188,0.12109 -0.89062,0.35938 -0.21875,0.24219 -0.32812,0.57422 -0.32812,1 0,0.41797 0.10938,0.74609 0.32812,0.98438 0.21875,0.24219 0.51562,0.35938 0.89062,0.35938 0.20703,0 0.40625,-0.03125 0.59375,-0.09375 0.1875,-0.0625 0.37891,-0.15625 0.57812,-0.28125 z"
         id="path8487" />
    </symbol>
    <symbol
       id="d"
       overflow="visible">
      <path
         d="M 2.75,-2.2188 C 2.65625,-2.257862 2.56641,-2.289112 2.48438,-2.31255 2.398443,-2.332081 2.31641,-2.3438 2.23438,-2.3438 c -0.25,0 -0.44531,0.085938 -0.57812,0.25 -0.13672,0.15625 -0.20312,0.38672 -0.20312,0.6875 V -1e-4 H 0.46876 v -3.0625 h 0.98438 v 0.5 c 0.125,-0.19531 0.26562,-0.34375 0.42188,-0.4375 0.16406,-0.09375 0.36328,-0.14062 0.59375,-0.14062 0.03125,0 0.0625,0.00781 0.09375,0.015625 0.039062,0 0.097656,0.00781 0.17188,0.015625 z"
         id="path8490" />
    </symbol>
    <symbol
       id="c"
       overflow="visible">
      <path
         d="m 3.5156,-1.5312 v 0.26562 H 1.2344 c 0.019531,0.23047 0.10156,0.40234 0.25,0.51562 0.14453,0.11719 0.34375,0.17188 0.59375,0.17188 0.20703,0 0.41406,-0.023437 0.625,-0.078125 0.21875,-0.0625 0.44141,-0.15625 0.67188,-0.28125 v 0.75 c -0.23047,0.09375 -0.46094,0.16406 -0.6875,0.20312 -0.23047,0.039062 -0.46484,0.0625 -0.70312,0.0625 -0.55469,0 -0.98438,-0.14062 -1.2969,-0.42188 -0.30469,-0.28125 -0.45312,-0.67578 -0.45312,-1.1875 0,-0.5 0.14844,-0.89062 0.45312,-1.1719 0.30078,-0.28906 0.71875,-0.4375 1.25,-0.4375 0.47656,0 0.85938,0.14844 1.1406,0.4375 0.28906,0.29297 0.4375,0.68359 0.4375,1.1719 z m -1,-0.32812 c 0,-0.1875 -0.058594,-0.33594 -0.17188,-0.45312 -0.10547,-0.11328 -0.24219,-0.17188 -0.40625,-0.17188 -0.19922,0 -0.35547,0.058594 -0.46875,0.17188 -0.11719,0.10547 -0.1875,0.25781 -0.21875,0.45312 z"
         id="path8493" />
    </symbol>
    <symbol
       id="b"
       overflow="visible">
      <path
         d="m 1.8438,-1.375 c -0.21094,0 -0.36719,0.039062 -0.46875,0.10938 -0.10547,0.0625 -0.15625,0.16406 -0.15625,0.29688 0,0.125 0.039062,0.22656 0.125,0.29688 0.082031,0.0625 0.20312,0.09375 0.35938,0.09375 0.17578,0 0.32812,-0.0625 0.45312,-0.1875 0.125,-0.13281 0.1875,-0.30078 0.1875,-0.5 V -1.37499 Z M 3.3282,-1.75 V 0 H 2.34382 v -0.45312 c -0.125,0.1875 -0.27344,0.32422 -0.4375,0.40625 -0.16797,0.082031 -0.36719,0.125 -0.59375,0.125 -0.32422,0 -0.58594,-0.085938 -0.78125,-0.26562 -0.19922,-0.1875 -0.29688,-0.42969 -0.29688,-0.73438 0,-0.35156 0.125,-0.61328 0.375,-0.78125 0.25,-0.16406 0.63281,-0.25 1.1562,-0.25 h 0.57812 v -0.078125 c 0,-0.15625 -0.0625,-0.26953 -0.1875,-0.34375 -0.11719,-0.070312 -0.30469,-0.10938 -0.5625,-0.10938 -0.21094,0 -0.40625,0.023437 -0.59375,0.0625 -0.17969,0.042969 -0.33984,0.10547 -0.48438,0.1875 v -0.75 c 0.20703,-0.039063 0.41406,-0.078125 0.625,-0.10938 0.20703,-0.03125 0.41406,-0.046875 0.625,-0.046875 0.55078,0 0.94531,0.10938 1.1875,0.32812 0.25,0.21875 0.375,0.57422 0.375,1.0625 z"
         id="path8496" />
    </symbol>
    <symbol
       id="f"
       overflow="visible">
      <path
         d="m 1.5312,-3.9219 v 0.85938 H 2.5468 V -2.3594 H 1.5312 v 1.2969 c 0,0.14844 0.023438,0.24609 0.078125,0.29688 0.0625,0.042969 0.17578,0.0625 0.34375,0.0625 h 0.5 V 0 H 1.624955 C 1.238235,0 0.960895,-0.078125 0.796835,-0.23438 0.640585,-0.39844 0.562455,-0.67579 0.562455,-1.0625 v -1.2969 h -0.48438 v -0.70312 h 0.48438 V -3.9219 Z"
         id="path8499" />
    </symbol>
    <symbol
       id="n"
       overflow="visible">
      <path
         d="M 2.5469,-2.6094 V -4.25 H 3.53128 V 0 H 2.5469 v -0.4375 c -0.13672,0.17969 -0.28906,0.30859 -0.45312,0.39062 -0.15625,0.082031 -0.33984,0.125 -0.54688,0.125 -0.375,0 -0.6875,-0.14453 -0.9375,-0.4375 -0.24219,-0.30078 -0.35938,-0.69141 -0.35938,-1.1719 0,-0.46875 0.11719,-0.85156 0.35938,-1.1562 0.25,-0.30078 0.5625,-0.45312 0.9375,-0.45312 0.20703,0 0.39062,0.046875 0.54688,0.14062 0.16406,0.085938 0.31641,0.21484 0.45312,0.39062 z M 1.90628,-0.625 c 0.20703,0 0.36328,-0.078125 0.46875,-0.23438 0.11328,-0.15625 0.17188,-0.37891 0.17188,-0.67188 0,-0.28906 -0.058594,-0.50781 -0.17188,-0.65625 -0.10547,-0.15625 -0.26172,-0.23438 -0.46875,-0.23438 -0.21094,0 -0.37109,0.078125 -0.48438,0.23438 -0.10547,0.14844 -0.15625,0.36719 -0.15625,0.65625 0,0.29297 0.050781,0.51562 0.15625,0.67188 0.11328,0.15625 0.27344,0.23438 0.48438,0.23438 z"
         id="path8502" />
    </symbol>
    <symbol
       id="m"
       overflow="visible">
      <path
         d="m 2.0938,-0.625 c 0.20703,0 0.36719,-0.078125 0.48438,-0.23438 0.11328,-0.15625 0.17188,-0.37891 0.17188,-0.67188 0,-0.28906 -0.058594,-0.50781 -0.17188,-0.65625 -0.11719,-0.15625 -0.27734,-0.23438 -0.48438,-0.23438 -0.21094,0 -0.37109,0.078125 -0.48438,0.23438 -0.10547,0.14844 -0.15625,0.36719 -0.15625,0.65625 0,0.29297 0.050781,0.51562 0.15625,0.67188 C 1.7227,-0.70313 1.88286,-0.625 2.0938,-0.625 Z M 1.45318,-2.6094 c 0.13281,-0.17578 0.28125,-0.30469 0.4375,-0.39062 0.16406,-0.09375 0.35156,-0.14062 0.5625,-0.14062 0.38281,0 0.69531,0.15234 0.9375,0.45312 0.23828,0.30469 0.35938,0.6875 0.35938,1.1562 0,0.48047 -0.12109,0.87109 -0.35938,1.1719 -0.24219,0.29297 -0.55469,0.4375 -0.9375,0.4375 -0.21094,0 -0.39844,-0.042969 -0.5625,-0.125 C 1.73443,-0.128951 1.58599,-0.25786 1.45318,-0.43754 V -4e-5 H 0.4688 v -4.25 h 0.98438 z"
         id="path8505" />
    </symbol>
    <symbol
       id="l"
       overflow="visible">
      <path
         d="M 0.0625,-3.0625 H 1.04688 L 1.875,-0.9844 2.5625,-3.0625 H 3.54688 L 2.26568,0.2969 C 2.12896,0.62893 1.97271,0.86331 1.79693,1.00002 1.62896,1.13283 1.40631,1.20314 1.12505,1.20314 H 0.56255 V 0.56252 h 0.29688 c 0.16406,0 0.28516,-0.027344 0.35938,-0.078125 0.082031,-0.054687 0.14453,-0.14844 0.1875,-0.28125 L 1.43756,0.12502 Z"
         id="path8508" />
    </symbol>
    <symbol
       id="k"
       overflow="visible">
      <path
         d="m 0.51562,-4.0781 h 1.0469 v 1.4844 l 1.5156,-1.4844 h 1.2188 L 2.34382,-2.1406 4.50002,0 h -1.3125 l -1.625,-1.6094 V 0 h -1.0469 z"
         id="path8511" />
    </symbol>
    <symbol
       id="e"
       overflow="visible">
      <path
         d="m 1.9219,-2.4375 c -0.21875,0 -0.38672,0.078125 -0.5,0.23438 -0.10547,0.15625 -0.15625,0.38281 -0.15625,0.67188 0,0.29297 0.050781,0.51562 0.15625,0.67188 0.11328,0.15625 0.28125,0.23438 0.5,0.23438 0.21875,0 0.37891,-0.078125 0.48438,-0.23438 0.11328,-0.15625 0.17188,-0.37891 0.17188,-0.67188 0,-0.28906 -0.058594,-0.51562 -0.17188,-0.67188 C 2.30081,-2.35937 2.14066,-2.4375 1.9219,-2.4375 Z m 0,-0.70312 c 0.53125,0 0.94141,0.14844 1.2344,0.4375 0.30078,0.28125 0.45312,0.67188 0.45312,1.1719 0,0.51172 -0.15234,0.90625 -0.45312,1.1875 -0.29297,0.28125 -0.70312,0.42188 -1.2344,0.42188 -0.52344,0 -0.93359,-0.14062 -1.2344,-0.42188 -0.30469,-0.28125 -0.45312,-0.67578 -0.45312,-1.1875 0,-0.5 0.14844,-0.89062 0.45312,-1.1719 0.30078,-0.28906 0.71094,-0.4375 1.2344,-0.4375 z"
         id="path8514" />
    </symbol>
    <symbol
       id="a"
       overflow="visible">
      <path
         d="M 3.5469,-1.8594 V 0 H 2.56252 v -1.4219 c 0,-0.26953 -0.00781,-0.45312 -0.015625,-0.54688 -0.011719,-0.10156 -0.03125,-0.17578 -0.0625,-0.21875 -0.042969,-0.0625 -0.09375,-0.10938 -0.15625,-0.14062 -0.0625,-0.039063 -0.13672,-0.0625 -0.21875,-0.0625 -0.21094,0 -0.37109,0.078125 -0.48438,0.23438 -0.11719,0.15625 -0.17188,0.375 -0.17188,0.65625 v 1.5 h -0.98438 v -3.0625 h 0.98438 v 0.45312 c 0.14453,-0.17578 0.30078,-0.30469 0.46875,-0.39062 0.16406,-0.09375 0.34766,-0.14062 0.54688,-0.14062 0.35156,0 0.61719,0.10938 0.79688,0.32812 0.1875,0.21875 0.28125,0.53906 0.28125,0.95312 z"
         id="path8517" />
    </symbol>
    <symbol
       id="j"
       overflow="visible">
      <path
         d="m 0.078125,-3.0625 h 0.98438 l 0.76562,2.125 0.75,-2.125 h 0.98438 L 2.359405,0 h -1.0781 z"
         id="path8520" />
    </symbol>
    <symbol
       id="i"
       overflow="visible">
      <path
         d="M 0.46875,-3.0625 H 1.45313 V 0 H 0.46875 Z m 0,-1.1875 h 0.98438 v 0.79688 H 0.46875 Z"
         id="path8523" />
    </symbol>
    <symbol
       id="h"
       overflow="visible">
      <path
         d="m 2.8594,-2.9688 v 0.75 C 2.64846,-2.31255 2.44534,-2.37896 2.25002,-2.42192 c -0.1875,-0.039063 -0.37109,-0.0625 -0.54688,-0.0625 -0.1875,0 -0.32812,0.027344 -0.42188,0.078125 -0.085938,0.042969 -0.125,0.10938 -0.125,0.20312 0,0.085937 0.03125,0.14844 0.09375,0.1875 0.070312,0.042969 0.19531,0.074219 0.375,0.09375 L 1.79689,-1.9063 c 0.5,0.0625 0.83203,0.16797 1,0.3125 0.17578,0.14844 0.26562,0.375 0.26562,0.6875 0,0.33594 -0.12109,0.58594 -0.35938,0.75 C 2.46094,-5e-5 2.10157,0.07808 1.62503,0.07808 1.42581,0.07808 1.21878,0.062455 1.00003,0.031205 0.78128,-4.5e-5 0.56253,-0.04692 0.34378,-0.109415 v -0.75 c 0.1875,0.09375 0.38281,0.16797 0.59375,0.21875 0.20703,0.042969 0.41406,0.0625 0.625,0.0625 0.1875,0 0.32812,-0.023437 0.42188,-0.078125 0.10156,-0.050781 0.15625,-0.12891 0.15625,-0.23438 0,-0.082031 -0.039063,-0.14453 -0.10938,-0.1875 C 1.96878,-1.117233 1.83597,-1.156295 1.64066,-1.18755 L 1.46878,-1.203175 c -0.4375,-0.050781 -0.74609,-0.14844 -0.92188,-0.29688 -0.16797,-0.14453 -0.25,-0.36719 -0.25,-0.67188 0,-0.32031 0.10938,-0.5625 0.32812,-0.71875 0.21875,-0.16406 0.55469,-0.25 1.0156,-0.25 0.1875,0 0.37891,0.015625 0.57812,0.046875 0.19531,0.03125 0.41016,0.074219 0.64062,0.125 z"
         id="path8526" />
    </symbol>
    <symbol
       id="g"
       overflow="visible">
      <path
         d="m 0.4375,-1.1875 v -1.875 h 0.98438 v 0.3125 0.625 0.5 c 0,0.24219 0.00391,0.41797 0.015625,0.53125 0.00781,0.10547 0.03125,0.18359 0.0625,0.23438 0.039062,0.0625 0.09375,0.11719 0.15625,0.15625 0.0625,0.03125 0.13281,0.046875 0.21875,0.046875 0.20703,0 0.36719,-0.078125 0.48438,-0.23438 0.11328,-0.15625 0.17188,-0.375 0.17188,-0.65625 v -1.5156 h 0.98438 v 3.0625 h -0.98438 v -0.4375 c -0.14844,0.17969 -0.30469,0.30859 -0.46875,0.39062 -0.16797,0.082031 -0.35156,0.125 -0.54688,0.125 -0.35547,0 -0.625,-0.10938 -0.8125,-0.32812 -0.17969,-0.21875 -0.26562,-0.53125 -0.26562,-0.9375 z"
         id="path8529" />
    </symbol>
    <symbol
       id="v"
       overflow="visible">
      <path
         d="m 3.3438,-3.9531 v 0.85938 C 3.12505,-3.18747 2.9063,-3.25778 2.68755,-3.31247 2.47661,-3.363251 2.2813,-3.390595 2.0938,-3.390595 c -0.25,0 -0.4375,0.039063 -0.5625,0.10938 -0.11719,0.0625 -0.17188,0.16797 -0.17188,0.3125 0,0.11719 0.035156,0.20312 0.10938,0.26562 0.082031,0.0625 0.23438,0.11719 0.45312,0.15625 l 0.4375,0.09375 c 0.45703,0.085937 0.78125,0.21875 0.96875,0.40625 0.19531,0.1875 0.29688,0.45312 0.29688,0.79688 0,0.44922 -0.13672,0.78125 -0.40625,1 C 2.94536,-0.031215 2.53911,0.078155 2,0.078155 1.73828,0.078155 1.47656,0.050811 1.21875,3e-5 0.95703,-0.039032 0.69531,-0.11325 0.4375,-0.21872 v -0.875 c 0.25781,0.13672 0.50781,0.24219 0.75,0.3125 0.25,0.0625 0.48438,0.09375 0.70312,0.09375 0.22656,0 0.40625,-0.035156 0.53125,-0.10938 0.125,-0.070313 0.1875,-0.17969 0.1875,-0.32812 0,-0.125 -0.042969,-0.22266 -0.125,-0.29688 -0.085937,-0.070313 -0.25,-0.13281 -0.5,-0.1875 L 1.57812,-1.7031 C 1.17187,-1.785131 0.875,-1.92185 0.6875,-2.10935 0.5,-2.30466 0.40625,-2.56638 0.40625,-2.8906 c 0,-0.40625 0.12891,-0.71875 0.39062,-0.9375 0.25781,-0.21875 0.63281,-0.32812 1.125,-0.32812 0.22656,0 0.45703,0.023438 0.6875,0.0625 0.23828,0.03125 0.48438,0.078125 0.73438,0.14062 z"
         id="path8532" />
    </symbol>
    <symbol
       id="u"
       overflow="visible">
      <path
         d="m 2.4844,-4.25 v 0.64062 H 1.93752 c -0.13672,0 -0.23047,0.027344 -0.28125,0.078125 -0.054688,0.054688 -0.078125,0.14062 -0.078125,0.26562 v 0.20312 h 0.82812 v 0.70312 H 1.578145 V 5e-6 h -0.98438 v -2.3594 h -0.48438 v -0.70312 h 0.48438 v -0.20312 c 0,-0.33203 0.09375,-0.57812 0.28125,-0.73438 0.1875,-0.16406 0.47266,-0.25 0.85938,-0.25 z"
         id="path8535" />
    </symbol>
    <symbol
       id="t"
       overflow="visible">
      <path
         d="m 3.3125,-2.5469 c 0.11328,-0.1875 0.25391,-0.33203 0.42188,-0.4375 0.17578,-0.10156 0.36719,-0.15625 0.57812,-0.15625 0.34375,0 0.60938,0.10938 0.79688,0.32812 0.1875,0.21874 0.28125,0.53906 0.28125,0.95312 V -1e-5 H 4.40625 v -1.5938 -0.0625 -0.125 c 0,-0.21875 -0.03125,-0.375 -0.09375,-0.46875 C 4.25,-2.34381 4.14453,-2.39068 4,-2.39068 c -0.1875,0 -0.33594,0.078125 -0.4375,0.23438 -0.09375,0.14844 -0.14062,0.36719 -0.14062,0.65625 v 1.5 H 2.4375 v -1.5938 c 0,-0.34375 -0.03125,-0.5625 -0.09375,-0.65625 -0.054688,-0.09375 -0.15625,-0.14062 -0.3125,-0.14062 -0.1875,0 -0.33594,0.078125 -0.4375,0.23438 C 1.5,-2.0079 1.45313,-1.78915 1.45313,-1.50009 v 1.5 H 0.46875 v -3.0625 h 0.98438 v 0.45312 c 0.11328,-0.17578 0.25,-0.30469 0.40625,-0.39062 0.15625,-0.09375 0.32812,-0.14062 0.51562,-0.14062 0.20703,0 0.39062,0.054687 0.54688,0.15625 0.16406,0.10547 0.29688,0.25 0.39062,0.4375 z"
         id="path8538" />
    </symbol>
    <symbol
       id="s"
       overflow="visible">
      <path
         d="M 3.5469,-1.8594 V 0 H 2.56252 v -1.4219 c 0,-0.26953 -0.00781,-0.45312 -0.015625,-0.54688 -0.011719,-0.10156 -0.03125,-0.17578 -0.0625,-0.21875 -0.042969,-0.0625 -0.09375,-0.10938 -0.15625,-0.14062 -0.0625,-0.039063 -0.13672,-0.0625 -0.21875,-0.0625 -0.21094,0 -0.37109,0.078125 -0.48438,0.23438 -0.11719,0.15625 -0.17188,0.375 -0.17188,0.65625 v 1.5 h -0.98438 v -4.25 h 0.98438 v 1.6406 c 0.14453,-0.17578 0.30078,-0.30469 0.46875,-0.39062 0.16406,-0.09375 0.34766,-0.14062 0.54688,-0.14062 0.35156,0 0.61719,0.10938 0.79688,0.32812 0.1875,0.21875 0.28125,0.53906 0.28125,0.95312 z"
         id="path8541" />
    </symbol>
    <symbol
       id="r"
       overflow="visible">
      <path
         d="m 0.51562,-4.0781 h 1.1719 l 1.4844,2.7969 v -2.7969 h 1 V 0 H 3.00002 L 1.51562,-2.7969 V 0 h -1 z"
         id="path8544" />
    </symbol>
    <symbol
       id="q"
       overflow="visible">
      <path
         d="m 0.51562,-4.0781 h 1.75 c 0.50781,0 0.90625,0.11719 1.1875,0.34375 0.28125,0.23047 0.42188,0.55859 0.42188,0.98438 0,0.42969 -0.14062,0.75781 -0.42188,0.98438 -0.28125,0.23047 -0.67969,0.34375 -1.1875,0.34375 H 1.5625 V 6e-5 H 0.5156 Z m 1.0469,0.76562 v 1.1406 h 0.57812 c 0.20703,0 0.36328,-0.046875 0.46875,-0.14062 0.11328,-0.10156 0.17188,-0.25 0.17188,-0.4375 0,-0.17578 -0.058594,-0.3125 -0.17188,-0.40625 C 2.50392,-3.25781 2.34767,-3.3125 2.14064,-3.3125 Z"
         id="path8547" />
    </symbol>
    <symbol
       id="p"
       overflow="visible">
      <path
         d="m 0.46875,-3.0625 h 0.98438 v 3.0156 c 0,0.40625 -0.10156,0.71094 -0.29688,0.92188 C 0.95703,1.09373 0.67187,1.2031 0.29687,1.2031 H -0.18751 V 0.56248 h 0.17188 c 0.1875,0 0.3125,-0.042969 0.375,-0.125 C 0.429683,0.351542 0.46875,0.19139 0.46875,-0.0469 Z m 0,-1.1875 h 0.98438 v 0.79688 H 0.46875 Z"
         id="path8550" />
    </symbol>
    <symbol
       id="o"
       overflow="visible">
      <path
         d="m 2.9375,-2.9688 v 0.79688 C 2.8125,-2.253951 2.67969,-2.31645 2.54688,-2.35942 2.41016,-2.410201 2.26954,-2.437545 2.125,-2.437545 c -0.27344,0 -0.48438,0.085938 -0.64062,0.25 -0.14844,0.15625 -0.21875,0.375 -0.21875,0.65625 0,0.29297 0.070313,0.51562 0.21875,0.67188 0.15625,0.15625 0.36719,0.23438 0.64062,0.23438 0.15625,0 0.30078,-0.019531 0.4375,-0.0625 0.13281,-0.039062 0.25781,-0.10938 0.375,-0.20312 v 0.79688 c -0.14844,0.0625 -0.30469,0.10156 -0.46875,0.125 C 2.3125,0.062475 2.15625,0.0781 2,0.0781 c -0.55469,0 -0.98438,-0.14062 -1.2969,-0.42188 -0.31252,-0.28126 -0.46875,-0.67578 -0.46875,-1.1875 0,-0.5 0.15625,-0.89062 0.46875,-1.1719 0.3125,-0.28906 0.74219,-0.4375 1.2969,-0.4375 0.16406,0 0.32031,0.015625 0.46875,0.046875 0.15625,0.03125 0.3125,0.074219 0.46875,0.125 z"
         id="path8553" />
    </symbol>
  </defs>
  <path
     id="path8564"
     d="m 25.841154,15.174576 c 0.001,-0.258989 -0.0999,-0.508202 -0.28238,-0.692344 -0.18202,-0.184567 -0.42995,-0.288755 -0.68894,-0.290039 -1.28727,0.04806 -1.28684,1.917518 0,1.965203 0.25899,-0.0017 0.50692,-0.105893 0.68894,-0.290039 0.18244,-0.184567 0.28366,-0.433355 0.28238,-0.69277 z m 0.11541,13.106799 h -2.17565 c -0.64642,8.71e-4 -1.26648,0.25814 -1.72362,0.715305 -0.45717,0.457165 -0.71446,1.076784 -0.71489,1.723622 v 7.862881 c 4.4e-4,0.646413 0.25772,1.266479 0.71489,1.723622 0.45716,0.457165 1.0772,0.714456 1.72362,0.71488 h 2.17565 c 0.64683,-4.35e-4 1.26647,-0.257715 1.72362,-0.71488 0.45714,-0.457165 0.71445,-1.077209 0.7153,-1.723622 v -7.862881 c -8.7e-4,-0.646838 -0.25814,-1.266479 -0.7153,-1.723622 -0.45717,-0.457143 -1.07679,-0.714456 -1.72362,-0.715305 z m -2.17565,1.951159 h 2.17565 c 0.26791,0.0034 0.48438,0.219862 0.48779,0.487789 v 2.956025 h -3.15123 v -2.956025 c 0.004,-0.267917 0.21986,-0.484382 0.48779,-0.487789 z m 2.66349,8.350616 c -0.003,0.267917 -0.21986,0.484382 -0.48779,0.48779 h -2.17565 c -0.26792,-0.0034 -0.48396,-0.219862 -0.48779,-0.48779 v -2.956024 h 3.15123 z M 24.868954,4.8713847 C 13.585714,4.8530947 4.4297938,14.254194 4.7487838,25.532638 c -0.014,0.106743 -0.01,0.214766 0.0123,0.319804 0.23432,10.492297 9.6068602,19.485461 20.1082002,19.277521 10.52082,0.207962 19.90678,-8.817994 20.11146,-19.331956 v 4.36e-4 c 0.0119,-0.07145 0.0145,-0.144165 0.008,-0.216041 0.34872,-11.29521 -8.8193,-20.7309293 -20.12018,-20.7113333 z m 0,1.951159 c 9.91649,0 18.00375,7.9806793 18.17576,17.8556863 h -7.55924 c -0.20711,-3.529767 -2.16128,-6.723562 -5.20963,-8.514792 0.0179,0.0825 -0.005,-1.822258 0.004,-1.825741 -0.0123,-3.115083 -2.67199,-5.3486503 -5.72926,-5.0913913 -1.3502,0.0013 -2.64433,0.538392 -3.59912,1.4927103 -0.9543,0.954731 -1.4914,2.248808 -1.49271,3.598681 -0.0149,0.05443 0.008,1.838043 0.004,1.825741 -3.04834,1.79123 -5.00244,4.985025 -5.20962,8.514792 H 6.6931238 C 6.8662138,14.803005 14.953164,6.8214557 24.868894,6.8214557 Z m -0.31811,14.2804123 c 2.29345,0.157349 4.2948,-0.923268 5.2474,-2.932291 v -4.36e-4 c 2.16934,1.4889 3.54338,3.884028 3.73347,6.508327 h -17.32441 c 0.19052,-2.624299 1.56457,-5.019101 3.7339,-6.507456 0.41123,0.875638 1.06275,1.616059 1.87887,2.135258 0.81652,0.519253 1.76358,0.795259 2.7311,0.796108 z m -3.14066,-5.091826 -4.4e-4,-1.672998 c 0.001,-0.832677 0.33256,-1.630865 0.92113,-2.219522 0.58901,-0.589006 1.38722,-0.91986 2.21996,-0.92071 h 0.63791 -4.3e-4 c 0.83267,8.71e-4 1.63086,0.331715 2.21995,0.92071 0.58901,0.58857 0.91986,1.386779 0.92114,2.219522 v 1.672998 c -0.001,0.832677 -0.33214,1.630865 -0.92114,2.219522 -0.589,0.589006 -1.38721,0.920285 -2.21995,0.921134 h -0.63791 4.3e-4 c -0.83267,-8.71e-4 -1.63086,-0.332139 -2.21996,-0.921134 -0.58857,-0.58857 -0.91986,-1.38678 -0.92113,-2.219522 z m 3.45878,27.168381 c -4.54487,0.01914 -8.93024,-1.672562 -12.28483,-4.739197 C 9.2296438,35.374113 7.1517638,31.157489 6.7634238,26.629062 H 42.975594 c -0.38827,4.528753 -2.46611,8.745269 -5.82114,11.811252 -3.35449,3.066635 -7.74084,4.758358 -12.28593,4.738762 z m 21.61494,-7.634364 c 0.49331,0.21689 1.0687,-0.0077 1.2852,-0.500549 C 55.097334,18.863325 42.654414,-0.20625526 24.869494,0.00168574 -8.2910662,1.3732237 -8.2888862,48.629333 24.870364,50 c 4.04777,-0.0017 8.03425,-0.984931 11.61856,-2.865881 3.5842,-1.880938 6.65802,-4.603546 8.95876,-7.933428 0.30662,-0.443132 0.19563,-1.050841 -0.24751,-1.357494 -0.44313,-0.306195 -1.05084,-0.195628 -1.35705,0.247504 -2.12122,3.070882 -4.95574,5.580868 -8.26048,7.31505 -3.3044,1.734726 -6.98038,2.641392 -10.71254,2.643025 -30.5705502,-1.263104 -30.5727302,-44.8335463 0,-46.0964323 16.39793,-0.189248 27.86842,17.3875473 21.11306,32.3081103 -0.10376,0.236879 -0.10929,0.50522 -0.0153,0.746355 0.094,0.241135 0.27983,0.435054 0.51671,0.538817 z"
     style="stroke-width:0.108869" />
</svg>
