<?xml version="1.0" encoding="UTF-8" standalone="no"?>
<svg
   width="50pt"
   height="50pt"
   version="1.1"
   viewBox="-8.5 -2 50 50"
   id="svg430"
   sodipodi:docname="shower.svg"
   inkscape:version="1.2.2 (b0a8486541, 2022-12-01)"
   xmlns:inkscape="http://www.inkscape.org/namespaces/inkscape"
   xmlns:sodipodi="http://sodipodi.sourceforge.net/DTD/sodipodi-0.dtd"
   xmlns="http://www.w3.org/2000/svg"
   xmlns:svg="http://www.w3.org/2000/svg">
  <sodipodi:namedview
     id="namedview432"
     pagecolor="#ffffff"
     bordercolor="#000000"
     borderopacity="0.25"
     inkscape:showpageshadow="2"
     inkscape:pageopacity="0.0"
     inkscape:pagecheckerboard="0"
     inkscape:deskcolor="#d1d1d1"
     inkscape:document-units="pt"
     showgrid="false"
     inkscape:zoom="7.312932"
     inkscape:cx="31.519506"
     inkscape:cy="43.621355"
     inkscape:window-width="1226"
     inkscape:window-height="1489"
     inkscape:window-x="0"
     inkscape:window-y="0"
     inkscape:window-maximized="1"
     inkscape:current-layer="svg430" />
  <defs
     id="defs332">
    <symbol
       id="v"
       overflow="visible">
      <path
         d="M 0.46875,-0.03125 C 0.445312,-0.019531 0.421875,-0.007812 0.390625,0 0.359375,0.007812 0.332031,0.015625 0.3125,0.015625 c -0.085938,0 -0.15234,-0.019531 -0.20312,-0.0625 -0.054688,-0.050781 -0.078125,-0.11719 -0.078125,-0.20312 0,-0.082031 0.023438,-0.14844 0.078125,-0.20312 0.050781,-0.050781 0.11719,-0.078125 0.20312,-0.078125 0.019531,0 0.046875,0.007812 0.078125,0.015625 0.03125,0.011719 0.054687,0.023437 0.078125,0.03125 v 0.10938 C 0.445312,-0.394516 0.421875,-0.406235 0.390625,-0.406235 0.367188,-0.414047 0.34375,-0.42186 0.3125,-0.42186 c -0.042969,0 -0.078125,0.015625 -0.10938,0.046875 -0.023437,0.023438 -0.03125,0.0625 -0.03125,0.125 0,0.054688 0.007813,0.09375 0.03125,0.125 0.03125,0.023438 0.066406,0.03125 0.10938,0.03125 h 0.078125 c 0.03125,-0.007812 0.054687,-0.019531 0.078125,-0.03125 z"
         id="path266" />
    </symbol>
    <symbol
       id="c"
       overflow="visible">
      <path
         d="M 0.34375,-0.26562 C 0.332031,-0.273433 0.320312,-0.281245 0.3125,-0.281245 0.300781,-0.289057 0.289062,-0.29687 0.28125,-0.29687 0.25,-0.29687 0.222656,-0.285151 0.203125,-0.26562 0.191406,-0.242183 0.1875,-0.210933 0.1875,-0.17187 V 1e-5 H 0.04688 v -0.375 H 0.1875 v 0.0625 C 0.195312,-0.34374 0.210938,-0.363271 0.234375,-0.37499 0.253906,-0.382802 0.28125,-0.390615 0.3125,-0.390615 h 0.03125 z"
         id="path269" />
    </symbol>
    <symbol
       id="a"
       overflow="visible">
      <path
         d="m 0.4375,-0.20312 v 0.046875 H 0.15625 c 0,0.03125 0.003906,0.054688 0.015625,0.0625 0.019531,0.011719 0.050781,0.015625 0.09375,0.015625 h 0.0625 c 0.03125,-0.0078125 0.0625,-0.023437 0.09375,-0.046875 v 0.10938 c -0.03125,0 -0.0625,0.0078125 -0.09375,0.015625 C 0.304688,0.0078225 0.28125,0.015635 0.25,0.015635 0.175781,0.015635 0.11719,1e-5 0.07812,-0.03124 0.04687,-0.070302 0.031245,-0.12499 0.031245,-0.18749 c 0,-0.0625 0.015625,-0.10938 0.046875,-0.14062 0.039063,-0.039063 0.09375,-0.0625 0.15625,-0.0625 0.0625,0 0.10938,0.023437 0.14062,0.0625 0.039062,0.03125 0.0625,0.074219 0.0625,0.125 z m -0.125,-0.03125 c 0,-0.019531 -0.011719,-0.035156 -0.03125,-0.046875 -0.011719,-0.019531 -0.027344,-0.03125 -0.046875,-0.03125 -0.023437,0 -0.042969,0.011719 -0.0625,0.03125 C 0.160156,-0.269526 0.15625,-0.253901 0.15625,-0.23437 Z"
         id="path272" />
    </symbol>
    <symbol
       id="g"
       overflow="visible">
      <path
         d="m 0.23438,-0.17188 c -0.023437,0 -0.042969,0.007813 -0.0625,0.015625 -0.011719,0.011719 -0.015625,0.023438 -0.015625,0.03125 0,0.023438 0.003906,0.039062 0.015625,0.046875 h 0.03125 c 0.03125,0 0.050781,-0.0039062 0.0625,-0.015625 0.019531,-0.019531 0.03125,-0.039062 0.03125,-0.0625 V -0.17188 Z m 0.1875,-0.046875 V -5e-6 h -0.125 V -0.04688 C 0.273443,-0.023442 0.253911,-0.007818 0.23438,-5e-6 0.210943,0.0078075 0.187505,0.01562 0.156255,0.01562 c -0.03125,0 -0.0625,-0.011719 -0.09375,-0.03125 -0.023438,-0.019531 -0.03125,-0.054688 -0.03125,-0.10938 0,-0.039062 0.015625,-0.066406 0.046875,-0.078125 0.03125,-0.019531 0.078125,-0.03125 0.14062,-0.03125 H 0.296875 V -0.25001 c 0,-0.019531 -0.011719,-0.035156 -0.03125,-0.046875 -0.011719,-0.007813 -0.03125,-0.015625 -0.0625,-0.015625 -0.03125,0 -0.058594,0.007812 -0.078125,0.015625 -0.023438,0 -0.042969,0.007813 -0.0625,0.015625 v -0.09375 h 0.078125 c 0.03125,-0.007812 0.054687,-0.015625 0.078125,-0.015625 0.070312,0 0.125,0.015625 0.15625,0.046875 0.03125,0.023438 0.046875,0.0625 0.046875,0.125 z"
         id="path275" />
    </symbol>
    <symbol
       id="b"
       overflow="visible">
      <path
         d="M 0.20312,-0.48438 V -0.375 H 0.3125 v 0.078125 H 0.20312 v 0.17188 0.03125 H 0.23437 0.312495 V 5e-6 h -0.10938 c -0.054687,0 -0.089844,-0.0078125 -0.10938,-0.03125 -0.023438,-0.019531 -0.03125,-0.050781 -0.03125,-0.09375 v -0.17188 H 0.01561 V -0.375 h 0.046875 v -0.10938 z"
         id="path278" />
    </symbol>
    <symbol
       id="l"
       overflow="visible">
      <path
         d="m 0.3125,-0.32812 v -0.20312 h 0.125 V 1e-5 H 0.3125 V -0.046865 C 0.300781,-0.023427 0.285156,-0.007803 0.265625,1e-5 0.242188,0.0078225 0.222656,0.015635 0.203125,0.015635 0.148438,0.015635 0.109375,1e-5 0.078125,-0.03124 0.046875,-0.070302 0.03125,-0.12499 0.03125,-0.18749 c 0,-0.0625 0.015625,-0.10938 0.046875,-0.14062 0.03125,-0.039063 0.070313,-0.0625 0.125,-0.0625 0.019531,0 0.039063,0.007813 0.0625,0.015625 0.019531,0.011719 0.035156,0.027344 0.046875,0.046875 z m -0.078125,0.25 c 0.019531,0 0.035156,-0.0039062 0.046875,-0.015625 0.019531,-0.019531 0.03125,-0.050781 0.03125,-0.09375 0,-0.03125 -0.011719,-0.054688 -0.03125,-0.078125 -0.011719,-0.03125 -0.027344,-0.046875 -0.046875,-0.046875 -0.023437,0 -0.042969,0.015625 -0.0625,0.046875 -0.011719,0.023437 -0.015625,0.046875 -0.015625,0.078125 0,0.042969 0.003906,0.074219 0.015625,0.09375 0.019531,0.011719 0.039063,0.015625 0.0625,0.015625 z"
         id="path281" />
    </symbol>
    <symbol
       id="k"
       overflow="visible">
      <path
         d="m 0.26562,-0.078125 c 0.03125,0 0.050781,-0.0039062 0.0625,-0.015625 0.007813,-0.019531 0.015625,-0.050781 0.015625,-0.09375 0,-0.03125 -0.007812,-0.054688 -0.015625,-0.078125 C 0.316401,-0.296875 0.29687,-0.3125 0.26562,-0.3125 c -0.03125,0 -0.054687,0.015625 -0.0625,0.046875 -0.011719,0.023437 -0.015625,0.046875 -0.015625,0.078125 0,0.03125 0.003906,0.058594 0.015625,0.078125 0.007813,0.023438 0.03125,0.03125 0.0625,0.03125 z m -0.078125,-0.25 C 0.195307,-0.347656 0.210933,-0.363281 0.23437,-0.375 c 0.019531,-0.007812 0.046875,-0.015625 0.078125,-0.015625 0.039062,0 0.078125,0.023437 0.10938,0.0625 0.03125,0.03125 0.046875,0.078125 0.046875,0.14062 0,0.062495 -0.015625,0.11719 -0.046875,0.15625 C 0.390625,-5e-6 0.351562,0.01562 0.312495,0.01562 0.281245,0.01562 0.253901,0.0078075 0.23437,-5e-6 0.210933,-0.0078175 0.195307,-0.023443 0.187495,-0.04688 V -5e-6 h -0.14062 v -0.53125 h 0.14062 z"
         id="path284" />
    </symbol>
    <symbol
       id="j"
       overflow="visible">
      <path
         d="m 0.015625,-0.375 h 0.10938 l 0.10938,0.25 0.078125,-0.25 H 0.45313 L 0.28125,0.03125 C 0.269531,0.070312 0.253906,0.101562 0.234375,0.125 0.210938,0.144531 0.179688,0.15625 0.140625,0.15625 H 0.0625 V 0.0625 h 0.046875 c 0.019531,0 0.03125,-0.0078125 0.03125,-0.015625 0.007813,0 0.019531,-0.011719 0.03125,-0.03125 z"
         id="path287" />
    </symbol>
    <symbol
       id="f"
       overflow="visible">
      <path
         d="m 0.0625,-0.51562 h 0.14062 l 0.1875,0.35938 V -0.51562 H 0.53124 V 0 H 0.37499 L 0.18749,-0.34375 V 0 h -0.125 z"
         id="path290" />
    </symbol>
    <symbol
       id="i"
       overflow="visible">
      <path
         d="m 0.35938,-0.375 v 0.10938 C 0.32813,-0.285151 0.29688,-0.29687 0.26563,-0.29687 0.242193,-0.304683 0.222661,-0.312495 0.20313,-0.312495 c -0.023437,0 -0.039063,0.007812 -0.046875,0.015625 -0.011719,0 -0.015625,0.011719 -0.015625,0.03125 0,0 0.003906,0.007813 0.015625,0.015625 0.007812,0.011719 0.023438,0.015625 0.046875,0.015625 h 0.03125 c 0.050781,0 0.085937,0.011719 0.10938,0.03125 0.019531,0.023437 0.03125,0.054687 0.03125,0.09375 0,0.042969 -0.015625,0.074219 -0.046875,0.09375 -0.023437,0.019531 -0.0625,0.03125 -0.125,0.03125 C 0.171885,0.01563 0.144541,0.0078175 0.12501,5e-6 0.101572,5e-6 0.078135,-0.0039012 0.046885,-0.01562 v -0.09375 c 0.019531,0.011719 0.039062,0.023438 0.0625,0.03125 h 0.09375 0.046875 c 0.007812,-0.0078125 0.015625,-0.019531 0.015625,-0.03125 0,-0.007813 -0.007813,-0.015625 -0.015625,-0.015625 C 0.238291,-0.132807 0.222666,-0.144526 0.203135,-0.156245 H 0.18751 c -0.0625,0 -0.10547,-0.007812 -0.125,-0.03125 C 0.039072,-0.207026 0.03126,-0.23437 0.03126,-0.26562 c 0,-0.039063 0.015625,-0.070313 0.046875,-0.09375 0.03125,-0.019531 0.070313,-0.03125 0.125,-0.03125 0.019531,0 0.039063,0.007813 0.0625,0.015625 h 0.09375 z"
         id="path293" />
    </symbol>
    <symbol
       id="e"
       overflow="visible">
      <path
         d="M 0.45312,-0.23438 V 0 H 0.3125 V -0.17188 -0.250005 -0.26563 c 0,-0.007813 -0.007812,-0.015625 -0.015625,-0.015625 -0.011719,-0.007812 -0.023437,-0.015625 -0.03125,-0.015625 -0.023437,0 -0.042969,0.011719 -0.0625,0.03125 C 0.191406,-0.242193 0.1875,-0.218755 0.1875,-0.187505 V -5e-6 H 0.04688 v -0.375 H 0.1875 V -0.32813 C 0.195312,-0.347661 0.210938,-0.363286 0.234375,-0.375005 0.253906,-0.382817 0.28125,-0.39063 0.3125,-0.39063 c 0.039062,0 0.070312,0.015625 0.09375,0.046875 0.03125,0.023438 0.046875,0.058594 0.046875,0.10938 z"
         id="path296" />
    </symbol>
    <symbol
       id="u"
       overflow="visible">
      <path
         d="m 0.046875,-0.53125 h 0.14062 v 0.29688 l 0.125,-0.14062 h 0.14062 l -0.1875,0.17188 0.21875,0.20312 H 0.328115 L 0.187495,-0.15624 V 1e-5 h -0.14062 z"
         id="path299" />
    </symbol>
    <symbol
       id="d"
       overflow="visible">
      <path
         d="m 0.23438,-0.3125 c -0.023437,0 -0.042969,0.011719 -0.0625,0.03125 -0.011719,0.023438 -0.015625,0.054688 -0.015625,0.09375 0,0.042969 0.003906,0.074219 0.015625,0.09375 0.019531,0.011719 0.039063,0.015625 0.0625,0.015625 0.03125,0 0.050781,-0.0039062 0.0625,-0.015625 0.019531,-0.019531 0.03125,-0.050781 0.03125,-0.09375 0,-0.039062 -0.011719,-0.070312 -0.03125,-0.09375 C 0.285161,-0.300781 0.26563,-0.3125 0.23438,-0.3125 Z m 0,-0.078125 c 0.070313,0 0.125,0.023437 0.15625,0.0625 0.039063,0.03125 0.0625,0.078125 0.0625,0.14062 0,0.062495 -0.023437,0.11719 -0.0625,0.15625 C 0.35938,-5e-6 0.304693,0.01562 0.23438,0.01562 0.17188,0.01562 0.11719,-5e-6 0.07813,-0.031255 0.04688,-0.070317 0.031255,-0.125005 0.031255,-0.187505 c 0,-0.0625 0.015625,-0.10938 0.046875,-0.14062 0.039063,-0.039063 0.09375,-0.0625 0.15625,-0.0625 z"
         id="path302" />
    </symbol>
    <symbol
       id="t"
       overflow="visible">
      <path
         d="m 0.25,-0.28125 c 0.03125,0 0.050781,-0.003906 0.0625,-0.015625 0.007812,-0.007813 0.015625,-0.023437 0.015625,-0.046875 0,-0.019531 -0.007813,-0.035156 -0.015625,-0.046875 C 0.300781,-0.410156 0.28125,-0.421875 0.25,-0.421875 H 0.203125 v 0.14062 z M 0.203125,-0.203125 V -5e-6 h -0.14062 v -0.51562 h 0.20312 c 0.0625,0 0.10938,0.015625 0.14062,0.046875 0.03125,0.023438 0.046875,0.054688 0.046875,0.09375 0,0.042969 -0.007813,0.074219 -0.015625,0.09375 -0.011719,0.023438 -0.039062,0.039062 -0.078125,0.046875 0.019531,0 0.035156,0.011719 0.046875,0.03125 0.007812,0.011719 0.023438,0.03125 0.046875,0.0625 L 0.531245,-5e-6 h -0.15625 l -0.046875,-0.125 C 0.316401,-0.144536 0.300776,-0.160161 0.281245,-0.17188 0.269526,-0.191411 0.253901,-0.20313 0.23437,-0.20313 Z"
         id="path305" />
    </symbol>
    <symbol
       id="h"
       overflow="visible">
      <path
         d="M 0.046875,-0.15625 V -0.375 h 0.125 v 0.03125 0.078125 0.0625 0.0625 c 0.007813,0.011719 0.015625,0.023437 0.015625,0.03125 0.007812,0.011719 0.015625,0.015625 0.015625,0.015625 h 0.03125 c 0.019531,0 0.035156,-0.0039062 0.046875,-0.015625 0.019531,-0.019531 0.03125,-0.050781 0.03125,-0.09375 v -0.17188 h 0.125 V -5e-6 H 0.3125 V -0.04688 C 0.289062,-0.023442 0.269531,-0.007818 0.25,-5e-6 0.238281,0.0078075 0.21875,0.01562 0.1875,0.01562 0.144531,0.01562 0.109375,-5e-6 0.07812,-0.031255 0.054682,-0.062505 0.04687,-0.101567 0.04687,-0.156255 Z"
         id="path308" />
    </symbol>
    <symbol
       id="s"
       overflow="visible">
      <path
         d="m 0.046875,-0.53125 h 0.14062 V 0 h -0.14062 z"
         id="path311" />
    </symbol>
    <symbol
       id="r"
       overflow="visible">
      <path
         d="m 0.3125,-0.53125 v 0.078125 H 0.234375 c -0.011719,0 -0.023437,0.007813 -0.03125,0.015625 v 0.03125 0.03125 h 0.10938 v 0.078125 H 0.203125 V 5e-6 h -0.125 v -0.29688 h -0.0625 V -0.375 h 0.0625 v -0.03125 c 0,-0.039062 0.0078125,-0.070312 0.03125,-0.09375 0.019531,-0.019531 0.054687,-0.03125 0.10938,-0.03125 z"
         id="path314" />
    </symbol>
    <symbol
       id="q"
       overflow="visible">
      <path
         d="m 0.42188,-0.3125 c 0.007813,-0.019531 0.023437,-0.035156 0.046875,-0.046875 0.019531,-0.019531 0.039062,-0.03125 0.0625,-0.03125 0.039062,0 0.070312,0.015625 0.09375,0.046875 0.03125,0.023438 0.046875,0.058594 0.046875,0.10938 V 1e-5 h -0.125 v -0.20312 -0.015625 c 0,-0.03125 -0.007813,-0.050781 -0.015625,-0.0625 0,-0.007812 -0.011719,-0.015625 -0.03125,-0.015625 -0.023438,0 -0.042969,0.011719 -0.0625,0.03125 C 0.425786,-0.242173 0.42188,-0.218735 0.42188,-0.187485 V 1.5e-5 H 0.3125 v -0.20312 C 0.3125,-0.242168 0.304688,-0.269511 0.296875,-0.28123 0.285156,-0.289042 0.269531,-0.296855 0.25,-0.296855 c -0.023438,0 -0.039062,0.011719 -0.046875,0.03125 C 0.191406,-0.242168 0.1875,-0.21873 0.1875,-0.18748 V 2e-5 H 0.04688 v -0.375 H 0.1875 v 0.046875 c 0.007812,-0.019531 0.023438,-0.035156 0.046875,-0.046875 0.019531,-0.007812 0.039063,-0.015625 0.0625,-0.015625 0.03125,0 0.050781,0.011719 0.0625,0.03125 0.019531,0.011719 0.039063,0.027344 0.0625,0.046875 z"
         id="path317" />
    </symbol>
    <symbol
       id="p"
       overflow="visible">
      <path
         d="M 0.45312,-0.23438 V 0 H 0.3125 V -0.17188 -0.250005 -0.26563 c 0,-0.007813 -0.007812,-0.015625 -0.015625,-0.015625 -0.011719,-0.007812 -0.023437,-0.015625 -0.03125,-0.015625 -0.023437,0 -0.042969,0.011719 -0.0625,0.03125 C 0.191406,-0.242193 0.1875,-0.218755 0.1875,-0.187505 V -5e-6 H 0.04688 v -0.53125 H 0.1875 v 0.20312 C 0.195312,-0.347666 0.210938,-0.363291 0.234375,-0.37501 0.253906,-0.382822 0.28125,-0.390635 0.3125,-0.390635 c 0.039062,0 0.070312,0.015625 0.09375,0.046875 0.03125,0.023438 0.046875,0.058594 0.046875,0.10938 z"
         id="path320" />
    </symbol>
    <symbol
       id="o"
       overflow="visible">
      <path
         d="m 0.0625,-0.51562 h 0.21875 c 0.0625,0 0.10938,0.015625 0.14062,0.046875 0.039063,0.03125 0.0625,0.074219 0.0625,0.125 0,0.054688 -0.023437,0.09375 -0.0625,0.125 -0.03125,0.03125 -0.078125,0.046875 -0.14062,0.046875 H 0.203125 V 1e-5 h -0.14062 z m 0.14062,0.09375 v 0.15625 h 0.0625 c 0.03125,0 0.050781,-0.003906 0.0625,-0.015625 0.007813,-0.019531 0.015625,-0.039062 0.015625,-0.0625 0,-0.019531 -0.007812,-0.035156 -0.015625,-0.046875 -0.011719,-0.019531 -0.03125,-0.03125 -0.0625,-0.03125 z"
         id="path323" />
    </symbol>
    <symbol
       id="n"
       overflow="visible">
      <path
         d="m 0.046875,-0.375 h 0.14062 v 0.35938 c 0,0.050781 -0.015625,0.09375 -0.046875,0.125 C 0.117183,0.14063 0.082026,0.156255 0.03124,0.156255 H -0.015635 V 0.062505 H -1e-5 c 0.019531,0 0.03125,-0.0078125 0.03125,-0.015625 0.0078125,0 0.015625,-0.023438 0.015625,-0.0625 z m 0,-0.15625 h 0.14062 v 0.09375 h -0.14062 z"
         id="path326" />
    </symbol>
    <symbol
       id="m"
       overflow="visible">
      <path
         d="m 0.375,-0.375 v 0.10938 C 0.351562,-0.273433 0.332031,-0.285151 0.3125,-0.29687 0.300781,-0.304683 0.285156,-0.312495 0.265625,-0.312495 c -0.03125,0 -0.058594,0.015625 -0.078125,0.046875 -0.023438,0.023437 -0.03125,0.046875 -0.03125,0.078125 0,0.03125 0.007812,0.058594 0.03125,0.078125 0.019531,0.023438 0.046875,0.03125 0.078125,0.03125 H 0.3125 C 0.332031,-0.0859325 0.351562,-0.097651 0.375,-0.10937 v 0.09375 C 0.351562,-0.003901 0.332031,5e-6 0.3125,5e-6 0.289062,0.0078175 0.269531,0.01563 0.25,0.01563 0.175781,0.01563 0.11719,5e-6 0.07812,-0.031245 0.04687,-0.070307 0.031245,-0.124995 0.031245,-0.187495 c 0,-0.0625 0.015625,-0.10938 0.046875,-0.14062 0.039063,-0.039063 0.097656,-0.0625 0.17188,-0.0625 0.019531,0 0.039062,0.007813 0.0625,0.015625 H 0.375 Z"
         id="path329" />
    </symbol>
  </defs>
  <path
     id="path753"
     style="stroke-width:0.0951363"
     inkscape:transform-center-x="-10.968102"
     inkscape:transform-center-y="-2.1585263"
     d="m -9.2249291,49.939045 v 0.01041 h 0.01041 v 0.0074 h -0.01041 v 0.01635 0.003 h 0.003 0.0074 v 0.0089 h -0.01041 c -0.0052,0 -0.0085,-7.6e-4 -0.01041,-0.003 -0.0022,-0.0019 -0.003,-0.0048 -0.003,-0.0089 v -0.01635 h -0.0045 v -0.0074 h 0.0045 v -0.01041 z m -0.02304,0.01041 v 0.01041 c -0.0022,-7.61e-4 -0.0041,-0.0019 -0.0059,-0.003 -0.0011,-7.61e-4 -0.0026,-0.0015 -0.0045,-0.0015 -0.003,0 -0.0056,0.0015 -0.0074,0.0045 -0.0022,0.0022 -0.003,0.0045 -0.003,0.0074 0,0.003 7.42e-4,0.0056 0.003,0.0074 0.0019,0.0022 0.0045,0.003 0.0074,0.003 h 0.0045 c 0.0019,-7.61e-4 0.0037,-0.0019 0.0059,-0.003 v 0.0089 c -0.0022,0.0011 -0.0041,0.0015 -0.0059,0.0015 -0.0022,7.62e-4 -0.0041,0.0015 -0.0059,0.0015 -0.0071,0 -0.01264,-0.0015 -0.01635,-0.0045 -0.003,-0.0037 -0.0045,-0.0089 -0.0045,-0.01487 0,-0.0059 0.0015,-0.01041 0.0045,-0.01338 0.0037,-0.0037 0.0093,-0.0059 0.01635,-0.0059 0.0019,0 0.0037,7.61e-4 0.0059,0.0015 h 0.0059 z m -0.03902,0.01635 v 0.0045 h -0.02676 c 0,0.003 3.71e-4,0.0052 0.0015,0.0059 0.0019,0.0011 0.0048,0.0015 0.0089,0.0015 h 0.0059 c 0.003,-7.61e-4 0.0059,-0.0022 0.0089,-0.0045 v 0.0104 c -0.003,0 -0.0059,7.62e-4 -0.0089,0.0015 -0.0022,7.61e-4 -0.0045,0.0015 -0.0074,0.0015 -0.0071,0 -0.01264,-0.0015 -0.01635,-0.0045 -0.003,-0.0037 -0.0045,-0.0089 -0.0045,-0.01487 0,-0.0059 0.0015,-0.01041 0.0045,-0.01338 0.0037,-0.0037 0.0089,-0.0059 0.01487,-0.0059 0.0059,0 0.01041,0.0022 0.01338,0.0059 0.0037,0.003 0.0059,0.0071 0.0059,0.01189 z m -0.01189,-0.003 c 0,-0.0019 -0.0011,-0.0033 -0.003,-0.0045 -0.0011,-0.0019 -0.0026,-0.003 -0.0045,-0.003 -0.0022,0 -0.0041,0.0011 -0.0059,0.003 -0.0011,0.0011 -0.0015,0.0026 -0.0015,0.0045 z m -0.04831,-0.01338 h 0.01338 v 0.03419 c 0,0.0048 -0.0015,0.0089 -0.0045,0.01189 -0.0022,0.003 -0.0056,0.0045 -0.01041,0.0045 h -0.0045 v -0.0089 h 0.0015 c 0.0019,0 0.003,-7.61e-4 0.003,-0.0015 7.42e-4,0 0.0015,-0.0022 0.0015,-0.0059 z m 0,-0.01487 h 0.01338 v 0.0089 h -0.01338 z m -0.02787,0.02081 c -0.0022,0 -0.0041,0.0011 -0.0059,0.003 -0.0011,0.0022 -0.0015,0.0052 -0.0015,0.0089 0,0.0041 3.71e-4,0.0071 0.0015,0.0089 0.0019,0.0011 0.0037,0.0015 0.0059,0.0015 0.003,0 0.0048,-3.81e-4 0.0059,-0.0015 0.0019,-0.0019 0.003,-0.0048 0.003,-0.0089 0,-0.0037 -0.0011,-0.0067 -0.003,-0.0089 -0.0011,-0.0019 -0.003,-0.003 -0.0059,-0.003 z m 0,-0.0074 c 0.0067,0 0.01189,0.0022 0.01487,0.0059 0.0037,0.003 0.0059,0.0074 0.0059,0.01338 0,0.0059 -0.0022,0.01115 -0.0059,0.01487 -0.003,0.003 -0.0082,0.0045 -0.01487,0.0045 -0.0059,0 -0.01115,-0.0015 -0.01487,-0.0045 -0.003,-0.0037 -0.0045,-0.0089 -0.0045,-0.01487 0,-0.0059 0.0015,-0.01041 0.0045,-0.01338 0.0037,-0.0037 0.0089,-0.0059 0.01487,-0.0059 z m -0.0223,0.01189 c -0.0011,-7.61e-4 -0.0022,-0.0015 -0.003,-0.0015 -0.0011,-7.61e-4 -0.0022,-0.0015 -0.003,-0.0015 -0.003,0 -0.0056,0.0011 -0.0074,0.003 -0.0011,0.0022 -0.0015,0.0052 -0.0015,0.0089 v 0.01635 h -0.01338 v -0.03568 h 0.01338 v 0.0059 c 7.42e-4,-0.003 0.0022,-0.0048 0.0045,-0.0059 0.0019,-7.61e-4 0.0045,-0.0015 0.0074,-0.0015 h 0.003 z m -0.07581,-0.02378 h 0.02081 c 0.0059,0 0.01041,0.0015 0.01338,0.0045 0.0037,0.003 0.0059,0.0071 0.0059,0.01189 0,0.0052 -0.0022,0.0089 -0.0059,0.01189 -0.003,0.003 -0.0074,0.0045 -0.01338,0.0045 h -0.0074 v 0.01635 h -0.01338 z m 0.01338,0.0089 v 0.01487 h 0.0059 c 0.003,0 0.0048,-3.8e-4 0.0059,-0.0015 7.42e-4,-0.0019 0.0015,-0.0037 0.0015,-0.0059 0,-0.0019 -7.42e-4,-0.0033 -0.0015,-0.0045 -0.0011,-0.0019 -0.003,-0.003 -0.0059,-0.003 z m -0.04682,0.01784 v 0.0223 h -0.01338 v -0.01635 -0.0074 -0.0015 c 0,-7.61e-4 -7.42e-4,-0.0015 -0.0015,-0.0015 -0.0011,-7.61e-4 -0.0022,-0.0015 -0.003,-0.0015 -0.0022,0 -0.0041,0.0011 -0.0059,0.003 -0.0011,0.0022 -0.0015,0.0045 -0.0015,0.0074 v 0.01784 h -0.01338 v -0.03568 h 0.01338 v 0.0045 c 7.43e-4,-0.0019 0.0022,-0.0033 0.0045,-0.0045 0.0019,-7.6e-4 0.0045,-0.0015 0.0074,-0.0015 0.0037,0 0.0067,0.0015 0.0089,0.0045 0.003,0.0022 0.0045,0.0056 0.0045,0.01041 z m -0.08585,0.0074 v -0.02081 h 0.01189 v 0.003 0.0074 0.0059 0.0059 c 7.42e-4,0.0011 0.0015,0.0022 0.0015,0.003 7.42e-4,0.0011 0.0015,0.0015 0.0015,0.0015 h 0.003 c 0.0019,0 0.0033,-3.8e-4 0.0045,-0.0015 0.0019,-0.0019 0.003,-0.0048 0.003,-0.0089 v -0.01635 h 0.01189 v 0.03568 h -0.01189 v -0.0045 c -0.0022,0.0022 -0.0041,0.0037 -0.0059,0.0045 -0.0011,7.61e-4 -0.003,0.0015 -0.0059,0.0015 -0.0041,0 -0.0074,-0.0015 -0.01041,-0.0045 -0.0022,-0.003 -0.003,-0.0067 -0.003,-0.01189 z m -0.02787,-0.01486 c -0.0022,0 -0.0041,0.0011 -0.0059,0.003 -0.0011,0.0022 -0.0015,0.0052 -0.0015,0.0089 0,0.0041 3.71e-4,0.0071 0.0015,0.0089 0.0019,0.0011 0.0037,0.0015 0.0059,0.0015 0.003,0 0.0048,-3.8e-4 0.0059,-0.0015 0.0019,-0.0019 0.003,-0.0048 0.003,-0.0089 0,-0.0037 -0.0011,-0.0067 -0.003,-0.0089 -0.0011,-0.0019 -0.003,-0.003 -0.0059,-0.003 z m 0,-0.0074 c 0.0067,0 0.01189,0.0022 0.01487,0.0059 0.0037,0.003 0.0059,0.0074 0.0059,0.01338 0,0.0059 -0.0022,0.01115 -0.0059,0.01487 -0.003,0.003 -0.0082,0.0045 -0.01487,0.0045 -0.0059,0 -0.01115,-0.0015 -0.01487,-0.0045 -0.003,-0.0037 -0.0045,-0.0089 -0.0045,-0.01487 0,-0.0059 0.0015,-0.01041 0.0045,-0.01338 0.0037,-0.0037 0.0089,-0.0059 0.01487,-0.0059 z m -0.0721,-0.01189 h 0.01338 l 0.01784,0.03419 v -0.03419 h 0.01338 v 0.04905 h -0.01487 l -0.01784,-0.0327 v 0.0327 h -0.01189 z m -0.0327,0.02973 v 0.0045 h -0.02676 c 0,0.003 3.71e-4,0.0052 0.0015,0.0059 0.0019,0.0011 0.0048,0.0015 0.0089,0.0015 h 0.0059 c 0.003,-7.61e-4 0.0059,-0.0022 0.0089,-0.0045 v 0.0104 c -0.003,0 -0.0059,7.62e-4 -0.0089,0.0015 -0.0022,7.61e-4 -0.0045,0.0015 -0.0074,0.0015 -0.0071,0 -0.01264,-0.0015 -0.01635,-0.0045 -0.003,-0.0037 -0.0045,-0.0089 -0.0045,-0.01487 0,-0.0059 0.0015,-0.01041 0.0045,-0.01338 0.0037,-0.0037 0.0089,-0.0059 0.01487,-0.0059 0.0059,0 0.01041,0.0022 0.01338,0.0059 0.0037,0.003 0.0059,0.0071 0.0059,0.01189 z m -0.01189,-0.003 c 0,-0.0019 -0.0011,-0.0033 -0.003,-0.0045 -0.0011,-0.0019 -0.0026,-0.003 -0.0045,-0.003 -0.0022,0 -0.0041,0.0011 -0.0059,0.003 -0.0011,0.0011 -0.0015,0.0026 -0.0015,0.0045 z m -0.03419,0 v 0.0223 h -0.01338 v -0.01635 -0.0074 -0.0015 c 0,-7.61e-4 -7.42e-4,-0.0015 -0.0015,-0.0015 -0.0011,-7.61e-4 -0.0022,-0.0015 -0.003,-0.0015 -0.0022,0 -0.0041,0.0011 -0.0059,0.003 -0.0011,0.0022 -0.0015,0.0045 -0.0015,0.0074 v 0.01784 h -0.01338 v -0.05054 h 0.01338 v 0.01932 c 7.42e-4,-0.0019 0.0022,-0.0033 0.0045,-0.0045 0.0019,-7.61e-4 0.0045,-0.0015 0.0074,-0.0015 0.0037,0 0.0067,0.0015 0.0089,0.0045 0.003,0.0022 0.0045,0.0056 0.0045,0.01041 z m -0.05537,-0.02378 v 0.01041 h 0.01041 v 0.0074 h -0.01041 v 0.01635 0.003 h 0.003 0.0074 v 0.0089 h -0.01041 c -0.0052,0 -0.0085,-7.6e-4 -0.01041,-0.003 -0.0022,-0.0019 -0.003,-0.0048 -0.003,-0.0089 v -0.01635 h -0.0045 v -0.0074 h 0.0045 v -0.01041 z m -0.0721,0.01635 c 7.42e-4,-0.0019 0.0022,-0.0033 0.0045,-0.0045 0.0019,-0.0019 0.0037,-0.003 0.0059,-0.003 0.0037,0 0.0067,0.0015 0.0089,0.0045 0.003,0.0022 0.0045,0.0056 0.0045,0.01041 v 0.0223 h -0.01189 v -0.01932 -0.0015 c 0,-0.003 -7.42e-4,-0.0048 -0.0015,-0.0059 0,-7.62e-4 -0.0011,-0.0015 -0.003,-0.0015 -0.0022,0 -0.0041,0.0011 -0.0059,0.003 -0.0011,0.0022 -0.0015,0.0045 -0.0015,0.0074 v 0.01784 h -0.01041 v -0.01932 c 0,-0.0037 -7.42e-4,-0.0063 -0.0015,-0.0074 -0.0011,-7.61e-4 -0.0026,-0.0015 -0.0045,-0.0015 -0.0022,0 -0.0037,0.0011 -0.0045,0.003 -0.0011,0.0022 -0.0015,0.0045 -0.0015,0.0074 v 0.01784 h -0.01338 v -0.03568 h 0.01338 v 0.0045 c 7.42e-4,-0.0019 0.0022,-0.0033 0.0045,-0.0045 0.0019,-7.61e-4 0.0037,-0.0015 0.0059,-0.0015 0.003,0 0.0048,0.0011 0.0059,0.003 0.0019,0.0011 0.0037,0.0026 0.0059,0.0045 z m -0.06355,0 c -0.0022,0 -0.0041,0.0011 -0.0059,0.003 -0.0011,0.0022 -0.0015,0.0052 -0.0015,0.0089 0,0.0041 3.71e-4,0.0071 0.0015,0.0089 0.0019,0.0011 0.0037,0.0015 0.0059,0.0015 0.003,0 0.0048,-3.81e-4 0.0059,-0.0015 0.0019,-0.0019 0.003,-0.0048 0.003,-0.0089 0,-0.0037 -0.0011,-0.0067 -0.003,-0.0089 -0.0011,-0.0019 -0.003,-0.003 -0.0059,-0.003 z m 0,-0.0074 c 0.0067,0 0.01189,0.0022 0.01487,0.0059 0.0037,0.003 0.0059,0.0074 0.0059,0.01338 0,0.0059 -0.0022,0.01115 -0.0059,0.01487 -0.003,0.003 -0.0082,0.0045 -0.01487,0.0045 -0.0059,0 -0.01115,-0.0015 -0.01487,-0.0045 -0.003,-0.0037 -0.0045,-0.0089 -0.0045,-0.01487 0,-0.0059 0.0015,-0.01041 0.0045,-0.01338 0.0037,-0.0037 0.0089,-0.0059 0.01487,-0.0059 z m -0.0223,0.01189 c -0.0011,-7.61e-4 -0.0022,-0.0015 -0.003,-0.0015 -0.0011,-7.61e-4 -0.0022,-0.0015 -0.003,-0.0015 -0.003,0 -0.0056,0.0011 -0.0074,0.003 -0.0011,0.0022 -0.0015,0.0052 -0.0015,0.0089 v 0.01635 h -0.01338 v -0.03568 h 0.01338 v 0.0059 c 7.42e-4,-0.003 0.0022,-0.0048 0.0045,-0.0059 0.0019,-7.61e-4 0.0045,-0.0015 0.0074,-0.0015 h 0.003 z m -0.03196,-0.02528 v 0.0074 h -0.0074 c -0.0011,0 -0.0022,7.6e-4 -0.003,0.0015 v 0.003 0.003 h 0.01041 v 0.0074 h -0.01041 v 0.02824 h -0.01189 v -0.02824 h -0.0059 v -0.0074 h 0.0059 v -0.003 c 0,-0.0037 7.42e-4,-0.0067 0.003,-0.0089 0.0019,-0.0019 0.0052,-0.003 0.01041,-0.003 z m 1.1096749,-0.03828 v 0.0223 h -0.01338 v -0.01635 -0.0074 -0.0015 c 0,-7.61e-4 -7.42e-4,-0.0015 -0.0015,-0.0015 -0.0011,-7.61e-4 -0.0022,-0.0015 -0.003,-0.0015 -0.0022,0 -0.0041,0.0011 -0.0059,0.003 -0.0011,0.0022 -0.0015,0.0045 -0.0015,0.0074 v 0.01784 h -0.01338 v -0.03568 h 0.01338 v 0.0045 c 7.42e-4,-0.0019 0.0022,-0.0033 0.0045,-0.0045 0.0019,-7.61e-4 0.0045,-0.0015 0.0074,-0.0015 0.0037,0 0.0067,0.0015 0.0089,0.0045 0.003,0.0022 0.0045,0.0056 0.0045,0.01041 z m -0.06578,0.0059 c -0.0022,0 -0.0041,7.6e-4 -0.0059,0.0015 -0.0011,0.0011 -0.0015,0.0022 -0.0015,0.003 0,0.0022 3.71e-4,0.0037 0.0015,0.0045 h 0.003 c 0.003,0 0.0048,-3.8e-4 0.0059,-0.0015 0.0019,-0.0019 0.003,-0.0037 0.003,-0.0059 v -0.0015 z m 0.01784,-0.0045 v 0.02081 h -0.01189 v -0.0045 c -0.0022,0.0022 -0.0041,0.0037 -0.0059,0.0045 -0.0022,7.61e-4 -0.0045,0.0015 -0.0074,0.0015 -0.003,0 -0.0059,-0.0011 -0.0089,-0.003 -0.0022,-0.0019 -0.003,-0.0052 -0.003,-0.01041 0,-0.0037 0.0015,-0.0063 0.0045,-0.0074 0.003,-0.0019 0.0074,-0.003 0.01338,-0.003 h 0.0074 v -0.0015 c 0,-0.0019 -0.0011,-0.0033 -0.003,-0.0045 -0.0011,-7.61e-4 -0.003,-0.0015 -0.0059,-0.0015 -0.003,0 -0.0056,7.6e-4 -0.0074,0.0015 -0.0022,0 -0.0041,7.6e-4 -0.0059,0.0015 v -0.0089 h 0.0074 c 0.003,-7.61e-4 0.0052,-0.0015 0.0074,-0.0015 0.0067,0 0.01189,0.0015 0.01487,0.0045 0.003,0.0022 0.0045,0.0059 0.0045,0.01189 z m -0.05872,-0.02973 h 0.01338 v 0.05054 h -0.01338 z m -0.0097,0.01487 v 0.01041 c -0.003,-0.0019 -0.0059,-0.003 -0.0089,-0.003 -0.0022,-7.61e-4 -0.0041,-0.0015 -0.0059,-0.0015 -0.0022,0 -0.0037,7.6e-4 -0.0045,0.0015 -0.0011,0 -0.0015,0.0011 -0.0015,0.003 0,0 3.71e-4,7.6e-4 0.0015,0.0015 7.42e-4,0.0011 0.0022,0.0015 0.0045,0.0015 h 0.003 c 0.0048,0 0.0082,0.0011 0.01041,0.003 0.0019,0.0022 0.003,0.0052 0.003,0.0089 0,0.0041 -0.0015,0.0071 -0.0045,0.0089 -0.0022,0.0019 -0.0059,0.003 -0.01189,0.003 -0.003,0 -0.0056,-7.62e-4 -0.0074,-0.0015 -0.0022,0 -0.0045,-3.8e-4 -0.0074,-0.0015 v -0.0089 c 0.0019,0.0011 0.0037,0.0022 0.0059,0.003 h 0.0089 0.0045 c 7.42e-4,-7.61e-4 0.0015,-0.0019 0.0015,-0.003 0,-7.61e-4 -7.42e-4,-0.0015 -0.0015,-0.0015 -0.0011,-7.61e-4 -0.0026,-0.0019 -0.0045,-0.003 h -0.0015 c -0.0059,0 -0.01003,-7.6e-4 -0.01189,-0.003 -0.0022,-0.0019 -0.003,-0.0045 -0.003,-0.0074 0,-0.0037 0.0015,-0.0067 0.0045,-0.0089 0.003,-0.0019 0.0067,-0.003 0.01189,-0.003 0.0019,0 0.0037,7.61e-4 0.0059,0.0015 h 0.0089 z m -0.0773,0.02081 v -0.02081 h 0.01189 v 0.003 0.0074 0.0059 0.0059 c 7.42e-4,0.0011 0.0015,0.0022 0.0015,0.003 7.42e-4,0.0011 0.0015,0.0015 0.0015,0.0015 h 0.003 c 0.0019,0 0.0033,-3.81e-4 0.0045,-0.0015 0.0019,-0.0019 0.003,-0.0048 0.003,-0.0089 v -0.01635 h 0.01189 v 0.03568 h -0.01189 v -0.0045 c -0.0022,0.0022 -0.0041,0.0037 -0.0059,0.0045 -0.0011,7.61e-4 -0.003,0.0015 -0.0059,0.0015 -0.0041,0 -0.0074,-0.0015 -0.01041,-0.0045 -0.0022,-0.003 -0.003,-0.0067 -0.003,-0.01189 z m -0.03196,-0.01189 c 0.003,0 0.0048,-3.8e-4 0.0059,-0.0015 7.43e-4,-7.6e-4 0.0015,-0.0022 0.0015,-0.0045 0,-0.0019 -7.42e-4,-0.0033 -0.0015,-0.0045 -0.0011,-0.0019 -0.003,-0.003 -0.0059,-0.003 h -0.0045 v 0.01338 z m -0.0045,0.0074 v 0.01932 h -0.01338 v -0.04905 h 0.01932 c 0.0059,0 0.01041,0.0015 0.01338,0.0045 0.003,0.0022 0.0045,0.0052 0.0045,0.0089 0,0.0041 -7.43e-4,0.0071 -0.0015,0.0089 -0.0011,0.0022 -0.0037,0.0037 -0.0074,0.0045 0.0019,0 0.0033,0.0011 0.0045,0.003 7.42e-4,0.0011 0.0022,0.003 0.0045,0.0059 l 0.0074,0.01338 h -0.01487 l -0.0045,-0.01189 c -0.0011,-0.0019 -0.0026,-0.0033 -0.0045,-0.0045 -0.0011,-0.0019 -0.0026,-0.003 -0.0045,-0.003 z m -0.06578,-0.01041 c -0.0022,0 -0.0041,0.0011 -0.0059,0.003 -0.0011,0.0022 -0.0015,0.0052 -0.0015,0.0089 0,0.0041 3.71e-4,0.0071 0.0015,0.0089 0.0019,0.0011 0.0037,0.0015 0.0059,0.0015 0.003,0 0.0048,-3.8e-4 0.0059,-0.0015 0.0019,-0.0019 0.003,-0.0048 0.003,-0.0089 0,-0.0037 -0.0011,-0.0067 -0.003,-0.0089 -0.0011,-0.0019 -0.003,-0.003 -0.0059,-0.003 z m 0,-0.0074 c 0.0067,0 0.01189,0.0022 0.01487,0.0059 0.0037,0.003 0.0059,0.0074 0.0059,0.01338 0,0.0059 -0.0022,0.01115 -0.0059,0.01487 -0.003,0.003 -0.0082,0.0045 -0.01487,0.0045 -0.0059,0 -0.01115,-0.0015 -0.01487,-0.0045 -0.003,-0.0037 -0.0045,-0.0089 -0.0045,-0.01487 0,-0.0059 0.0015,-0.01041 0.0045,-0.01338 0.0037,-0.0037 0.0089,-0.0059 0.01487,-0.0059 z m -0.06206,-0.01338 h 0.01338 v 0.02824 l 0.01189,-0.01338 h 0.01338 l -0.01784,0.01635 0.02081,0.01932 h -0.01487 l -0.01338,-0.01487 v 0.01487 h -0.01338 z m -0.0089,0.02824 v 0.0223 h -0.01338 v -0.01635 -0.0074 -0.0015 c 0,-7.6e-4 -7.42e-4,-0.0015 -0.0015,-0.0015 -0.0011,-7.6e-4 -0.0022,-0.0015 -0.003,-0.0015 -0.0022,0 -0.0041,0.0011 -0.0059,0.003 -0.0011,0.0022 -0.0015,0.0045 -0.0015,0.0074 v 0.01784 h -0.01338 v -0.03568 h 0.01338 v 0.0045 c 7.42e-4,-0.0019 0.0022,-0.0033 0.0045,-0.0045 0.0019,-7.61e-4 0.0045,-0.0015 0.0074,-0.0015 0.0037,0 0.0067,0.0015 0.0089,0.0045 0.003,0.0022 0.0045,0.0056 0.0045,0.01041 z m -0.04682,0.003 v 0.0045 h -0.02676 c 0,0.003 3.71e-4,0.0052 0.0015,0.0059 0.0019,0.0011 0.0048,0.0015 0.0089,0.0015 h 0.0059 c 0.003,-7.61e-4 0.0059,-0.0022 0.0089,-0.0045 v 0.01041 c -0.003,0 -0.0059,7.61e-4 -0.0089,0.0015 -0.0022,7.61e-4 -0.0045,0.0015 -0.0074,0.0015 -0.0071,0 -0.01264,-0.0015 -0.01635,-0.0045 -0.003,-0.0037 -0.0045,-0.0089 -0.0045,-0.01487 0,-0.0059 0.0015,-0.01041 0.0045,-0.01338 0.0037,-0.0037 0.0089,-0.0059 0.01487,-0.0059 0.0059,0 0.01041,0.0022 0.01338,0.0059 0.0037,0.003 0.0059,0.0071 0.0059,0.01189 z m -0.01189,-0.003 c 0,-0.0019 -0.0011,-0.0033 -0.003,-0.0045 -0.0011,-0.0019 -0.0026,-0.003 -0.0045,-0.003 -0.0022,0 -0.0041,0.0011 -0.0059,0.003 -0.0011,0.0011 -0.0015,0.0026 -0.0015,0.0045 z m -0.02973,-0.003 c -0.0011,-7.62e-4 -0.0022,-0.0015 -0.003,-0.0015 -0.0011,-7.6e-4 -0.0022,-0.0015 -0.003,-0.0015 -0.003,0 -0.0056,0.0011 -0.0074,0.003 -0.0011,0.0022 -0.0015,0.0052 -0.0015,0.0089 v 0.01635 h -0.01338 v -0.03568 h 0.01338 v 0.0059 c 7.42e-4,-0.003 0.0022,-0.0048 0.0045,-0.0059 0.0019,-7.6e-4 0.0045,-0.0015 0.0074,-0.0015 h 0.003 z m -0.03605,0.0059 v 0.0045 h -0.02676 c 0,0.003 3.71e-4,0.0052 0.0015,0.0059 0.0019,0.0011 0.0048,0.0015 0.0089,0.0015 h 0.0059 c 0.003,-7.61e-4 0.0059,-0.0022 0.0089,-0.0045 v 0.01041 c -0.003,0 -0.0059,7.61e-4 -0.0089,0.0015 -0.0022,7.61e-4 -0.0045,0.0015 -0.0074,0.0015 -0.0071,0 -0.01264,-0.0015 -0.01635,-0.0045 -0.003,-0.0037 -0.0045,-0.0089 -0.0045,-0.01487 0,-0.0059 0.0015,-0.01041 0.0045,-0.01338 0.0037,-0.0037 0.0089,-0.0059 0.01487,-0.0059 0.0059,0 0.01041,0.0022 0.01338,0.0059 0.0037,0.003 0.0059,0.0071 0.0059,0.01189 z m -0.01189,-0.003 c 0,-0.0019 -0.0011,-0.0033 -0.003,-0.0045 -0.0011,-0.0019 -0.0026,-0.003 -0.0045,-0.003 -0.0022,0 -0.0041,0.0011 -0.0059,0.003 -0.0011,0.0011 -0.0015,0.0026 -0.0015,0.0045 z m -0.04237,-0.02378 v 0.01041 h 0.01041 v 0.0074 h -0.01041 v 0.01635 0.003 h 0.003 0.0074 v 0.0089 h -0.01041 c -0.0052,0 -0.0085,-7.61e-4 -0.01041,-0.003 -0.0022,-0.0019 -0.003,-0.0048 -0.003,-0.0089 v -0.01635 h -0.0045 v -0.0074 h 0.0045 v -0.01041 z m -0.0249,0.01041 v 0.01041 c -0.003,-0.0019 -0.0059,-0.003 -0.0089,-0.003 -0.0022,-7.61e-4 -0.0041,-0.0015 -0.0059,-0.0015 -0.0022,0 -0.0037,7.61e-4 -0.0045,0.0015 -0.0011,0 -0.0015,0.0011 -0.0015,0.003 0,0 3.71e-4,7.61e-4 0.0015,0.0015 7.42e-4,0.0011 0.0022,0.0015 0.0045,0.0015 h 0.003 c 0.0048,0 0.0082,0.0011 0.01041,0.003 0.0019,0.0022 0.003,0.0052 0.003,0.0089 0,0.0041 -0.0015,0.0071 -0.0045,0.0089 -0.0022,0.0019 -0.0059,0.003 -0.01189,0.003 -0.003,0 -0.0056,-7.61e-4 -0.0074,-0.0015 -0.0022,0 -0.0045,-3.81e-4 -0.0074,-0.0015 v -0.0089 c 0.0019,0.0011 0.0037,0.0022 0.0059,0.003 h 0.0089 0.0045 c 7.42e-4,-7.61e-4 0.0015,-0.0019 0.0015,-0.003 0,-7.61e-4 -7.42e-4,-0.0015 -0.0015,-0.0015 -0.0011,-7.61e-4 -0.0026,-0.0019 -0.0045,-0.003 h -0.0015 c -0.0059,0 -0.01003,-7.61e-4 -0.01189,-0.003 -0.0022,-0.0019 -0.003,-0.0045 -0.003,-0.0074 0,-0.0037 0.0015,-0.0067 0.0045,-0.0089 0.003,-0.0019 0.0067,-0.003 0.01189,-0.003 0.0019,0 0.0037,7.61e-4 0.0059,0.0015 h 0.0089 z m -0.03754,0.01635 v 0.0045 h -0.02676 c 0,0.003 3.71e-4,0.0052 0.0015,0.0059 0.0019,0.0011 0.0048,0.0015 0.0089,0.0015 h 0.0059 c 0.003,-7.61e-4 0.0059,-0.0022 0.0089,-0.0045 v 0.01041 c -0.003,0 -0.0059,7.61e-4 -0.0089,0.0015 -0.0022,7.61e-4 -0.0045,0.0015 -0.0074,0.0015 -0.0071,0 -0.01264,-0.0015 -0.01635,-0.0045 -0.003,-0.0037 -0.0045,-0.0089 -0.0045,-0.01487 0,-0.0059 0.0015,-0.01041 0.0045,-0.01338 0.0037,-0.0037 0.0089,-0.0059 0.01487,-0.0059 0.0059,0 0.01041,0.0022 0.01338,0.0059 0.0037,0.003 0.0059,0.0071 0.0059,0.01189 z m -0.01189,-0.003 c 0,-0.0019 -0.0011,-0.0033 -0.003,-0.0045 -0.0011,-0.0019 -0.0026,-0.003 -0.0045,-0.003 -0.0022,0 -0.0041,0.0011 -0.0059,0.003 -0.0011,0.0011 -0.0015,0.0026 -0.0015,0.0045 z m -0.07953,-0.02678 h 0.01338 l 0.01784,0.03419 v -0.03419 h 0.01338 v 0.04905 h -0.01487 l -0.01784,-0.0327 v 0.0327 h -0.01189 z m -0.07135,0.01338 h 0.01041 l 0.01041,0.02378 0.0074,-0.02378 h 0.01338 l -0.01635,0.03865 c -0.0011,0.0037 -0.0026,0.0067 -0.0045,0.0089 -0.0022,0.0019 -0.0052,0.003 -0.0089,0.003 h -0.0074 v -0.0089 h 0.0045 c 0.0019,0 0.003,-7.61e-4 0.003,-0.0015 7.42e-4,0 0.0019,-0.0011 0.003,-0.003 z m -0.02378,0.02824 c 0.003,0 0.0048,-3.8e-4 0.0059,-0.0015 7.43e-4,-0.0019 0.0015,-0.0048 0.0015,-0.0089 0,-0.003 -7.42e-4,-0.0052 -0.0015,-0.0074 -0.0011,-0.003 -0.003,-0.0045 -0.0059,-0.0045 -0.003,0 -0.0052,0.0015 -0.0059,0.0045 -0.0011,0.0022 -0.0015,0.0045 -0.0015,0.0074 0,0.003 3.72e-4,0.0056 0.0015,0.0074 7.43e-4,0.0022 0.003,0.003 0.0059,0.003 z m -0.0074,-0.02378 c 7.43e-4,-0.0019 0.0022,-0.0033 0.0045,-0.0045 0.0019,-7.61e-4 0.0045,-0.0015 0.0074,-0.0015 0.0037,0 0.0074,0.0022 0.01041,0.0059 0.003,0.003 0.0045,0.0074 0.0045,0.01338 0,0.0059 -0.0015,0.01115 -0.0045,0.01487 -0.003,0.003 -0.0067,0.0045 -0.01041,0.0045 -0.003,0 -0.0056,-7.61e-4 -0.0074,-0.0015 -0.0022,-7.61e-4 -0.0037,-0.0022 -0.0045,-0.0045 v 0.0045 h -0.01338 v -0.05054 h 0.01338 z m -0.05872,0 v -0.01932 h 0.01189 v 0.05054 h -0.01189 v -0.0045 c -0.0011,0.0022 -0.0026,0.0037 -0.0045,0.0045 -0.0022,7.61e-4 -0.0041,0.0015 -0.0059,0.0015 -0.0052,0 -0.0089,-0.0015 -0.01189,-0.0045 -0.003,-0.0037 -0.0045,-0.0089 -0.0045,-0.01487 0,-0.0059 0.0015,-0.01041 0.0045,-0.01338 0.003,-0.0037 0.0067,-0.0059 0.01189,-0.0059 0.0019,0 0.0037,7.61e-4 0.0059,0.0015 0.0019,0.0011 0.0033,0.0026 0.0045,0.0045 z m -0.0074,0.02378 c 0.0019,0 0.0033,-3.8e-4 0.0045,-0.0015 0.0019,-0.0019 0.003,-0.0048 0.003,-0.0089 0,-0.003 -0.0011,-0.0052 -0.003,-0.0074 -0.0011,-0.003 -0.0026,-0.0045 -0.0045,-0.0045 -0.0022,0 -0.0041,0.0015 -0.0059,0.0045 -0.0011,0.0022 -0.0015,0.0045 -0.0015,0.0074 0,0.0041 3.71e-4,0.0071 0.0015,0.0089 0.0019,0.0011 0.0037,0.0015 0.0059,0.0015 z m -0.02601,-0.01189 v 0.0045 h -0.02676 c 0,0.003 3.71e-4,0.0052 0.0015,0.0059 0.0019,0.0011 0.0048,0.0015 0.0089,0.0015 h 0.0059 c 0.003,-7.61e-4 0.0059,-0.0022 0.0089,-0.0045 v 0.01041 c -0.003,0 -0.0059,7.61e-4 -0.0089,0.0015 -0.0022,7.61e-4 -0.0045,0.0015 -0.0074,0.0015 -0.0071,0 -0.01264,-0.0015 -0.01635,-0.0045 -0.003,-0.0037 -0.0045,-0.0089 -0.0045,-0.01487 0,-0.0059 0.0015,-0.01041 0.0045,-0.01338 0.0037,-0.0037 0.0089,-0.0059 0.01487,-0.0059 0.0059,0 0.01041,0.0022 0.01338,0.0059 0.0037,0.003 0.0059,0.0071 0.0059,0.01189 z m -0.01189,-0.003 c 0,-0.0019 -0.0011,-0.0033 -0.003,-0.0045 -0.0011,-0.0019 -0.0026,-0.003 -0.0045,-0.003 -0.0022,0 -0.0041,0.0011 -0.0059,0.003 -0.0011,0.0011 -0.0015,0.0026 -0.0015,0.0045 z m -0.04237,-0.02379 v 0.01041 h 0.01041 v 0.0074 h -0.01041 v 0.01635 0.003 h 0.003 0.0074 v 0.0089 h -0.01041 c -0.0052,0 -0.0085,-7.62e-4 -0.01041,-0.003 -0.0022,-0.0019 -0.003,-0.0048 -0.003,-0.0089 v -0.01635 h -0.0045 v -0.0074 h 0.0045 v -0.01041 z m -0.04199,0.02973 c -0.0022,0 -0.0041,7.61e-4 -0.0059,0.0015 -0.0011,0.0011 -0.0015,0.0022 -0.0015,0.003 0,0.0022 3.71e-4,0.0037 0.0015,0.0045 h 0.003 c 0.003,0 0.0048,-3.8e-4 0.0059,-0.0015 0.0019,-0.0019 0.003,-0.0037 0.003,-0.0059 v -0.0015 z m 0.01784,-0.0045 v 0.02081 h -0.01189 v -0.0045 c -0.0022,0.0022 -0.0041,0.0037 -0.0059,0.0045 -0.0022,7.61e-4 -0.0045,0.0015 -0.0074,0.0015 -0.003,0 -0.0059,-0.0011 -0.0089,-0.003 -0.0022,-0.0019 -0.003,-0.0052 -0.003,-0.01041 0,-0.0037 0.0015,-0.0063 0.0045,-0.0074 0.003,-0.0019 0.0074,-0.003 0.01338,-0.003 h 0.0074 v -0.0015 c 0,-0.0019 -0.0011,-0.0033 -0.003,-0.0045 -0.0011,-7.62e-4 -0.003,-0.0015 -0.0059,-0.0015 -0.003,0 -0.0056,7.61e-4 -0.0074,0.0015 -0.0022,0 -0.0041,7.61e-4 -0.0059,0.0015 v -0.0089 h 0.0074 c 0.003,-7.61e-4 0.0052,-0.0015 0.0074,-0.0015 0.0067,0 0.01189,0.0015 0.01487,0.0045 0.003,0.0022 0.0045,0.0059 0.0045,0.01189 z m -0.04348,0.0015 v 0.0045 h -0.02676 c 0,0.003 3.71e-4,0.0052 0.0015,0.0059 0.0019,0.0011 0.0048,0.0015 0.0089,0.0015 h 0.0059 c 0.003,-7.61e-4 0.0059,-0.0022 0.0089,-0.0045 v 0.01041 c -0.003,0 -0.0059,7.61e-4 -0.0089,0.0015 -0.0022,7.61e-4 -0.0045,0.0015 -0.0074,0.0015 -0.0071,0 -0.01264,-0.0015 -0.01635,-0.0045 -0.003,-0.0037 -0.0045,-0.0089 -0.0045,-0.01487 0,-0.0059 0.0015,-0.01041 0.0045,-0.01338 0.0037,-0.0037 0.0089,-0.0059 0.01487,-0.0059 0.0059,0 0.01041,0.0022 0.01338,0.0059 0.0037,0.003 0.0059,0.0071 0.0059,0.01189 z m -0.01189,-0.003 c 0,-0.0019 -0.0011,-0.0033 -0.003,-0.0045 -0.0011,-0.0019 -0.0026,-0.003 -0.0045,-0.003 -0.0022,0 -0.0041,0.0011 -0.0059,0.003 -0.0011,0.0011 -0.0015,0.0026 -0.0015,0.0045 z m -0.02973,-0.003 c -0.0011,-7.61e-4 -0.0022,-0.0015 -0.003,-0.0015 -0.0011,-7.62e-4 -0.0022,-0.0015 -0.003,-0.0015 -0.003,0 -0.0056,0.0011 -0.0074,0.003 -0.0011,0.0022 -0.0015,0.0052 -0.0015,0.0089 v 0.01635 h -0.01338 v -0.03568 h 0.01338 v 0.0059 c 7.42e-4,-0.003 0.0022,-0.0048 0.0045,-0.0059 0.0019,-7.61e-4 0.0045,-0.0015 0.0074,-0.0015 h 0.003 z m -0.03716,0.0223 c -0.0022,0.0011 -0.0045,0.0022 -0.0074,0.003 -0.003,7.61e-4 -0.0056,0.0015 -0.0074,0.0015 -0.0082,0 -0.01449,-0.0019 -0.01932,-0.0059 -0.0052,-0.0048 -0.0074,-0.01115 -0.0074,-0.01932 0,-0.0078 0.0022,-0.01412 0.0074,-0.01932 0.0048,-0.0048 0.01115,-0.0074 0.01932,-0.0074 0.0019,0 0.0045,7.61e-4 0.0074,0.0015 0.003,0.0011 0.0052,0.0022 0.0074,0.003 v 0.01041 c -0.0022,-0.0019 -0.0045,-0.003 -0.0074,-0.003 -0.0022,-7.61e-4 -0.0045,-0.0015 -0.0074,-0.0015 -0.0041,0 -0.0074,0.0015 -0.01041,0.0045 -0.0022,0.0022 -0.003,0.0059 -0.003,0.01189 0,0.0052 7.42e-4,0.0089 0.003,0.01189 0.003,0.0022 0.0063,0.003 0.01041,0.003 h 0.0074 c 0.003,-7.6e-4 0.0052,-0.0019 0.0074,-0.003 z M 12.312704,36.679294 c -0.595344,0 -1.078845,0.483482 -1.078845,1.078845 v 6.472977 c 0,0.595343 0.483482,1.078845 1.078845,1.078845 0.595344,0 1.078845,-0.483483 1.078845,-1.078845 v -6.472977 c 0,-0.595343 -0.482369,-1.078845 -1.078845,-1.078845 z m 17.26152,0 c -0.59534,0 -1.07884,0.483482 -1.07884,1.078845 v 6.472977 c 0,0.595343 0.48348,1.078845 1.07884,1.078845 0.59535,0 1.07885,-0.483483 1.07885,-1.078845 v -6.472977 c 0,-0.595343 -0.482,-1.078845 -1.07885,-1.078845 z m -8.63076,-6.473072 c -0.59534,0 -1.078843,0.483482 -1.078843,1.078845 v 6.472977 c 0,0.595344 0.483483,1.078845 1.078843,1.078845 0.59535,0 1.07885,-0.483482 1.07885,-1.078845 v -6.472977 c 0,-0.595344 -0.482,-1.078845 -1.07885,-1.078845 z m 10.93496,-12.170783 c -0.59795,-1.413249 -1.45301,-2.682366 -2.5427,-3.771963 -1.0896,-1.089594 -2.35872,-1.94468 -3.77197,-2.542707 -1.13193,-0.4794 -2.32008,-0.775207 -3.54011,-0.884472 v -0.04794 c 0,-1.4556786 -0.28504,-2.868929 -0.84843,-4.199409 C 20.631904,5.303466 19.854061,4.15032 18.862931,3.160712 17.872182,2.169963 16.718655,1.391748 15.434696,0.848425 14.10431,0.285038 12.690966,0 11.235286,0 9.779606,0 8.366356,0.285038 7.035876,0.848425 5.750014,1.391739 4.59544,2.169583 3.605737,3.15919 2.614988,4.149939 1.836774,5.303466 1.29345,6.587426 0.73006305,7.917811 0.44502505,9.3311554 0.44502505,10.786835 v 33.444203 c 0,0.595344 0.483483,1.078846 1.07884495,1.078846 0.595344,0 1.078846,-0.483483 1.078846,-1.078846 V 10.786836 c 0,-4.759002 3.871951,-8.630668 8.630667,-8.630668 4.759001,0 8.630667,3.871951 8.630667,8.630668 v 0.04794 c -1.22155,0.109254 -2.408089,0.406184 -3.540116,0.884472 -1.413249,0.597951 -2.682367,1.453016 -3.771962,2.542707 -1.089596,1.089691 -1.944681,2.358713 -2.542708,3.771962 -0.619498,1.463862 -0.933524,3.018009 -0.933524,4.618961 v 2.15769 c 0,0.595344 0.483482,1.078846 1.078845,1.078846 h 1.078845 v 5.394131 c 0,0.595344 0.483483,1.078845 1.078846,1.078845 0.595362,0 1.078845,-0.483482 1.078845,-1.078845 v -5.394131 h 15.103833 v 5.394131 c 0,0.595344 0.48348,1.078845 1.07885,1.078845 0.59534,0 1.07884,-0.483482 1.07884,-1.078845 v -5.394131 h 1.07885 c 0.59534,0 1.07884,-0.483483 1.07884,-1.078846 v -2.15769 c 0,-1.599812 -0.31291,-3.153958 -0.93204,-4.617819 z m -1.22564,5.697806 H 11.233573 V 22.6544 c 0,-5.354364 4.355434,-9.709608 9.709611,-9.709608 5.35436,0 9.7096,4.355434 9.7096,9.709608 z" />
</svg>
