<?xml version="1.0" encoding="UTF-8" standalone="no"?>
<svg
   width="50pt"
   height="50pt"
   version="1.1"
   viewBox="0 0 50 50"
   id="svg385"
   sodipodi:docname="speedometer.svg"
   inkscape:version="1.2.2 (b0a8486541, 2022-12-01)"
   xmlns:inkscape="http://www.inkscape.org/namespaces/inkscape"
   xmlns:sodipodi="http://sodipodi.sourceforge.net/DTD/sodipodi-0.dtd"
   xmlns="http://www.w3.org/2000/svg"
   xmlns:svg="http://www.w3.org/2000/svg">
  <sodipodi:namedview
     id="namedview387"
     pagecolor="#ffffff"
     bordercolor="#000000"
     borderopacity="0.25"
     inkscape:showpageshadow="2"
     inkscape:pageopacity="0.0"
     inkscape:pagecheckerboard="0"
     inkscape:deskcolor="#d1d1d1"
     inkscape:document-units="pt"
     showgrid="false"
     inkscape:zoom="10.137182"
     inkscape:cx="39.113434"
     inkscape:cy="44.243065"
     inkscape:window-width="1836"
     inkscape:window-height="1476"
     inkscape:window-x="3016"
     inkscape:window-y="56"
     inkscape:window-maximized="1"
     inkscape:current-layer="svg385" />
  <defs
     id="defs299">
    <symbol
       id="u"
       overflow="visible">
      <path
         d="M 2.2188,-0.125 C 2.10161,-0.070312 1.98442,-0.03125 1.85942,0 1.73442,0.03125 1.60161,0.046875 1.4688,0.046875 c -0.39844,0 -0.71484,-0.10938 -0.95312,-0.32812 -0.23047,-0.22656 -0.34375,-0.53516 -0.34375,-0.92188 0,-0.38281 0.11328,-0.6875 0.34375,-0.90625 0.23828,-0.22656 0.55469,-0.34375 0.95312,-0.34375 0.13281,0 0.26562,0.015625 0.39062,0.046875 0.125,0.023438 0.24219,0.0625 0.35938,0.125 v 0.5 C 2.10161,-1.851562 1.98833,-1.90625 1.87505,-1.9375 1.75786,-1.976562 1.64458,-2 1.5313,-2 c -0.23047,0 -0.40625,0.074219 -0.53125,0.21875 -0.125,0.13672 -0.1875,0.32812 -0.1875,0.57812 0,0.25 0.0625,0.44922 0.1875,0.59375 0.125,0.13672 0.30078,0.20312 0.53125,0.20312 0.11328,0 0.22656,-0.015625 0.34375,-0.046875 0.11328,-0.039063 0.22656,-0.097656 0.34375,-0.17188 z"
         id="path236" />
    </symbol>
    <symbol
       id="e"
       overflow="visible">
      <path
         d="M 1.625,-1.3125 C 1.570312,-1.34375 1.51953,-1.363281 1.46875,-1.375 1.414062,-1.382812 1.36719,-1.390625 1.32813,-1.390625 c -0.15625,0 -0.27734,0.054687 -0.35938,0.15625 -0.074219,0.09375 -0.10938,0.23047 -0.10938,0.40625 V -5e-6 H 0.28125 v -1.8125 h 0.57812 v 0.29688 c 0.070313,-0.11328 0.15625,-0.19531 0.25,-0.25 0.10156,-0.0625 0.21875,-0.09375 0.34375,-0.09375 0.019531,0 0.039063,0.00781 0.0625,0.015625 H 1.625 Z"
         id="path239" />
    </symbol>
    <symbol
       id="b"
       overflow="visible">
      <path
         d="M 2.0938,-0.90625 V -0.75 H 0.7344 c 0.007813,0.13672 0.054687,0.24219 0.14062,0.3125 0.082031,0.0625 0.20312,0.09375 0.35938,0.09375 0.125,0 0.25,-0.015625 0.375,-0.046875 0.125,-0.039063 0.25391,-0.097656 0.39062,-0.17188 v 0.45312 C 1.8633,-0.054697 1.72658,-0.019541 1.59377,-5e-6 1.45705,0.031245 1.31643,0.04687 1.17189,0.04687 c -0.32422,0 -0.57812,-0.082031 -0.76562,-0.25 -0.17969,-0.16406 -0.26562,-0.39844 -0.26562,-0.70312 0,-0.28906 0.085937,-0.51953 0.26562,-0.6875 0.17578,-0.17578 0.42188,-0.26562 0.73438,-0.26562 0.28906,0 0.51953,0.089844 0.6875,0.26562 0.17578,0.16797 0.26562,0.39844 0.26562,0.6875 z M 1.48442,-1.10937 c 0,-0.10156 -0.03125,-0.1875 -0.09375,-0.25 -0.0625,-0.070313 -0.14844,-0.10938 -0.25,-0.10938 -0.11719,0 -0.21094,0.03125 -0.28125,0.09375 -0.0625,0.0625 -0.10547,0.15234 -0.125,0.26562 z"
         id="path242" />
    </symbol>
    <symbol
       id="g"
       overflow="visible">
      <path
         d="m 1.0938,-0.8125 c -0.125,0 -0.21875,0.023438 -0.28125,0.0625 -0.0625,0.042969 -0.09375,0.10156 -0.09375,0.17188 0,0.074219 0.023438,0.13281 0.078125,0.17188 0.050781,0.042969 0.11719,0.0625 0.20312,0.0625 0.11328,0 0.20703,-0.035156 0.28125,-0.10938 0.070312,-0.082031 0.10938,-0.17969 0.10938,-0.29688 v -0.0625 z m 0.875,-0.21875 V -5e-5 H 1.39068 V -0.26567 C 1.316461,-0.1602 1.22662,-0.08208 1.12506,-0.03129 1.03131,0.019491 0.91412,0.046835 0.78131,0.046835 c -0.1875,0 -0.34375,-0.050781 -0.46875,-0.15625 -0.11719,-0.11328 -0.17188,-0.25781 -0.17188,-0.4375 0,-0.20703 0.070313,-0.35938 0.21875,-0.45312 0.14453,-0.10156 0.375,-0.15625 0.6875,-0.15625 H 1.39068 V -1.20316 c 0,-0.09375 -0.039063,-0.16016 -0.10938,-0.20312 -0.074219,-0.039062 -0.1875,-0.0625 -0.34375,-0.0625 -0.11719,0 -0.23047,0.015625 -0.34375,0.046875 -0.10547,0.023437 -0.20312,0.054687 -0.29688,0.09375 v -0.4375 c 0.125,-0.03125 0.25,-0.050781 0.375,-0.0625 0.125,-0.019531 0.25,-0.03125 0.375,-0.03125 0.33203,0 0.56641,0.070313 0.70312,0.20312 0.14453,0.125 0.21875,0.33594 0.21875,0.625 z"
         id="path245" />
    </symbol>
    <symbol
       id="a"
       overflow="visible">
      <path
         d="m 0.90625,-2.3281 v 0.51562 H 1.5 V -1.3906 H 0.90625 v 0.76562 c 0,0.085938 0.015625,0.14062 0.046875,0.17188 0.039063,0.023437 0.10938,0.03125 0.20312,0.03125 h 0.29688 V 3e-5 h -0.5 c -0.21875,0 -0.38281,-0.046875 -0.48438,-0.14062 -0.09375,-0.09375 -0.14062,-0.25391 -0.14062,-0.48438 v -0.76562 h -0.28125 v -0.42188 h 0.28125 v -0.51562 z"
         id="path248" />
    </symbol>
    <symbol
       id="d"
       overflow="visible">
      <path
         d="M 1.5156,-1.5469 V -2.51565 H 2.09372 V -5e-5 H 1.5156 V -0.26567 C 1.429663,-0.1602 1.34372,-0.08208 1.24998,-0.03129 1.15624,0.0195 1.03904,0.046835 0.90623,0.046835 c -0.21875,0 -0.40234,-0.085938 -0.54688,-0.26562 -0.13672,-0.17578 -0.20312,-0.40625 -0.20312,-0.6875 0,-0.28125 0.066406,-0.50781 0.20312,-0.6875 0.14453,-0.17578 0.32812,-0.26562 0.54688,-0.26562 0.125,0 0.23438,0.027344 0.32812,0.078125 0.10156,0.054688 0.19531,0.13281 0.28125,0.23438 z M 1.12498,-0.375 c 0.125,0 0.21875,-0.039062 0.28125,-0.125 0.070312,-0.09375 0.10938,-0.22656 0.10938,-0.40625 0,-0.16406 -0.039063,-0.29688 -0.10938,-0.39062 -0.0625,-0.09375 -0.15625,-0.14062 -0.28125,-0.14062 -0.125,0 -0.21875,0.046875 -0.28125,0.14062 -0.0625,0.093745 -0.09375,0.22656 -0.09375,0.39062 0,0.17969 0.03125,0.3125 0.09375,0.40625 0.0625,0.085938 0.15625,0.125 0.28125,0.125 z"
         id="path251" />
    </symbol>
    <symbol
       id="m"
       overflow="visible">
      <path
         d="m 1.25,-0.375 c 0.11328,0 0.20312,-0.039062 0.26562,-0.125 C 1.585933,-0.59375 1.625,-0.72656 1.625,-0.90625 1.625,-1.07031 1.585938,-1.20313 1.51562,-1.29687 1.45312,-1.39062 1.36328,-1.43749 1.25,-1.43749 c -0.125,0 -0.22656,0.046875 -0.29688,0.14062 -0.0625,0.09375 -0.09375,0.22656 -0.09375,0.39062 0,0.17969 0.03125,0.3125 0.09375,0.40625 C 1.023433,-0.414062 1.125,-0.375 1.25,-0.375 Z M 0.85938,-1.5469 c 0.082031,-0.10156 0.17188,-0.17969 0.26562,-0.23438 0.09375,-0.050781 0.20312,-0.078125 0.32812,-0.078125 0.22656,0 0.41016,0.089844 0.54688,0.26562 0.14453,0.17969 0.21875,0.40625 0.21875,0.6875 0,0.28125 -0.074219,0.51172 -0.21875,0.6875 -0.13672,0.17969 -0.32031,0.26562 -0.54688,0.26562 -0.125,0 -0.23438,-0.027344 -0.32812,-0.078125 C 1.03126,-0.082071 0.94141,-0.1602 0.85938,-0.26567 V -5e-5 H 0.28126 v -2.5156 h 0.57812 z"
         id="path254" />
    </symbol>
    <symbol
       id="l"
       overflow="visible">
      <path
         d="m 0.046875,-1.8125 h 0.57812 l 0.48438,1.2344 0.40625,-1.2344 h 0.57812 l -0.75,1.9844 c -0.085938,0.19531 -0.17969,0.33594 -0.28125,0.42188 -0.09375,0.082031 -0.22656,0.125 -0.39062,0.125 H 0.328125 V 0.32816 h 0.1875 c 0.09375,0 0.16016,-0.015625 0.20312,-0.046875 0.050781,-0.03125 0.085938,-0.085938 0.10938,-0.15625 l 0.015625,-0.0625 z"
         id="path257" />
    </symbol>
    <symbol
       id="k"
       overflow="visible">
      <path
         d="m 0.29688,-2.4219 h 1.6875 v 0.48438 h -1.0625 v 0.4375 h 1 v 0.46875 h -1 V -7e-5 h -0.625 z"
         id="path260" />
    </symbol>
    <symbol
       id="j"
       overflow="visible">
      <path
         d="M 2.0938,-1.1094 V 0 H 1.51568 v -0.84375 c 0,-0.15625 -0.00781,-0.25781 -0.015625,-0.3125 0,-0.0625 -0.011719,-0.10938 -0.03125,-0.14062 -0.023438,-0.039063 -0.054688,-0.070313 -0.09375,-0.09375 -0.042969,-0.019531 -0.085938,-0.03125 -0.125,-0.03125 -0.125,0 -0.22656,0.046875 -0.29688,0.14062 -0.0625,0.09375 -0.09375,0.22656 -0.09375,0.39062 V -1e-5 h -0.57812 v -2.5156 h 0.57812 v 0.96875 c 0.082031,-0.10156 0.17188,-0.17969 0.26562,-0.23438 0.10156,-0.050781 0.21094,-0.078125 0.32812,-0.078125 0.21875,0 0.37891,0.070313 0.48438,0.20312 0.10156,0.125 0.15625,0.30859 0.15625,0.54688 z"
         id="path263" />
    </symbol>
    <symbol
       id="f"
       overflow="visible">
      <path
         d="m 1.9531,-1.5156 c 0.070313,-0.10156 0.16016,-0.1875 0.26562,-0.25 0.10156,-0.0625 0.21094,-0.09375 0.32812,-0.09375 0.20703,0 0.36328,0.070313 0.46875,0.20312 0.11328,0.125 0.17188,0.30859 0.17188,0.54688 V 5e-5 H 2.60935 v -0.9375 -0.046875 -0.0625 c 0,-0.13281 -0.023437,-0.22656 -0.0625,-0.28125 -0.03125,-0.0625 -0.089844,-0.09375 -0.17188,-0.09375 -0.11719,0 -0.20312,0.046875 -0.26562,0.14062 -0.054687,0.09375 -0.085937,0.22656 -0.09375,0.39062 V 3.5e-5 H 1.43748 v -0.9375 c 0,-0.20703 -0.015625,-0.33594 -0.046875,-0.39062 -0.03125,-0.0625 -0.09375,-0.09375 -0.1875,-0.09375 -0.11719,0 -0.20312,0.046875 -0.26562,0.14062 -0.054688,0.09375 -0.078125,0.22656 -0.078125,0.39062 V 2.5e-5 H 0.28124 v -1.8125 h 0.57812 v 0.26562 c 0.070313,-0.10156 0.14844,-0.17969 0.23438,-0.23438 0.09375,-0.050781 0.19531,-0.078125 0.3125,-0.078125 0.125,0 0.23438,0.03125 0.32812,0.09375 0.09374,0.0625 0.16406,0.14844 0.21875,0.25 z"
         id="path266" />
    </symbol>
    <symbol
       id="i"
       overflow="visible">
      <path
         d="M 0.28125,-1.8125 H 0.85937 V 0 H 0.28125 Z m 0,-0.70312 h 0.57812 v 0.46875 H 0.28125 Z"
         id="path269" />
    </symbol>
    <symbol
       id="h"
       overflow="visible">
      <path
         d="m 1.9844,-2.3438 v 0.51562 c -0.13672,-0.0625 -0.26562,-0.10156 -0.39062,-0.125 -0.125,-0.03125 -0.24609,-0.046875 -0.35938,-0.046875 -0.14844,0 -0.25781,0.023438 -0.32812,0.0625 -0.074219,0.03125 -0.10938,0.09375 -0.10938,0.1875 0,0.0625 0.023437,0.11719 0.078125,0.15625 0.050781,0.03125 0.14062,0.058594 0.26562,0.078125 l 0.26562,0.0625 c 0.25781,0.054687 0.44531,0.13672 0.5625,0.25 0.11328,0.10547 0.17188,0.25781 0.17188,0.45312 0,0.27344 -0.078125,0.47656 -0.23438,0.60938 -0.15625,0.125 -0.39844,0.1875 -0.71875,0.1875 -0.15625,0 -0.3125,-0.015625 -0.46875,-0.046875 -0.15625,-0.03125 -0.30859,-0.070312 -0.45312,-0.125 v -0.53125 c 0.14453,0.085938 0.28906,0.14844 0.4375,0.1875 0.14453,0.042969 0.28516,0.0625 0.42188,0.0625 0.13281,0 0.23828,-0.019531 0.3125,-0.0625 0.070312,-0.050781 0.10938,-0.11719 0.10938,-0.20312 0,-0.070313 -0.027344,-0.12891 -0.078125,-0.17188 C 1.414092,-0.882867 1.31644,-0.92193 1.1719,-0.953185 L 0.93752,-1.00006 C 0.69533,-1.050841 0.51955,-1.13287 0.40627,-1.25006 0.28908,-1.36334 0.23439,-1.51568 0.23439,-1.70318 c 0,-0.25 0.078125,-0.4375 0.23438,-0.5625 0.156255,-0.125 0.37891,-0.1875 0.67188,-0.1875 0.13281,0 0.26953,0.011719 0.40625,0.03125 0.14453,0.011719 0.28906,0.039063 0.4375,0.078125 z"
         id="path272" />
    </symbol>
    <symbol
       id="c"
       overflow="visible">
      <path
         d="m 1.1406,-1.4375 c -0.125,0 -0.22656,0.046875 -0.29688,0.14062 -0.0625,0.085937 -0.09375,0.21484 -0.09375,0.39062 0,0.17969 0.03125,0.3125 0.09375,0.40625 0.070312,0.09375 0.17188,0.14062 0.29688,0.14062 0.125,0 0.21875,-0.046875 0.28125,-0.14062 0.070313,-0.09375 0.10938,-0.22656 0.10938,-0.40625 0,-0.17578 -0.039062,-0.30469 -0.10938,-0.39062 C 1.35935,-1.39063 1.2656,-1.4375 1.1406,-1.4375 Z m 0,-0.42188 c 0.3125,0 0.55469,0.089844 0.73438,0.26562 0.17578,0.16797 0.26562,0.39844 0.26562,0.6875 0,0.30469 -0.089844,0.53906 -0.26562,0.70312 -0.17969,0.16797 -0.42188,0.25 -0.73438,0.25 -0.3125,0 -0.55859,-0.082031 -0.73438,-0.25 C 0.22653,-0.3672 0.1406,-0.60158 0.1406,-0.90626 c 0,-0.28906 0.085937,-0.51953 0.26562,-0.6875 C 0.582,-1.76954 0.8281,-1.85938 1.1406,-1.85938 Z"
         id="path275" />
    </symbol>
    <symbol
       id="t"
       overflow="visible">
      <path
         d="m 1.4688,-2.5156 v 0.375 H 1.1563 c -0.085938,0 -0.14062,0.015625 -0.17188,0.046875 -0.03126,0.03125 -0.046875,0.085938 -0.046875,0.15625 v 0.125 h 0.48438 v 0.42188 H 0.937545 V 5e-6 h -0.59375 v -1.3906 h -0.28125 v -0.42188 h 0.28125 v -0.125 c 0,-0.19531 0.054688,-0.34375 0.17188,-0.4375 0.11328,-0.09375 0.28516,-0.14062 0.51562,-0.14062 z"
         id="path278" />
    </symbol>
    <symbol
       id="s"
       overflow="visible">
      <path
         d="M 0.29688,-2.4219 H 1 l 0.875,1.6562 V -2.4219 H 2.46875 V 0 H 1.76563 l -0.875,-1.6562 V 0 H 0.29688 Z"
         id="path281" />
    </symbol>
    <symbol
       id="r"
       overflow="visible">
      <path
         d="m 0.26562,-0.70312 v -1.1094 h 0.57812 v 0.1875 0.375 0.28125 0.32812 c 0.007812,0.0625 0.023438,0.10547 0.046875,0.125 0.019531,0.042969 0.046875,0.074219 0.078125,0.09375 0.039062,0.023437 0.085938,0.03125 0.14062,0.03125 0.125,0 0.21875,-0.046875 0.28125,-0.14062 0.070313,-0.09375 0.10938,-0.22266 0.10938,-0.39062 V -1.81251 H 2.07811 V -1e-5 H 1.49999 V -0.26563 C 1.414052,-0.16016 1.3203,-0.08204 1.21874,-0.03125 1.12499,0.019531 1.01952,0.046875 0.90624,0.046875 c -0.21094,0 -0.37109,-0.0625 -0.48438,-0.1875 -0.10547,-0.13281 -0.15625,-0.32031 -0.15625,-0.5625 z"
         id="path284" />
    </symbol>
    <symbol
       id="q"
       overflow="visible">
      <path
         d="M 2.0938,-1.1094 V 0 H 1.51568 v -0.84375 c 0,-0.15625 -0.00781,-0.25781 -0.015625,-0.3125 0,-0.0625 -0.011719,-0.10938 -0.03125,-0.14062 -0.023438,-0.039063 -0.054688,-0.070313 -0.09375,-0.09375 -0.042969,-0.019531 -0.085938,-0.03125 -0.125,-0.03125 -0.125,0 -0.22656,0.046875 -0.29688,0.14062 -0.0625,0.09375 -0.09375,0.22656 -0.09375,0.39062 V -1e-5 h -0.57812 v -1.8125 h 0.57812 v 0.26562 c 0.082031,-0.10156 0.17188,-0.17969 0.26562,-0.23438 0.10156,-0.050781 0.21094,-0.078125 0.32812,-0.078125 0.21875,0 0.37891,0.070313 0.48438,0.20312 0.10156,0.125 0.15625,0.30859 0.15625,0.54688 z"
         id="path287" />
    </symbol>
    <symbol
       id="p"
       overflow="visible">
      <path
         d="m 0.29688,-2.4219 h 1.0469 c 0.30078,0 0.53516,0.074219 0.70312,0.21875 0.16406,0.13672 0.25,0.32812 0.25,0.57812 0,0.25 -0.085937,0.44531 -0.25,0.57812 -0.16797,0.13672 -0.40234,0.20312 -0.70312,0.20312 H 0.9219 V -4e-5 h -0.625 z m 0.625,0.45312 v 0.67188 h 0.34375 c 0.125,0 0.21875,-0.023437 0.28125,-0.078125 0.070313,-0.0625 0.10938,-0.14453 0.10938,-0.25 0,-0.10156 -0.039062,-0.1875 -0.10938,-0.25 -0.0625,-0.0625 -0.15625,-0.09375 -0.28125,-0.09375 z"
         id="path290" />
    </symbol>
    <symbol
       id="o"
       overflow="visible">
      <path
         d="m 0.28125,-1.8125 h 0.57812 v 1.7812 c 0,0.23828 -0.058594,0.42188 -0.17188,0.54688 C 0.5703,0.64839 0.39843,0.7187 0.17187,0.7187 H -0.10938 V 0.32808 h 0.09375 c 0.11328,0 0.19141,-0.027344 0.23438,-0.078125 0.039062,-0.042969 0.0625,-0.13672 0.0625,-0.28125 z m 0,-0.70312 h 0.57812 v 0.46875 H 0.28125 Z"
         id="path293" />
    </symbol>
    <symbol
       id="n"
       overflow="visible">
      <path
         d="m 1.7344,-1.75 v 0.46875 C 1.660181,-1.332031 1.58206,-1.367188 1.50002,-1.39063 1.425801,-1.42188 1.34768,-1.437505 1.26564,-1.437505 c -0.16797,0 -0.29688,0.046875 -0.39062,0.14062 -0.085938,0.09375 -0.125,0.22656 -0.125,0.39062 0,0.16797 0.039062,0.30469 0.125,0.40625 0.09375,0.09375 0.22266,0.14062 0.39062,0.14062 0.082031,0 0.16406,-0.015625 0.25,-0.046875 0.082031,-0.03125 0.15625,-0.070312 0.21875,-0.125 v 0.48438 C 1.648453,-0.01564 1.56251,0.003891 1.46877,0.01561 1.37502,0.035141 1.28127,0.04686 1.18752,0.04686 0.8633,0.04686 0.6094,-0.035171 0.4219,-0.20314 0.2344,-0.3672 0.14065,-0.60158 0.14065,-0.90626 c 0,-0.30078 0.09375,-0.53516 0.28125,-0.70312 0.1875,-0.16406 0.44141,-0.25 0.76562,-0.25 0.09375,0 0.1875,0.011719 0.28125,0.03125 0.09375,0.011719 0.17969,0.039063 0.26562,0.078125 z"
         id="path296" />
    </symbol>
  </defs>
  <path
     id="path301"
     style="stroke-width:0.104347"
     d="M 24.99843,0 C 38.80043,0 50,11.200618 50,25.001565 50,38.799382 38.79521,50 24.99843,50 11.20584,50 0,38.795208 0,25.001565 0,11.199574 11.19749,0 24.99843,0 Z m 2.19902,20.645074 7.72784,-7.727842 c -2.69915,-2.221028 -6.1569,-3.553123 -9.92686,-3.553123 -8.63879,0 -15.63328,6.998142 -15.63328,15.637456 H 6.31091 c 0,-10.314502 8.37302,-18.690652 18.68752,-18.690652 5.70769,0 10.82393,2.563808 14.24964,6.602354 l -2.16353,2.163532 -0.002,-0.0012 -7.72784,7.727841 c 0.33545,0.661133 0.52581,1.408686 0.52581,2.199011 0,2.685269 -2.19703,4.879062 -4.8823,4.879062 -2.68203,0 -4.87906,-2.193376 -4.87906,-4.879062 0,-2.685268 2.19213,-4.882296 4.87906,-4.882296 0.79035,0 1.53787,0.19035 2.19902,0.525815 z m -2.19902,2.528017 c -1.0186,0 -1.82367,0.811132 -1.82367,1.828161 0,1.009642 0.81236,1.823674 1.82367,1.823674 1.00965,0 1.82817,-0.813583 1.82817,-1.823674 0,-1.017384 -0.81032,-1.828161 -1.82817,-1.828161 z m 0,-20.119164 c -12.12617,0 -21.94315,9.822088 -21.94315,21.947325 0,12.126177 9.81719,21.943152 21.94315,21.943152 12.12618,0 21.94629,-9.81228 21.94629,-21.943152 0,-12.130872 -9.81552,-21.947325 -21.94629,-21.947325 z" />
</svg>
