<?xml version="1.0" encoding="UTF-8" standalone="no"?>
<svg
   width="50pt"
   height="50pt"
   version="1.1"
   viewBox="-7 0 50 50"
   id="svg2628"
   sodipodi:docname="table_lamp.svg"
   inkscape:version="1.3 (0e150ed6c4, 2023-07-21)"
   xmlns:inkscape="http://www.inkscape.org/namespaces/inkscape"
   xmlns:sodipodi="http://sodipodi.sourceforge.net/DTD/sodipodi-0.dtd"
   xmlns="http://www.w3.org/2000/svg"
   xmlns:svg="http://www.w3.org/2000/svg">
  <sodipodi:namedview
     id="namedview2630"
     pagecolor="#ffffff"
     bordercolor="#000000"
     borderopacity="0.25"
     inkscape:showpageshadow="2"
     inkscape:pageopacity="0.0"
     inkscape:pagecheckerboard="0"
     inkscape:deskcolor="#d1d1d1"
     inkscape:document-units="pt"
     showgrid="false"
     inkscape:zoom="16.206133"
     inkscape:cx="33.259014"
     inkscape:cy="32.734521"
     inkscape:window-width="2101"
     inkscape:window-height="1489"
     inkscape:window-x="0"
     inkscape:window-y="0"
     inkscape:window-maximized="1"
     inkscape:current-layer="svg2628" />
  <defs
     id="defs2528">
    <symbol
       id="w"
       overflow="visible">
      <path
         d="m 14.656,-0.875 c -0.76172,0.39844 -1.5547,0.69531 -2.375,0.89062 -0.8125,0.19531 -1.6641,0.29688 -2.5469,0.29688 -2.6562,0 -4.7617,-0.73828 -6.3125,-2.2188 -1.5547,-1.4883 -2.3281,-3.5039 -2.3281,-6.0469 0,-2.5508 0.77344,-4.5664 2.3281,-6.0469 1.5508,-1.4883 3.6562,-2.2344 6.3125,-2.2344 0.88281,0 1.7344,0.10156 2.5469,0.29688 0.82031,0.19922 1.6133,0.49609 2.375,0.89062 v 3.2969 c -0.76172,-0.51953 -1.5117,-0.89844 -2.25,-1.1406 -0.74219,-0.23828 -1.5234,-0.35938 -2.3438,-0.35938 -1.4688,0 -2.625,0.46875 -3.4688,1.4062 -0.83594,0.9375 -1.25,2.2344 -1.25,3.8906 0,1.6484 0.41406,2.9375 1.25,3.875 0.84375,0.9375 2,1.4062 3.4688,1.4062 0.82031,0 1.6016,-0.11719 2.3438,-0.35938 0.73828,-0.23828 1.4883,-0.61719 2.25,-1.1406 z"
         id="path2459" />
    </symbol>
    <symbol
       id="d"
       overflow="visible">
      <path
         d="m 10.719,-8.7031 c -0.33594,-0.15625 -0.66797,-0.26953 -1,-0.34375 -0.32422,-0.082031 -0.65625,-0.125 -1,-0.125 -0.98047,0 -1.7344,0.32031 -2.2656,0.95312 -0.53125,0.625 -0.79688,1.5273 -0.79688,2.7031 V -3e-5 h -3.8125 v -11.969 h 3.8125 v 1.9688 c 0.48828,-0.78125 1.0508,-1.3477 1.6875,-1.7031 0.64453,-0.36328 1.4102,-0.54688 2.2969,-0.54688 0.13281,0 0.27344,0.0078 0.42188,0.01563 0.14453,0.01172 0.36328,0.03125 0.65625,0.0625 z"
         id="path2462" />
    </symbol>
    <symbol
       id="c"
       overflow="visible">
      <path
         d="m 13.781,-6.0156 v 1.0938 H 4.8435 c 0.09375,0.89844 0.41406,1.5703 0.96875,2.0156 0.55078,0.44922 1.3281,0.67188 2.3281,0.67188 0.80078,0 1.625,-0.11719 2.4688,-0.35938 0.84375,-0.23828 1.7109,-0.59766 2.6094,-1.0781 v 2.9531 c -0.90625,0.33594 -1.8125,0.58984 -2.7188,0.76562 -0.9063,0.17578 -1.8125,0.26562 -2.7188,0.26562 -2.1562,0 -3.8398,-0.54688 -5.0469,-1.6406 -1.1992,-1.1016 -1.7969,-2.6484 -1.7969,-4.6406 0,-1.9453 0.58594,-3.4766 1.7656,-4.5938 1.1758,-1.125 2.8008,-1.6875 4.875,-1.6875 1.875,0 3.375,0.57031 4.5,1.7031 1.1328,1.125 1.7031,2.6367 1.7031,4.5312 z M 9.8435,-7.2812 c 0,-0.72656 -0.21484,-1.3125 -0.64062,-1.75 -0.41797,-0.44531 -0.96875,-0.67188 -1.6562,-0.67188 -0.74219,0 -1.3438,0.21094 -1.8125,0.625 -0.46094,0.41797 -0.74609,1.0156 -0.85938,1.7969 z"
         id="path2465" />
    </symbol>
    <symbol
       id="b"
       overflow="visible">
      <path
         d="m 7.2031,-5.3906 c -0.80469,0 -1.4062,0.13672 -1.8125,0.40625 -0.39844,0.27344 -0.59375,0.67188 -0.59375,1.2031 0,0.48047 0.16016,0.85938 0.48438,1.1406 0.32031,0.27344 0.77344,0.40625 1.3594,0.40625 0.71875,0 1.3203,-0.25391 1.8125,-0.76562 0.48828,-0.51953 0.73438,-1.1719 0.73438,-1.9531 v -0.4375 z m 5.8438,-1.4375 V 0 H 9.1875 v -1.7656 c -0.51172,0.71875 -1.0898,1.2461 -1.7344,1.5781 -0.63672,0.33203 -1.418,0.5 -2.3438,0.5 -1.2422,0 -2.2461,-0.35938 -3.0156,-1.0781 -0.77344,-0.72656 -1.1562,-1.6719 -1.1562,-2.8281 0,-1.3945 0.47656,-2.4219 1.4375,-3.0781 0.96875,-0.65625 2.4883,-0.98438 4.5625,-0.98438 h 2.25 v -0.29688 c 0,-0.60156 -0.24219,-1.0469 -0.71875,-1.3281 -0.48047,-0.28125 -1.2266,-0.42188 -2.2344,-0.42188 -0.8125,0 -1.5742,0.085937 -2.2812,0.25 -0.71094,0.15625 -1.3672,0.40234 -1.9688,0.73438 v -2.9219 c 0.82031,-0.19531 1.6445,-0.34766 2.4688,-0.45312 0.82031,-0.10156 1.6484,-0.15625 2.4844,-0.15625 2.1562,0 3.7109,0.42969 4.6719,1.2812 0.95703,0.84375 1.4375,2.2266 1.4375,4.1406 z"
         id="path2468" />
    </symbol>
    <symbol
       id="f"
       overflow="visible">
      <path
         d="m 6.0156,-15.359 v 3.3906 H 9.9531 V -9.234 H 6.0156 v 5.0781 c 0,0.55469 0.10938,0.92969 0.32812,1.125 0.21875,0.19922 0.65625,0.29688 1.3125,0.29688 h 1.9688 v 2.7344 h -3.2812 c -1.5117,0 -2.5859,-0.3125 -3.2188,-0.9375 -0.625,-0.63281 -0.9375,-1.707 -0.9375,-3.2188 v -5.0781 h -1.9062 v -2.7344 h 1.9062 v -3.3906 z"
         id="path2471" />
    </symbol>
    <symbol
       id="n"
       overflow="visible">
      <path
         d="m 9.9688,-10.219 v -6.4062 h 3.8594 V -2e-4 H 9.9688 V -1.7346 C 9.44536,-1.02366 8.8672,-0.5041 8.2344,-0.1721 7.59768,0.14821 6.8633,0.31228 6.0313,0.31228 c -1.4688,0 -2.6797,-0.58203 -3.625,-1.75 -0.94922,-1.1758 -1.4219,-2.6875 -1.4219,-4.5312 0,-1.8437 0.47266,-3.3477 1.4219,-4.5156 0.94531,-1.1758 2.1562,-1.7656 3.625,-1.7656 0.83203,0 1.5664,0.16797 2.2031,0.5 0.63281,0.32422 1.2109,0.83594 1.7344,1.5312 z m -2.5156,7.75 c 0.82031,0 1.4453,-0.29688 1.875,-0.89062 0.42578,-0.60156 0.64062,-1.4727 0.64062,-2.6094 0,-1.1445 -0.21484,-2.0156 -0.64062,-2.6094 -0.42969,-0.59375 -1.0547,-0.89062 -1.875,-0.89062 -0.8125,0 -1.4336,0.29688 -1.8594,0.89062 -0.42969,0.59375 -0.64062,1.4648 -0.64062,2.6094 0,1.1367 0.21094,2.0078 0.64062,2.6094 0.42578,0.59375 1.0469,0.89062 1.8594,0.89062 z"
         id="path2474" />
    </symbol>
    <symbol
       id="m"
       overflow="visible">
      <path
         d="m 8.2031,-2.4688 c 0.82031,0 1.4453,-0.29688 1.875,-0.89062 0.42578,-0.60156 0.64062,-1.4727 0.64062,-2.6094 0,-1.1445 -0.21484,-2.0156 -0.64062,-2.6094 -0.42969,-0.59375 -1.0547,-0.89062 -1.875,-0.89062 -0.82422,0 -1.4531,0.30469 -1.8906,0.90625 -0.4375,0.59375 -0.65625,1.4609 -0.65625,2.5938 0,1.1367 0.21875,2.0078 0.65625,2.6094 0.4375,0.59375 1.0664,0.89062 1.8906,0.89062 z m -2.5469,-7.75 c 0.53125,-0.69531 1.1133,-1.207 1.75,-1.5312 0.64453,-0.33203 1.3828,-0.5 2.2188,-0.5 1.4688,0 2.6758,0.58984 3.625,1.7656 0.94531,1.168 1.4219,2.6719 1.4219,4.5156 0,1.8437 -0.47656,3.3555 -1.4219,4.5312 -0.94922,1.168 -2.1562,1.75 -3.625,1.75 -0.83594,0 -1.5742,-0.16797 -2.2188,-0.5 -0.63672,-0.33203 -1.2188,-0.84766 -1.75,-1.5469 V -1e-4 H 1.8437 v -16.625 h 3.8125 z"
         id="path2477" />
    </symbol>
    <symbol
       id="l"
       overflow="visible">
      <path
         d="m 0.26562,-11.969 h 3.8281 l 3.2188,8.125 2.7344,-8.125 h 3.8125 L 8.82822,1.125 c -0.5,1.332 -1.0898,2.2656 -1.7656,2.7969 -0.66797,0.53125 -1.5547,0.79688 -2.6562,0.79688 h -2.2188 v -2.5 h 1.2031 c 0.64453,0 1.1133,-0.10547 1.4062,-0.3125 C 5.0977,1.69534 5.32817,1.32816 5.48442,0.79688 L 5.5938,0.45313 Z"
         id="path2480" />
    </symbol>
    <symbol
       id="k"
       overflow="visible">
      <path
         d="M 2.0156,-15.953 H 6.125 v 5.8281 l 5.9219,-5.8281 h 4.7812 L 9.1406,-8.3905 17.6094,1e-4 H 12.4688 L 6.125,-6.2811 V 1e-4 H 2.0156 Z"
         id="path2483" />
    </symbol>
    <symbol
       id="e"
       overflow="visible">
      <path
         d="m 7.5312,-9.5156 c -0.84375,0 -1.4922,0.30859 -1.9375,0.92188 -0.44922,0.60547 -0.67188,1.4805 -0.67188,2.625 0,1.1484 0.22266,2.0273 0.67188,2.6406 0.44531,0.60547 1.0938,0.90625 1.9375,0.90625 0.83203,0 1.4688,-0.30078 1.9062,-0.90625 0.44531,-0.61328 0.67188,-1.4922 0.67188,-2.6406 0,-1.1445 -0.22656,-2.0195 -0.67188,-2.625 C 8.9999,-9.207 8.3632,-9.5156 7.5312,-9.5156 Z m 0,-2.7344 c 2.0508,0 3.6562,0.55859 4.8125,1.6719 1.1641,1.1055 1.75,2.6406 1.75,4.6094 0,1.9688 -0.58594,3.5117 -1.75,4.625 -1.1562,1.1055 -2.7617,1.6562 -4.8125,1.6562 -2.0625,0 -3.6797,-0.55078 -4.8438,-1.6562 -1.168,-1.1133 -1.75,-2.6562 -1.75,-4.625 0,-1.9688 0.58203,-3.5039 1.75,-4.6094 1.1641,-1.1133 2.7812,-1.6719 4.8438,-1.6719 z"
         id="path2486" />
    </symbol>
    <symbol
       id="a"
       overflow="visible">
      <path
         d="M 13.859,-7.2812 V 0 h -3.8438 v -5.5781 c 0,-1.0312 -0.027344,-1.7383 -0.078125,-2.125 -0.042969,-0.39453 -0.12109,-0.6875 -0.23438,-0.875 -0.14844,-0.25 -0.35156,-0.44141 -0.60938,-0.57812 -0.25,-0.14453 -0.54297,-0.21875 -0.875,-0.21875 -0.79297,0 -1.418,0.3125 -1.875,0.9375 -0.46094,0.61719 -0.6875,1.4648 -0.6875,2.5469 V 3e-5 h -3.8125 v -11.969 h 3.8125 v 1.75 c 0.58203,-0.69531 1.1953,-1.207 1.8438,-1.5312 0.64453,-0.33203 1.3594,-0.5 2.1406,-0.5 1.3828,0 2.4297,0.42969 3.1406,1.2812 0.71875,0.84375 1.0781,2.0742 1.0781,3.6875 z"
         id="path2489" />
    </symbol>
    <symbol
       id="j"
       overflow="visible">
      <path
         d="m 0.32812,-11.969 h 3.8281 l 2.9844,8.2656 2.9688,-8.2656 h 3.8281 L 9.23442,0 h -4.2031 z"
         id="path2492" />
    </symbol>
    <symbol
       id="i"
       overflow="visible">
      <path
         d="M 1.8438,-11.969 H 5.6563 V 0 H 1.8438 Z m 0,-4.6562 h 3.8125 v 3.125 H 1.8438 Z"
         id="path2495" />
    </symbol>
    <symbol
       id="h"
       overflow="visible">
      <path
         d="m 11.188,-11.594 v 2.9062 c -0.82422,-0.34375 -1.6172,-0.59766 -2.375,-0.76562 -0.76172,-0.16406 -1.4805,-0.25 -2.1562,-0.25 -0.73047,0 -1.2734,0.089844 -1.625,0.26562 -0.35547,0.17969 -0.53125,0.46094 -0.53125,0.84375 0,0.30469 0.13281,0.53906 0.40625,0.70312 0.26953,0.16797 0.75,0.28906 1.4375,0.35938 l 0.67188,0.09375 c 1.957,0.25 3.2734,0.66406 3.9531,1.2344 0.67578,0.57422 1.0156,1.4648 1.0156,2.6719 0,1.2812 -0.46875,2.2461 -1.4062,2.8906 -0.9375,0.63672 -2.3438,0.95312 -4.2188,0.95312 -0.78125,0 -1.5938,-0.0625 -2.4375,-0.1875 -0.8437,-0.125 -1.7148,-0.3125 -2.6094,-0.5625 v -2.9062 c 0.75781,0.375 1.5391,0.65625 2.3438,0.84375 0.80078,0.17969 1.6133,0.26562 2.4375,0.26562 0.75,0 1.3125,-0.10156 1.6875,-0.3125 0.38281,-0.20703 0.57812,-0.50781 0.57812,-0.90625 0,-0.34375 -0.13281,-0.59766 -0.39062,-0.76562 C 7.70756,-4.38304 7.18803,-4.51586 6.40678,-4.6096 L 5.7349,-4.70335 C 4.0357,-4.91038 2.8443,-5.30101 2.1568,-5.87525 1.4693,-6.45728 1.1256,-7.33615 1.1256,-8.51585 c 0,-1.2695 0.42969,-2.207 1.2969,-2.8125 0.875,-0.61328 2.2109,-0.92188 4.0156,-0.92188 0.69531,0 1.4297,0.05469 2.2031,0.15625 0.78125,0.10547 1.6289,0.27344 2.5469,0.5 z"
         id="path2498" />
    </symbol>
    <symbol
       id="g"
       overflow="visible">
      <path
         d="m 1.7031,-4.6562 v -7.3125 h 3.8438 v 1.2031 c 0,0.64844 -0.00781,1.4609 -0.015625,2.4375 v 1.9688 c 0,0.96094 0.023438,1.6523 0.078125,2.0781 0.050781,0.41797 0.13281,0.72656 0.25,0.92188 0.15625,0.25 0.35938,0.44531 0.60938,0.57812 0.25781,0.13672 0.55078,0.20312 0.875,0.20312 0.80078,0 1.4258,-0.30469 1.875,-0.92188 0.45703,-0.61328 0.6875,-1.4688 0.6875,-2.5625 v -5.9062 h 3.8281 v 11.969 h -3.8281 v -1.7344 c -0.57422,0.69922 -1.1836,1.2148 -1.8281,1.5469 -0.64844,0.33203 -1.3555,0.5 -2.125,0.5 -1.3867,0 -2.4453,-0.42188 -3.1719,-1.2656 -0.71875,-0.85156 -1.0781,-2.0859 -1.0781,-3.7031 z"
         id="path2501" />
    </symbol>
    <symbol
       id="v"
       overflow="visible">
      <path
         d="m 13.109,-15.438 v 3.375 c -0.875,-0.39453 -1.7305,-0.69141 -2.5625,-0.89062 -0.83594,-0.19531 -1.6211,-0.29688 -2.3594,-0.29688 -0.99219,0 -1.7188,0.13672 -2.1875,0.40625 -0.46875,0.27344 -0.70312,0.6875 -0.70312,1.25 0,0.42969 0.15625,0.76172 0.46875,1 0.32031,0.24219 0.89844,0.44922 1.7344,0.625 l 1.75,0.34375 c 1.7695,0.35547 3.0312,0.89844 3.7812,1.625 0.75,0.73047 1.125,1.7617 1.125,3.0938 0,1.7617 -0.52734,3.0742 -1.5781,3.9375 -1.043,0.85547 -2.6328,1.2812 -4.7656,1.2812 -1.0117,0 -2.0273,-0.10156 -3.0469,-0.29688 -1.0234,-0.1875 -2.043,-0.46875 -3.0625,-0.84375 v -3.4688 c 1.0195,0.53125 2.0039,0.9375 2.9531,1.2188 0.95703,0.27344 1.875,0.40625 2.75,0.40625 0.90625,0 1.5938,-0.14453 2.0625,-0.4375 0.47656,-0.30078 0.71875,-0.73438 0.71875,-1.2969 0,-0.48828 -0.16406,-0.86719 -0.48438,-1.1406 C 9.37848,-5.81691 8.73395,-6.063 7.7652,-6.28176 L 6.1714,-6.64114 c -1.5938,-0.33203 -2.7617,-0.875 -3.5,-1.625 -0.74219,-0.75 -1.1094,-1.7578 -1.1094,-3.0312 0,-1.582 0.50781,-2.8008 1.5312,-3.6562 1.0312,-0.85156 2.5078,-1.2812 4.4375,-1.2812 0.875,0 1.7734,0.07031 2.7031,0.20312 0.92578,0.125 1.8828,0.32422 2.875,0.59375 z"
         id="path2504" />
    </symbol>
    <symbol
       id="u"
       overflow="visible">
      <path
         d="m 9.7031,-16.625 v 2.5156 H 7.5937 c -0.54297,0 -0.92188,0.10156 -1.1406,0.29688 -0.21094,0.19922 -0.3125,0.53906 -0.3125,1.0156 v 0.82812 h 3.2656 v 2.7344 H 6.1406 V 0 H 2.3125 V -9.2344 H 0.4219 v -2.7344 h 1.8906 v -0.82812 c 0,-1.3008 0.36328,-2.2656 1.0938,-2.8906 0.72656,-0.625 1.8516,-0.9375 3.375,-0.9375 z"
         id="path2507" />
    </symbol>
    <symbol
       id="t"
       overflow="visible">
      <path
         d="m 12.922,-9.9688 c 0.48828,-0.75 1.0625,-1.3164 1.7188,-1.7031 0.66406,-0.38281 1.3984,-0.57812 2.2031,-0.57812 1.375,0 2.4219,0.42969 3.1406,1.2812 0.71875,0.84375 1.0781,2.0742 1.0781,3.6875 v 7.2812 h -3.8438 v -6.2344 c 0.0078,-0.09375 0.01563,-0.1875 0.01563,-0.28125 v -0.4375 c 0,-0.84375 -0.125,-1.457 -0.375,-1.8438 -0.25,-0.38281 -0.65234,-0.57812 -1.2031,-0.57812 -0.73047,0 -1.293,0.30469 -1.6875,0.90625 -0.38672,0.59375 -0.58984,1.4609 -0.60938,2.5938 v 5.875 h -3.8438 v -6.2344 c 0,-1.3203 -0.11719,-2.1758 -0.34375,-2.5625 -0.23047,-0.38281 -0.63672,-0.57812 -1.2188,-0.57812 -0.73047,0 -1.2969,0.30469 -1.7031,0.90625 -0.39844,0.60547 -0.59375,1.4648 -0.59375,2.5781 v 5.8906 h -3.8438 v -11.969 h 3.8438 v 1.75 c 0.46875,-0.66406 1.0039,-1.1719 1.6094,-1.5156 0.61328,-0.34375 1.2891,-0.51562 2.0312,-0.51562 0.82031,0 1.5508,0.19922 2.1875,0.59375 0.63281,0.39844 1.1133,0.96094 1.4375,1.6875 z"
         id="path2510" />
    </symbol>
    <symbol
       id="s"
       overflow="visible">
      <path
         d="M 13.859,-7.2812 V 0 h -3.8438 v -5.5469 c 0,-1.0508 -0.027344,-1.7695 -0.078125,-2.1562 -0.042969,-0.39453 -0.12109,-0.6875 -0.23438,-0.875 -0.14844,-0.25 -0.35156,-0.44141 -0.60938,-0.57812 -0.25,-0.14453 -0.54297,-0.21875 -0.875,-0.21875 -0.79297,0 -1.418,0.3125 -1.875,0.9375 -0.46094,0.61719 -0.6875,1.4648 -0.6875,2.5469 V 3e-5 h -3.8125 v -16.625 h 3.8125 v 6.4062 c 0.58203,-0.69531 1.1953,-1.207 1.8438,-1.5312 0.64453,-0.33203 1.3594,-0.5 2.1406,-0.5 1.3828,0 2.4297,0.42969 3.1406,1.2812 0.71875,0.84375 1.0781,2.0742 1.0781,3.6875 z"
         id="path2513" />
    </symbol>
    <symbol
       id="r"
       overflow="visible">
      <path
         d="m 2.0156,-15.953 h 4.5781 l 5.8125,10.938 v -10.938 h 3.8906 V 0 H 11.703 L 5.9061,-10.938 V 0 H 2.0155 Z"
         id="path2516" />
    </symbol>
    <symbol
       id="q"
       overflow="visible">
      <path
         d="m 2.0156,-15.953 h 6.8125 c 2.0312,0 3.5859,0.45312 4.6719,1.3594 1.0938,0.89844 1.6406,2.1797 1.6406,3.8438 0,1.6797 -0.54688,2.9688 -1.6406,3.875 -1.0859,0.89844 -2.6406,1.3438 -4.6719,1.3438 H 6.125 V 2e-4 H 2.0156 Z m 4.1094,2.9844 v 4.4531 h 2.2656 c 0.80078,0 1.4141,-0.19141 1.8438,-0.57812 0.4375,-0.38281 0.65625,-0.9375 0.65625,-1.6562 0,-0.70703 -0.21875,-1.2539 -0.65625,-1.6406 -0.42969,-0.38281 -1.043,-0.57812 -1.8438,-0.57812 z"
         id="path2519" />
    </symbol>
    <symbol
       id="p"
       overflow="visible">
      <path
         d="m 1.8438,-11.969 h 3.8125 v 11.75 c 0,1.6016 -0.38672,2.8281 -1.1562,3.6719 C 3.73838,4.29665 2.629,4.7185 1.172,4.7185 h -1.8906 v -2.5 h 0.65625 c 0.72656,0 1.2266,-0.16797 1.5,-0.5 C 1.70718,1.39428 1.8439,0.74975 1.8439,-0.219 Z m 0,-4.6562 h 3.8125 v 3.125 H 1.8438 Z"
         id="path2522" />
    </symbol>
    <symbol
       id="o"
       overflow="visible">
      <path
         d="m 11.5,-11.594 v 3.125 C 10.97656,-8.82056 10.457,-9.08228 9.9375,-9.25025 9.41406,-9.42603 8.875,-9.51587 8.3125,-9.51587 c -1.0742,0 -1.9062,0.3125 -2.5,0.9375 -0.5938,0.625 -0.89062,1.4961 -0.89062,2.6094 0,1.1172 0.29688,1.9844 0.89062,2.6094 0.59374,0.625 1.4258,0.9375 2.5,0.9375 0.59375,0 1.1562,-0.085937 1.6875,-0.26562 0.53906,-0.17578 1.0391,-0.44141 1.5,-0.79688 v 3.125 c -0.59375,0.23047 -1.1992,0.39453 -1.8125,0.5 -0.61719,0.11328 -1.2344,0.17188 -1.8594,0.17188 -2.1562,0 -3.8438,-0.55078 -5.0625,-1.6562 -1.2188,-1.1133 -1.8281,-2.6562 -1.8281,-4.625 0,-1.9688 0.60938,-3.5039 1.8281,-4.6094 1.2188,-1.1133 2.9062,-1.6719 5.0625,-1.6719 0.625,0 1.2383,0.05859 1.8438,0.17188 0.61328,0.10547 1.2227,0.26562 1.8281,0.48438 z"
         id="path2525" />
    </symbol>
  </defs>
  <path
     style="fill:#00ffff;stroke-width:0.061705"
     d="M 23.131675,3.025234 C 20.44158,3.047597 17.748127,2.99917 15.060247,3.101281 13.614197,3.3080365 12.343293,4.4259885 11.945413,5.8312464 10.246718,10.640526 8.5681946,15.458007 6.9390445,20.290953 c -0.047386,0.516042 0.54055,0.511294 0.9030287,0.485152 6.4380008,0.04199 12.8761088,0.06493 19.3141678,0.0961 0.592364,0.275606 0.903838,0.943538 0.770469,1.578058 -0.113198,0.51741 -0.572138,1.024809 -1.146605,0.918706 -6.883963,0.09676 -13.782486,0.07466 -20.6721502,0.110876 -0.5303414,0.115109 -0.4859932,0.80076 -0.7000142,1.201807 -0.5491307,1.648847 -1.1841434,3.27574 -1.6582662,4.946053 0.040001,0.544826 0.666749,0.420308 1.048593,0.439126 9.7339786,0.108445 19.4688826,0.04797 29.2032546,0.05013 3.864266,-0.0127 7.72904,-4.87e-4 11.592955,-0.04384 0.439492,-0.07476 0.402702,-0.563369 0.244409,-0.870499 C 43.308173,21.690101 40.684013,14.209173 38.070238,6.7252298 37.696864,5.816163 37.503861,4.7413823 36.692079,4.0986846 35.9349,3.3488592 34.855129,2.9908166 33.798588,3.0647903 30.243227,3.0195612 26.687262,3.0256838 23.131675,3.025234 Z m 11.36156,17.652702 c 0.771468,-0.04372 1.466257,0.636782 1.42018,1.411503 0.09699,0.865593 -0.758197,1.65188 -1.614093,1.471761 -1.061751,-0.102662 -1.546297,-1.4868 -0.933409,-2.298995 0.252023,-0.36509 0.677575,-0.606767 1.127322,-0.584269 z"
     id="path2"
     class="active"
     transform="scale(0.75)"
     inkscape:label="active" />
  <path
     id="path2532"
     style="stroke-width:0.142992"
     d="m 25.887134,15.227497 c -0.745113,0.0162 -1.341115,0.624477 -1.341115,1.369596 0,0.745117 0.596002,1.353965 1.341115,1.369594 0.745113,-0.01564 1.340553,-0.624477 1.340553,-1.369594 0,-0.745119 -0.59544,-1.353395 -1.340553,-1.369596 z M 37.217853,23.173582 30.437442,3.507845 C 30.083865,2.4839913 29.420289,1.595894 28.538358,0.96687186 27.656382,0.33849169 26.600664,0 25.517639,0 H 11.765784 C 10.68273,0 9.6264801,0.337934 8.7445041,0.96687186 7.8625281,1.5958082 7.1988931,2.4838774 6.8454191,3.507845 L 0.06500917,23.173582 c -0.127958,0.382618 -0.0647900014,0.803216 0.169806,1.131656 0.234584,0.328438 0.612171,0.524495 1.01546603,0.527283 H 16.646267 v 17.40943 l -5.891141,5.71e-4 c -1.2439119,0.0016 -2.4358709,0.496571 -3.3157019,1.376301 -0.87918,0.879174 -1.374073,2.071673 -1.376307,3.315708 v 1.814286 c 0,0.331786 0.131804,0.650172 0.366418,0.884765 C 6.6641341,49.868175 6.9825191,50 7.3143071,50 H 28.482885 c 0.331787,0 0.649611,-0.131819 0.884772,-0.366418 0.234584,-0.234593 0.366417,-0.552979 0.366417,-0.884765 v -1.814286 c -0.003,-1.243919 -0.497127,-2.436448 -1.376854,-3.315708 -0.87918,-0.87973 -2.071687,-1.374628 -3.315139,-1.376301 H 19.148646 V 34.862366 24.831663 h 8.110386 v 8.021782 c -4.356256,1.434928 -3.419517,7.853425 1.223808,7.931642 4.60979,-0.07316 5.583422,-6.427362 1.278556,-7.909192 v -8.044232 h 6.272071 c 0.403282,-0.0028 0.780868,-0.198845 1.015481,-0.527283 0.234585,-0.32844 0.297705,-0.749038 0.169245,-1.131656 z m -9.986587,23.762579 v 0.563031 H 8.5636171 v -0.563031 c 0.0011,-0.58035 0.231803,-1.136676 0.642348,-1.547177 0.410544,-0.410546 0.9668719,-0.641235 1.5471779,-0.642351 h 14.286364 c 0.580898,5.71e-4 1.137788,0.231247 1.548317,0.641793 0.411107,0.410545 0.642348,0.96687 0.643472,1.547748 z m 1.251175,-8.65567 v 5.73e-4 c -0.850689,-5.73e-4 -1.542741,-0.683676 -1.555033,-1.53388 -0.01183,-0.850132 0.661341,-1.552181 1.510847,-1.576205 0.03802,0.0062 0.07707,0.0062 0.115088,0 0.859624,0.01956 1.540448,0.732279 1.520433,1.591934 -0.01953,0.859627 -0.732273,1.540028 -1.591365,1.520438 z M 3.0012162,22.329926 4.5462491,17.848547 H 19.997989 v 5.72e-4 c 0.691504,0 1.25119,-0.560244 1.25119,-1.251183 0,-0.690939 -0.559686,-1.251184 -1.25119,-1.251184 H 5.4099121 L 9.2103731,4.3269043 C 9.3941441,3.7951448 9.7387721,3.3343374 10.196786,3.0081296 10.654801,2.6813627 11.20277,2.5059838 11.765266,2.5059838 h 13.751856 c 0.562481,0 1.110421,0.1753937 1.568495,0.5021458 0.457452,0.3261945 0.802094,0.7870152 0.985851,1.3187747 l 6.209586,18.0027367 z"
     sodipodi:nodetypes="cscsccccssscccccccccsssscscccccccccccccccccccccccccccccccccccccsscccsscccc" />
</svg>
