<?xml version="1.0" encoding="UTF-8" standalone="no"?>
<svg
   width="50pt"
   height="50pt"
   version="1.1"
   viewBox="-13 0 50 50"
   id="svg10438"
   sodipodi:docname="thermometer.svg"
   inkscape:version="1.2.2 (b0a8486541, 2022-12-01)"
   xmlns:inkscape="http://www.inkscape.org/namespaces/inkscape"
   xmlns:sodipodi="http://sodipodi.sourceforge.net/DTD/sodipodi-0.dtd"
   xmlns="http://www.w3.org/2000/svg"
   xmlns:svg="http://www.w3.org/2000/svg">
  <sodipodi:namedview
     id="namedview10440"
     pagecolor="#ffffff"
     bordercolor="#000000"
     borderopacity="0.25"
     inkscape:showpageshadow="2"
     inkscape:pageopacity="0.0"
     inkscape:pagecheckerboard="0"
     inkscape:deskcolor="#d1d1d1"
     inkscape:document-units="pt"
     showgrid="false"
     inkscape:zoom="7.0153427"
     inkscape:cx="45.970669"
     inkscape:cy="57.516791"
     inkscape:window-width="3740"
     inkscape:window-height="1476"
     inkscape:window-x="1112"
     inkscape:window-y="56"
     inkscape:window-maximized="1"
     inkscape:current-layer="svg10438" />
  <defs
     id="defs10418">
    <symbol
       id="e"
       overflow="visible">
      <path
         d="m 39.078,-2.3281 c -2.0117,1.043 -4.1094,1.8281 -6.2969,2.3594 -2.1875,0.5313 -4.4648,0.79688 -6.8281,0.79688 -7.0859,0 -12.699,-1.9766 -16.844,-5.9375 -4.1367,-3.957 -6.2031,-9.3281 -6.2031,-16.109 0,-6.7891 2.0664,-12.164 6.2031,-16.125 4.1445,-3.9688 9.7578,-5.9531 16.844,-5.9531 2.3633,0 4.6406,0.26562 6.8281,0.79688 2.1875,0.53126 4.2852,1.3242 6.2969,2.375 v 8.7969 c -2.0312,-1.3828 -4.0391,-2.3984 -6.0156,-3.0469 -1.9688,-0.64453 -4.0469,-0.96875 -6.2344,-0.96875 -3.9062,0 -6.9844,1.2578 -9.2344,3.7656 -2.2422,2.5 -3.3594,5.9531 -3.3594,10.359 0,4.3867 1.1172,7.8359 3.3594,10.344 2.25,2.5 5.3281,3.75 9.2344,3.75 2.1875,0 4.2656,-0.32031 6.2344,-0.96875 1.9766,-0.64453 3.9844,-1.6602 6.0156,-3.0469 z"
         id="path10403" />
    </symbol>
    <symbol
       id="a"
       overflow="visible">
      <path
         d="m 16.031,-40.953 v 9.0625 h 10.516 v 7.2812 H 16.031 v 13.531 c 0,1.4805 0.28906,2.4805 0.875,3 0.59375,0.52344 1.7656,0.78125 3.5156,0.78125 h 5.2344 v 7.2969 h -8.7344 c -4.0312,0 -6.8867,-0.83594 -8.5625,-2.5156 -1.6797,-1.6875 -2.5156,-4.5391 -2.5156,-8.5625 v -13.531 H 0.7654 v -7.2812 h 5.0781 v -9.0625 z"
         id="path10406" />
    </symbol>
    <symbol
       id="d"
       overflow="visible">
      <path
         d="M 26.594,-27.234 V -44.312 H 36.86 V 0 H 26.594 v -4.6094 c -1.3984,1.875 -2.9453,3.25 -4.6406,4.125 -1.6875,0.875 -3.6406,1.3125 -5.8594,1.3125 -3.9297,0 -7.1562,-1.5625 -9.6875,-4.6875 -2.5234,-3.125 -3.7812,-7.1445 -3.7812,-12.062 0,-4.9141 1.2578,-8.9375 3.7812,-12.062 2.5312,-3.125 5.7578,-4.6875 9.6875,-4.6875 2.1953,0 4.1445,0.44531 5.8438,1.3281 1.707,0.88672 3.2578,2.2578 4.6562,4.1094 z m -6.7188,20.656 c 2.1875,0 3.8516,-0.79688 5,-2.3906 1.1445,-1.5938 1.7188,-3.9102 1.7188,-6.9531 0,-3.0391 -0.57422,-5.3594 -1.7188,-6.9531 -1.1484,-1.5938 -2.8125,-2.3906 -5,-2.3906 -2.168,0 -3.8242,0.79688 -4.9688,2.3906 -1.1484,1.5938 -1.7188,3.9141 -1.7188,6.9531 0,3.043 0.57031,5.3594 1.7188,6.9531 1.1445,1.5938 2.8008,2.3906 4.9688,2.3906 z"
         id="path10409" />
    </symbol>
    <symbol
       id="c"
       overflow="visible">
      <path
         d="m 21.875,-6.5781 c 2.1758,0 3.8359,-0.79688 4.9844,-2.3906 1.1562,-1.5938 1.7344,-3.9102 1.7344,-6.9531 0,-3.0391 -0.57812,-5.3594 -1.7344,-6.9531 -1.1484,-1.5938 -2.8086,-2.3906 -4.9844,-2.3906 -2.1875,0 -3.8672,0.80469 -5.0312,2.4062 -1.168,1.6055 -1.75,3.918 -1.75,6.9375 0,3.0234 0.58203,5.3359 1.75,6.9375 1.1641,1.6055 2.8438,2.4062 5.0312,2.4062 z m -6.7812,-20.656 c 1.4062,-1.8516 2.9609,-3.2227 4.6719,-4.1094 1.707,-0.88281 3.6719,-1.3281 5.8906,-1.3281 3.9375,0 7.1641,1.5625 9.6875,4.6875 2.5195,3.125 3.7812,7.1484 3.7812,12.062 0,4.918 -1.2617,8.9375 -3.7812,12.062 -2.5234,3.125 -5.75,4.6875 -9.6875,4.6875 -2.2188,0 -4.1836,-0.44531 -5.8906,-1.3281 -1.7109,-0.88281 -3.2656,-2.2539 -4.6719,-4.1094 V -7e-4 H 4.9058 v -44.312 h 10.188 z"
         id="path10412" />
    </symbol>
    <symbol
       id="b"
       overflow="visible">
      <path
         d="m 0.28125,-42.516 h 11.031 l 11.266,31.375 11.25,-31.375 h 11.031 L 29.10925,0 h -13.078 z"
         id="path10415" />
    </symbol>
  </defs>
  <path
     id="path10422"
     style="stroke-width:0.0892854"
     d="M 19.003533,25.937586 V 6.1456923 C 19.003533,2.7082046 16.295333,0 12.857843,0 9.4203531,0 6.7121531,2.7082046 6.7121531,6.1456923 V 25.937586 C 2.0246731,28.541862 -0.68353692,33.750058 0.14967308,39.167003 0.98288308,44.791983 5.6703731,49.375002 11.399633,50 h 1.45821 c 3.43749,0 6.66676,-1.354281 9.06247,-3.749987 2.3957,-2.395705 3.74999,-5.62498 3.74999,-9.062467 0,-4.687484 -2.60428,-9.062468 -6.66677,-11.24996 z m 1.45857,18.854397 c -2.29178,2.291777 -5.52069,3.437488 -8.85425,3.124989 -4.7917699,-0.520713 -8.7499699,-4.374985 -9.3749699,-9.062468 -0.72928,-4.687483 1.66678,-9.270503 5.93748,-11.354424 0.3125,-0.208213 0.625,-0.520712 0.625,-0.937496 V 6.1456923 c 0,-2.2914204 1.7706999,-4.0624855 4.0624799,-4.0624855 2.29178,0 4.06249,1.8749933 4.06249,4.0624855 V 26.562584 c 0,0.416784 0.20821,0.729283 0.62499,0.937496 3.74999,1.770708 6.1457,5.520695 6.1457,9.687466 -0.10394,2.81249 -1.14571,5.520694 -3.22892,7.604258 z m -6.56212,-13.749951 v -17.9169 c 0,-0.624998 -0.41678,-1.041782 -1.04178,-1.041782 -0.625,0 -1.04178,0.416784 -1.04178,1.041782 v 17.9169 c -2.9167799,0.520712 -5.2081999,3.020703 -5.2081999,6.145692 0,3.437488 2.81249,6.249978 6.2499799,6.249978 3.43749,0 6.24998,-2.81249 6.24998,-6.249978 0,-3.124989 -2.29178,-5.62498 -5.2082,-6.145692 z m -1.04178,10.207999 c -2.29178,0 -4.1667699,-1.874993 -4.1667699,-4.166771 0,-2.291777 1.8749899,-4.16677 4.1667699,-4.16677 2.29178,0 4.16677,1.874993 4.16677,4.16677 0,2.396063 -1.87499,4.166771 -4.16677,4.166771 z" />
</svg>
