<?xml version="1.0" encoding="UTF-8" standalone="no"?>
<svg
   width="50pt"
   height="50pt"
   version="1.1"
   viewBox="0 0 50 50"
   id="svg11261"
   sodipodi:docname="tv.svg"
   inkscape:version="1.3 (0e150ed6c4, 2023-07-21)"
   xmlns:inkscape="http://www.inkscape.org/namespaces/inkscape"
   xmlns:sodipodi="http://sodipodi.sourceforge.net/DTD/sodipodi-0.dtd"
   xmlns="http://www.w3.org/2000/svg"
   xmlns:svg="http://www.w3.org/2000/svg">
  <sodipodi:namedview
     id="namedview11263"
     pagecolor="#ffffff"
     bordercolor="#000000"
     borderopacity="0.25"
     inkscape:showpageshadow="2"
     inkscape:pageopacity="0.0"
     inkscape:pagecheckerboard="0"
     inkscape:deskcolor="#d1d1d1"
     inkscape:document-units="pt"
     showgrid="false"
     inkscape:zoom="8.6261189"
     inkscape:cx="35.357732"
     inkscape:cy="33.560864"
     inkscape:window-width="2101"
     inkscape:window-height="1489"
     inkscape:window-x="0"
     inkscape:window-y="0"
     inkscape:window-maximized="1"
     inkscape:current-layer="svg11261" />
  <defs
     id="defs11209">
    <symbol
       id="o"
       overflow="visible">
      <path
         d="m 36.078,-2.1562 c -1.8672,0.96875 -3.8086,1.6992 -5.8281,2.1875 -2.0117,0.48828 -4.1094,0.73438 -6.2969,0.73438 -6.543,0 -11.727,-1.8281 -15.547,-5.4844 -3.8125,-3.6562 -5.7188,-8.6133 -5.7188,-14.875 0,-6.2695 1.9062,-11.234 5.7188,-14.891 3.8203,-3.6562 9.0039,-5.4844 15.547,-5.4844 2.1875,0 4.2852,0.25 6.2969,0.75 2.0195,0.49219 3.9609,1.2148 5.8281,2.1719 v 8.125 c -1.875,-1.2812 -3.7266,-2.2188 -5.5469,-2.8125 -1.8242,-0.59375 -3.7461,-0.89062 -5.7656,-0.89062 -3.6172,0 -6.4609,1.1562 -8.5312,3.4688 -2.0625,2.3125 -3.0938,5.5 -3.0938,9.5625 0,4.0547 1.0312,7.2344 3.0938,9.5469 2.0703,2.3125 4.9141,3.4688 8.5312,3.4688 2.0195,0 3.9414,-0.29688 5.7656,-0.89062 1.8203,-0.59375 3.6719,-1.5312 5.5469,-2.8125 z"
         id="path11164" />
    </symbol>
    <symbol
       id="i"
       overflow="visible">
      <path
         d="m 26.391,-21.422 c -0.82422,-0.38281 -1.6406,-0.67188 -2.4531,-0.85938 -0.8125,-0.1875 -1.6328,-0.28125 -2.4531,-0.28125 -2.4297,0 -4.293,0.77734 -5.5938,2.3281 -1.3047,1.5547 -1.9531,3.7773 -1.9531,6.6719 v 13.562 H 4.516 v -29.453 h 9.4219 v 4.8438 c 1.207,-1.9258 2.5938,-3.332 4.1562,-4.2188 1.5703,-0.88281 3.4531,-1.3281 5.6406,-1.3281 0.32031,0 0.66406,0.01563 1.0312,0.04687 0.36328,0.02344 0.89844,0.07422 1.6094,0.15625 z"
         id="path11167" />
    </symbol>
    <symbol
       id="b"
       overflow="visible">
      <path
         d="m 33.922,-14.797 v 2.6719 H 11.906 c 0.22656,2.2109 1.0234,3.8672 2.3906,4.9688 1.375,1.1055 3.2852,1.6562 5.7344,1.6562 1.9766,0 4.0039,-0.28906 6.0781,-0.875 2.082,-0.58203 4.2188,-1.4727 6.4062,-2.6719 v 7.2656 c -2.2188,0.83594 -4.4453,1.4648 -6.6719,1.8906 -2.2305,0.4375 -4.4531,0.65625 -6.6719,0.65625 -5.3359,0 -9.4805,-1.3516 -12.438,-4.0625 -2.9492,-2.707 -4.4219,-6.5078 -4.4219,-11.406 0,-4.8008 1.4453,-8.5781 4.3438,-11.328 2.9062,-2.75 6.8984,-4.125 11.984,-4.125 4.625,0 8.3281,1.3984 11.109,4.1875 2.7812,2.7812 4.1719,6.5078 4.1719,11.172 z m -9.6875,-3.1406 c 0,-1.7812 -0.52344,-3.2188 -1.5625,-4.3125 -1.043,-1.0938 -2.4023,-1.6406 -4.0781,-1.6406 -1.8242,0 -3.3086,0.51172 -4.4531,1.5312 -1.1367,1.0234 -1.8438,2.4961 -2.125,4.4219 z"
         id="path11170" />
    </symbol>
    <symbol
       id="h"
       overflow="visible">
      <path
         d="m 17.719,-13.25 c -1.9609,0 -3.4375,0.33594 -4.4375,1 -0.99219,0.66797 -1.4844,1.6484 -1.4844,2.9375 0,1.1992 0.39844,2.1367 1.2031,2.8125 0.80078,0.66797 1.9102,1 3.3281,1 1.7695,0 3.2578,-0.63281 4.4688,-1.9062 1.207,-1.2695 1.8125,-2.8594 1.8125,-4.7656 v -1.0781 z m 14.375,-3.5469 V 1e-4 h -9.4844 v -4.3594 c -1.2617,1.7812 -2.6836,3.0859 -4.2656,3.9062 -1.5742,0.8125 -3.4922,1.2188 -5.75,1.2188 -3.0547,0 -5.5312,-0.89062 -7.4375,-2.6719 -1.8984,-1.7812 -2.8438,-4.0859 -2.8438,-6.9219 0,-3.457 1.1875,-5.9883 3.5625,-7.5938 2.375,-1.6133 6.1016,-2.4219 11.188,-2.4219 h 5.5469 v -0.75 c 0,-1.4883 -0.58984,-2.5781 -1.7656,-3.2656 -1.168,-0.6875 -2.9961,-1.0312 -5.4844,-1.0312 -2.0234,0 -3.9023,0.20312 -5.6406,0.60938 -1.7305,0.39844 -3.3398,0.99609 -4.8281,1.7969 v -7.1719 c 2.0078,-0.48828 4.0312,-0.85938 6.0625,-1.1094 2.0391,-0.25781 4.0781,-0.39062 6.1094,-0.39062 5.3125,0 9.1445,1.0469 11.5,3.1406 2.3516,2.0938 3.5312,5.5 3.5312,10.219 z"
         id="path11173" />
    </symbol>
    <symbol
       id="a"
       overflow="visible">
      <path
         d="m 14.797,-37.812 v 8.3594 h 9.7031 v 6.7344 H 14.797 v 12.484 c 0,1.375 0.26953,2.3047 0.8125,2.7812 0.55078,0.48047 1.6289,0.71875 3.2344,0.71875 h 4.8438 v 6.7344 h -8.0781 c -3.7109,0 -6.3398,-0.77344 -7.8906,-2.3281 -1.5547,-1.5508 -2.3281,-4.1875 -2.3281,-7.9062 v -12.484 H 0.7034 v -6.7344 h 4.6875 v -8.3594 z"
         id="path11176" />
    </symbol>
    <symbol
       id="g"
       overflow="visible">
      <path
         d="m 24.562,-25.141 v -15.766 h 9.4531 V -0.001 H 24.562 v -4.2656 c -1.3047,1.7422 -2.7344,3.0156 -4.2969,3.8281 -1.5547,0.80078 -3.3555,1.2031 -5.4062,1.2031 -3.6367,0 -6.6211,-1.4414 -8.9531,-4.3281 -2.3242,-2.8828 -3.4844,-6.5977 -3.4844,-11.141 0,-4.5312 1.1602,-8.2383 3.4844,-11.125 2.332,-2.8828 5.3164,-4.3281 8.9531,-4.3281 2.0312,0 3.8281,0.41406 5.3906,1.2344 1.5703,0.8125 3.0078,2.0742 4.3125,3.7812 z m -6.2188,19.062 c 2.0195,0 3.5625,-0.73438 4.625,-2.2031 1.0625,-1.46872 1.5938,-3.6094 1.5938,-6.4219 0,-2.8008 -0.53125,-4.9375 -1.5938,-6.4062 -1.06255,-1.4687 -2.6055,-2.2031 -4.625,-2.2031 -1.9922,0 -3.5156,0.73438 -4.5781,2.2031 -1.0625,1.46872 -1.5938,3.6055 -1.5938,6.4062 0,2.8125 0.53125,4.9531 1.5938,6.4219 1.06255,1.4688 2.5859,2.2031 4.5781,2.2031 z"
         id="path11179" />
    </symbol>
    <symbol
       id="f"
       overflow="visible">
      <path
         d="m 20.188,-6.0781 c 2.0195,0 3.5547,-0.73438 4.6094,-2.2031 1.0625,-1.4688 1.5938,-3.6094 1.5938,-6.4219 0,-2.8008 -0.53125,-4.9375 -1.5938,-6.4062 -1.0547,-1.4688 -2.5898,-2.2031 -4.6094,-2.2031 -2.0117,0 -3.5586,0.74219 -4.6406,2.2188 -1.0742,1.4805 -1.6094,3.6094 -1.6094,6.3906 0,2.793 0.53516,4.9297 1.6094,6.4062 1.082,1.4805 2.6289,2.2188 4.6406,2.2188 z m -6.25,-19.062 c 1.2891,-1.707 2.7227,-2.9688 4.2969,-3.7812 1.582,-0.82031 3.3984,-1.2344 5.4531,-1.2344 3.625,0 6.6016,1.4453 8.9375,4.3281 2.332,2.8867 3.5,6.5938 3.5,11.125 0,4.543 -1.168,8.2578 -3.5,11.141 -2.3359,2.8867 -5.3125,4.3281 -8.9375,4.3281 -2.0547,0 -3.8711,-0.40625 -5.4531,-1.2188 -1.5742,-0.82031 -3.0078,-2.0938 -4.2969,-3.8125 V 8e-4 H 4.5161 v -40.906 h 9.4219 z"
         id="path11182" />
    </symbol>
    <symbol
       id="e"
       overflow="visible">
      <path
         d="m 0.65625,-29.453 h 9.4062 l 7.9219,19.984 6.7344,-19.984 h 9.4062 l -12.375,32.234 c -1.25,3.2812 -2.7031,5.5703 -4.3594,6.875 -1.6562,1.3125 -3.8438,1.9688 -6.5625,1.9688 H 5.39055 V 5.4373 h 2.9375 c 1.6016,0 2.7656,-0.25781 3.4844,-0.76562 0.72656,-0.5 1.2969,-1.4062 1.7031,-2.7188 l 0.26562,-0.82812 z"
         id="path11185" />
    </symbol>
    <symbol
       id="d"
       overflow="visible">
      <path
         d="m 15.062,-31.609 v 23.953 h 3.625 c 4.1328,0 7.2891,-1.0195 9.4688,-3.0625 2.1875,-2.0508 3.2812,-5.0352 3.2812,-8.9531 0,-3.8828 -1.0898,-6.8438 -3.2656,-8.875 -2.168,-2.0391 -5.3281,-3.0625 -9.4844,-3.0625 z M 4.937,-39.2496 h 10.672 c 5.9688,0 10.41,0.42969 13.328,1.2812 2.9141,0.84375 5.4141,2.2812 7.5,4.3125 1.8438,1.7734 3.207,3.8125 4.0938,6.125 0.89453,2.3125 1.3438,4.9336 1.3438,7.8594 0,2.9688 -0.44922,5.6172 -1.3438,7.9375 -0.88672,2.3242 -2.25,4.3711 -4.0938,6.1406 -2.1055,2.0312 -4.6328,3.4766 -7.5781,4.3281 C 25.9214,-0.42155 21.5034,3e-4 15.6089,3e-4 H 4.9369 Z"
         id="path11188" />
    </symbol>
    <symbol
       id="n"
       overflow="visible">
      <path
         d="m 4.5156,-29.453 h 9.4219 V 0 H 4.5156 Z m 0,-11.453 h 9.4219 v 7.6719 H 4.5156 Z"
         id="path11191" />
    </symbol>
    <symbol
       id="m"
       overflow="visible">
      <path
         d="M 34.125,-17.938 V 0 h -9.4688 v -13.719 c 0,-2.5391 -0.05859,-4.2891 -0.17188,-5.25 -0.11719,-0.96875 -0.3125,-1.6797 -0.59375,-2.1406 -0.36719,-0.61328 -0.86719,-1.0938 -1.5,-1.4375 -0.625,-0.34375 -1.3398,-0.51562 -2.1406,-0.51562 -1.9688,0 -3.5156,0.76172 -4.6406,2.2812 -1.1172,1.5117 -1.6719,3.6094 -1.6719,6.2969 v 14.484 h -9.4219 v -29.453 h 9.4219 v 4.3125 c 1.4141,-1.707 2.9219,-2.9688 4.5156,-3.7812 1.5938,-0.82031 3.3516,-1.2344 5.2812,-1.2344 3.4062,0 5.9883,1.0469 7.75,3.1406 1.7578,2.0859 2.6406,5.1094 2.6406,9.0781 z"
         id="path11194" />
    </symbol>
    <symbol
       id="c"
       overflow="visible">
      <path
         d="m 18.531,-23.422 c -2.0859,0 -3.6719,0.75 -4.7656,2.25 -1.0937,1.5 -1.6406,3.6562 -1.6406,6.4688 0,2.8242 0.54688,4.9844 1.6406,6.4844 1.09372,1.5 2.6797,2.25 4.7656,2.25 2.0508,0 3.6172,-0.75 4.7031,-2.25 1.0938,-1.5 1.6406,-3.6602 1.6406,-6.4844 0,-2.8125 -0.54688,-4.9688 -1.6406,-6.4688 -1.0859,-1.5 -2.6523,-2.25 -4.7031,-2.25 z m 0,-6.7344 c 5.0703,0 9.0312,1.3711 11.875,4.1094 2.8438,2.7305 4.2656,6.5117 4.2656,11.344 0,4.8438 -1.4219,8.6367 -4.2656,11.375 -2.8438,2.7305 -6.8047,4.0938 -11.875,4.0938 -5.0859,0 -9.0586,-1.3633 -11.922,-4.0938 -2.8672,-2.7383 -4.2969,-6.5312 -4.2969,-11.375 0,-4.832 1.4297,-8.6133 4.2969,-11.344 2.8633,-2.7383 6.8359,-4.1094 11.922,-4.1094 z"
         id="path11197" />
    </symbol>
    <symbol
       id="l"
       overflow="visible">
      <path
         d="m 27.531,-28.531 v 7.1562 c -2.0234,-0.84375 -3.9688,-1.4727 -5.8438,-1.8906 -1.875,-0.41406 -3.6484,-0.625 -5.3125,-0.625 -1.7812,0 -3.1094,0.22656 -3.9844,0.67188 -0.86719,0.4375 -1.2969,1.1211 -1.2969,2.0469 0,0.76172 0.32812,1.3438 0.98438,1.75 0.65625,0.39844 1.832,0.69531 3.5312,0.89062 l 1.6562,0.23438 c 4.8203,0.61719 8.0664,1.625 9.7344,3.0312 1.6641,1.3984 2.5,3.5938 2.5,6.5938 0,3.1367 -1.1562,5.4961 -3.4688,7.0781 -2.3125,1.5742 -5.7656,2.3594 -10.359,2.3594 -1.9492,0 -3.9648,-0.15625 -6.0469,-0.46875 -2.0742,-0.30078 -4.2031,-0.75781 -6.3906,-1.375 v -7.1562 c 1.875,0.91797 3.7969,1.6055 5.7656,2.0625 1.9766,0.44922 3.9844,0.67188 6.0156,0.67188 1.832,0 3.2109,-0.25 4.1406,-0.75 0.9375,-0.50781 1.4062,-1.2656 1.4062,-2.2656 0,-0.84375 -0.32422,-1.4688 -0.96875,-1.875 -0.63672,-0.41406 -1.9062,-0.73828 -3.8125,-0.96875 l -1.6562,-0.20312 c -4.1992,-0.53125 -7.1406,-1.5039 -8.8281,-2.9219 -1.6797,-1.4141 -2.5156,-3.5703 -2.5156,-6.4688 0,-3.125 1.0664,-5.4375 3.2031,-6.9375 2.1445,-1.5078 5.4258,-2.2656 9.8438,-2.2656 1.7383,0 3.5625,0.13672 5.4688,0.40625 1.9062,0.26172 3.9844,0.66797 6.2344,1.2188 z"
         id="path11200" />
    </symbol>
    <symbol
       id="k"
       overflow="visible">
      <path
         d="m 23.891,-40.906 v 6.1719 h -5.2031 c -1.3359,0 -2.2617,0.24609 -2.7812,0.73438 -0.52344,0.48047 -0.78125,1.3125 -0.78125,2.5 v 2.0469 h 8.0312 v 6.7344 h -8.0312 v 22.719 h -9.4219 v -22.719 h -4.6719 v -6.7344 h 4.6719 v -2.0469 c 0,-3.207 0.89062,-5.5781 2.6719,-7.1094 1.7891,-1.5312 4.5625,-2.2969 8.3125,-2.2969 z"
         id="path11203" />
    </symbol>
    <symbol
       id="j"
       overflow="visible">
      <path
         d="m 4.9375,-39.25 h 10.125 v 31.594 h 17.781 V 2e-4 H 4.9375 Z"
         id="path11206" />
    </symbol>
  </defs>
  <path
     style="fill:#00ffff;stroke-width:0.115927"
     d="m 18.985309,26.112555 c -1.714387,0.07159 -3.461791,-0.112192 -5.156034,0.184079 -2.569991,0.708702 -4.5855022,3.27342 -4.3807725,5.981334 -0.060011,4.883312 -0.130451,9.773795 0.072454,14.65367 0.4427943,2.293692 2.3874185,4.329778 4.7267425,4.664477 5.611389,0.181991 11.229712,0.06282 16.843827,0.09479 2.192533,-0.05703 4.406315,0.10038 6.585199,-0.176303 2.546509,-0.694392 4.476023,-3.268825 4.25717,-5.929896 0.01681,-5.003563 0.01254,-10.014842 -0.06116,-15.013718 -0.671736,-2.177785 -2.534868,-3.970131 -4.774969,-4.424121 -6.037476,-0.01208 -12.074963,-0.04732 -18.11246,-0.03431 z m 12.853631,4.895424 c 2.706228,-0.212781 5.246199,2.152674 5.24211,4.860869 0.08499,0.539245 -0.03719,1.230624 -0.704202,1.292545 -0.694425,0.223217 -1.393506,-0.38424 -1.321386,-1.106967 -0.0594,-1.671512 -1.591336,-3.061459 -3.236447,-3.030404 -0.63565,-0.04787 -1.009243,-0.610977 -0.869452,-1.21746 -0.0103,-0.441308 0.439977,-0.926231 0.889377,-0.798583 z"
     id="path1"
     class="active"
     transform="scale(0.75)"
     inkscape:label="active" />
  <path
     id="path11221"
     d="M 41.64722,37.514262 H 39.5662 c -0.62423,0 -1.04056,0.416282 -1.04056,1.040559 0,1.560548 2.18517,0.936348 3.12158,1.040559 0.62423,0 1.04056,-0.416282 1.04056,-1.040559 0,-0.624277 -0.41628,-1.040559 -1.04056,-1.040559 z m -1.04056,-9.364061 c -1.76895,0 -3.12158,1.352629 -3.12158,3.121579 0,1.76895 1.35263,3.121579 3.12158,3.121579 1.76895,0 3.12158,-1.352629 3.12158,-3.121579 0,-1.76895 -1.35263,-3.121579 -3.12158,-3.121579 z m 0,4.161655 c -0.62423,0 -1.04056,-0.416282 -1.04056,-1.040559 0,-0.624229 0.41628,-1.040559 1.04056,-1.040559 0.62423,0 1.04056,0.416282 1.04056,1.040559 0,0.624606 -0.41628,1.040559 -1.04056,1.040559 z m 0,-13.526683 c -1.76895,0 -3.12158,1.352629 -3.12158,3.121579 0,1.76895 1.35263,3.121579 3.12158,3.121579 1.76895,0 3.12158,-1.352629 3.12158,-3.121579 0,-1.76895 -1.35263,-3.121579 -3.12158,-3.121579 z m 0,4.162041 c -0.62423,0 -1.04056,-0.416281 -1.04056,-1.040559 0,-0.624229 0.41628,-1.040558 1.04056,-1.040558 0.62423,0 1.04056,0.416281 1.04056,1.040558 0,0.624229 -0.41628,1.040559 -1.04056,1.040559 z m -16.64797,1.93e-4 c -0.62423,0 -1.04056,0.416282 -1.04056,1.040559 0,0.624229 0.41628,1.040559 1.04056,1.040559 1.14471,0 2.08102,0.936348 2.08102,2.08102 0,0.624229 0.41628,1.040559 1.04056,1.040559 0.62422,0 1.04055,-0.416281 1.04055,-1.040559 0,-2.288939 -1.8731,-4.162041 -4.16204,-4.162041 z M 27.08036,17.74558 H 11.47295 c -3.433652,0 -6.243063,2.809412 -6.243063,6.243062 v 10.404621 c 0,3.43365 2.809411,6.243062 6.243063,6.243062 h 15.60741 c 3.43365,0 6.24306,-2.809412 6.24306,-6.243062 l -3.8e-4,-10.405587 c 0,-3.43365 -2.80903,-6.242676 -6.24268,-6.242676 z m 4.16204,16.647006 c 0,2.28894 -1.87271,4.162042 -4.16204,4.162042 H 11.47295 c -2.28894,0 -4.162043,-1.872716 -4.162043,-4.162042 v -10.40462 c 0,-2.288939 1.872713,-4.162042 4.162043,-4.162042 h 15.60741 c 2.28894,0 4.16204,1.872716 4.16204,4.162042 z M 44.76889,12.542787 H 26.87264 L 35.82096,1.7217489 c 0.41628,-0.416281 0.31212,-1.14471103 -0.10416,-1.45678203 -0.41628,-0.416281 -1.14471,-0.312119 -1.45679,0.104163 L 24.99991,11.606583 15.73942,0.47347487 c -0.41628,-0.416281 -1.04056,-0.520067 -1.45678,-0.104162 -0.41628,0.416282 -0.52007,1.04055903 -0.10416,1.45678203 L 23.12719,12.542787 H 5.23093 c -2.913178,0 -5.2026,2.288939 -5.2026,5.2026 v 22.890358 c 0,2.913178 2.288939,5.2026 5.2026,5.2026 v 2.601107 C 5.23093,49.271638 5.959331,50 6.791865,50 h 5.202595 c 2.28894,0 1.35263,-3.121579 1.56055,-4.162041 H 36.44537 C 36.65332,46.878518 35.71697,50 38.00592,50 h 5.2026 c 2.28894,0 1.35263,-3.121579 1.56055,-4.162041 2.91318,0 5.2026,-2.288939 5.2026,-5.2026 V 17.745 c 0,-2.913564 -2.28894,-5.2026 -5.20222,-5.2026 z M 11.47295,47.918883 H 7.310907 v -2.081021 h 4.162043 z m 31.21483,0 h -4.16204 v -2.081021 h 4.16204 z m 5.20221,-7.283234 c 0,1.768949 -1.35263,3.121579 -3.12158,3.121579 H 5.23008 c -1.76895,0 -3.12158,-1.35263 -3.12158,-3.121579 L 2.108887,17.74529 c 0,-1.76895 1.35263,-3.121579 3.121579,-3.121579 H 44.7688 c 1.76895,0 3.12158,1.352629 3.12158,3.121579 z"
     style="stroke-width:0.0966164" />
</svg>
