<?xml version="1.0" encoding="UTF-8" standalone="no"?>
<svg
   width="50pt"
   height="50pt"
   version="1.1"
   viewBox="-5.5 0 50 50"
   id="svg11662"
   sodipodi:docname="water_drops.svg"
   inkscape:version="1.2.2 (b0a8486541, 2022-12-01)"
   xmlns:inkscape="http://www.inkscape.org/namespaces/inkscape"
   xmlns:sodipodi="http://sodipodi.sourceforge.net/DTD/sodipodi-0.dtd"
   xmlns="http://www.w3.org/2000/svg"
   xmlns:svg="http://www.w3.org/2000/svg">
  <defs
     id="defs11666" />
  <sodipodi:namedview
     id="namedview11664"
     pagecolor="#ffffff"
     bordercolor="#000000"
     borderopacity="0.25"
     inkscape:showpageshadow="2"
     inkscape:pageopacity="0.0"
     inkscape:pagecheckerboard="0"
     inkscape:deskcolor="#d1d1d1"
     inkscape:document-units="pt"
     showgrid="false"
     inkscape:zoom="9.4776733"
     inkscape:cx="19.361292"
     inkscape:cy="42.57374"
     inkscape:window-width="1836"
     inkscape:window-height="1476"
     inkscape:window-x="3016"
     inkscape:window-y="56"
     inkscape:window-maximized="1"
     inkscape:current-layer="svg11662" />
  <path
     id="path11658"
     style="fill-rule:evenodd;stroke-width:0.10204"
     d="M 7.2991312,7.5703922 6.3851584,8.3333048 5.4711857,7.5703922 C 5.6975922,7.2993534 6.032406,7.1427015 6.3851584,7.1427015 c 0.3527525,0 0.6875765,0.1566519 0.9139728,0.4276907 z M 6.3851584,10.246903 C 5.9263762,10.844 5.3488397,11.622403 4.7728236,12.47107 4.1390631,13.405369 3.522833,14.401871 3.0696731,15.320232 c -0.473527,0.959411 -0.6887703,1.677334 -0.6887703,2.10376 0,2.211412 1.7928437,4.004255 4.0042556,4.004255 2.211412,0 4.0042556,-1.792843 4.0042556,-4.004255 0,-0.426497 -0.215243,-1.14438 -0.6887703,-2.10376 C 9.2474431,14.401871 8.631264,13.405348 7.9974933,12.47107 7.4219262,11.622464 6.8439305,10.844041 6.3851584,10.246903 Z m 0,-1.9136594 C 5.4711857,7.5703309 5.4715837,7.569933 5.4711857,7.5703309 l -0.00479,0.00598 -0.012755,0.015147 -0.046236,0.056202 C 5.3671508,7.6962871 5.3093543,7.7672397 5.236012,7.8577186 5.0897273,8.0386764 4.8816575,8.2993581 4.6325369,8.6206312 4.1354896,9.2619733 3.4701987,10.150416 2.8025506,11.134184 2.1380975,12.113932 1.4553159,13.210903 0.93429937,14.266303 0.43406843,15.280326 2.62599e-7,16.415879 2.62599e-7,17.423932 c 0,3.526403 2.858754037401,6.385055 6.385054137401,6.385055 3.526402,0 6.3850546,-2.858755 6.3850546,-6.385055 0,-1.008043 -0.434068,-2.143657 -0.9343,-3.157629 C 11.314844,13.210801 10.632451,12.11387 9.9675581,11.134184 9.29991,10.150456 8.6347109,9.2619529 8.1375718,8.6206312 7.8884522,8.2993683 7.6803814,8.0386866 7.5340978,7.8577186 7.4607565,7.7672376 7.4029559,7.6962912 7.3627011,7.6476589 l -0.046237,-0.056202 -0.012356,-0.015147 -0.00359,-0.00439 c -4.081e-4,0 -0.00159,-0.00159 -0.9155747,0.7613106 z M 32.839756,0.4276907 31.926181,1.1906033 31.012208,0.4276907 C 31.238615,0.15665192 31.57303,3.398e-8 31.926181,3.398e-8 c 0.352752,0 0.687576,0.15665188602 0.913575,0.42769066602 z m -0.913575,2.6666126 c -0.04624,0.058594 -0.09327,0.1191828 -0.141499,0.1817538 -0.639342,0.8242897 -1.489173,1.959475 -2.336513,3.2090575 -0.850596,1.2531538 -1.683253,2.5984499 -2.298656,3.8456854 -0.635761,1.288664 -0.959411,2.315085 -0.959411,2.980692 0,3.168037 2.568144,5.736181 5.736181,5.736181 3.167629,0 5.735773,-2.568144 5.735773,-5.736181 0,-0.665648 -0.323263,-1.692028 -0.959411,-2.980692 -0.615424,-1.2472355 -1.44805,-2.5924295 -2.298248,-3.8456854 -0.84781,-1.2495825 -1.69764,-2.384778 -2.336513,-3.2090575 -0.04863,-0.062579 -0.09606,-0.1231624 -0.141499,-0.1817538 z m 0,-1.9036591 C 31.012208,0.42773152 31.012208,0.42733356 31.012208,0.42773152 l -0.0064,0.007573 -0.01634,0.0195315 -0.06099,0.0737403 c -0.05261,0.064174 -0.129142,0.15744779 -0.225999,0.27742648 -0.193712,0.2399573 -0.469149,0.5851384 -0.799575,1.0112373 -0.659271,0.8505956 -1.541009,2.028046 -2.425084,3.3310974 -0.881289,1.2986637 -1.780497,2.7443671 -2.463349,4.1286425 -0.662862,1.342847 -1.205297,2.787735 -1.205297,4.034562 0,4.483027 3.633952,8.11698 8.11698,8.11698 4.482619,0 8.116572,-3.633953 8.116572,-8.11698 0,-1.246827 -0.542088,-2.691715 -1.204991,-4.034562 C 38.154571,7.892705 37.255323,6.4470016 36.374411,5.1483379 35.490326,3.8452865 34.608608,2.6678463 33.948919,1.8172405 33.61888,1.3911416 33.343056,1.0459605 33.149343,0.80600316 33.052485,0.68602447 32.975957,0.59275987 32.923345,0.52857668 l -0.06098,-0.0737403 -0.01634,-0.0195315 -0.0064,-0.007573 c 0,-3.9796e-4 0,0 -0.913574,0.76291272 z M 21.152088,21.855999 20.238116,22.61931 19.324143,21.855999 c 0.226406,-0.270641 0.56122,-0.427293 0.913973,-0.427293 0.352752,0 0.687576,0.156652 0.913972,0.427293 z m -0.913972,2.658246 c -0.165418,0.208865 -0.348773,0.442833 -0.547272,0.699137 -0.882881,1.137951 -2.057127,2.707225 -3.229363,4.435171 -1.175093,1.731926 -2.332534,3.600483 -3.191507,5.341184 -0.879299,1.781722 -1.365194,3.271608 -1.365194,4.29609 0,4.602211 3.731197,8.333407 8.333407,8.333407 4.60221,0 8.333407,-3.731196 8.333407,-8.333407 0,-1.02438 -0.485884,-2.514368 -1.365194,-4.29609 C 26.347029,33.249036 25.189885,31.380479 24.014893,29.648553 22.842657,27.920607 21.66838,26.351435 20.78553,25.213382 20.587031,24.957088 20.403676,24.72311 20.238258,24.514245 Z m 0,-1.894884 C 19.324143,21.85605 19.324541,21.85605 19.324143,21.85605 l -0.008,0.01 -0.02192,0.02671 -0.08251,0.09965 c -0.07175,0.08729 -0.176184,0.215243 -0.308508,0.379058 -0.264672,0.32764 -0.642138,0.799974 -1.093767,1.382745 -0.903218,1.164685 -2.109781,2.775795 -3.318343,4.557517 -1.205705,1.777333 -2.429471,3.7464 -3.356199,5.624141 -0.906402,1.836313 -1.6111105,3.74436 -1.6111105,5.34996 C 9.5238165,45.203301 14.320923,50 20.238022,50 c 5.917506,0 10.714205,-4.796699 10.714205,-10.714205 0,-1.605498 -0.704709,-3.513647 -1.61111,-5.34996 -0.92633,-1.877741 -2.150392,-3.846808 -3.3562,-5.624141 C 24.776355,26.529972 23.569833,24.918862 22.666575,23.754177 22.214966,23.171436 21.8375,22.699083 21.572808,22.371432 21.440472,22.207607 21.336044,22.079659 21.2643,21.992374 l -0.08251,-0.09965 -0.02192,-0.02671 -0.008,-0.01 c -4.09e-4,0 0,0 -0.913973,0.763311 z" />
</svg>
