<?xml version="1.0" encoding="UTF-8" standalone="no"?>
<svg
   width="50pt"
   height="50pt"
   version="1.1"
   viewBox="0 0 50 50"
   id="svg1394"
   sodipodi:docname="wind.svg"
   inkscape:version="1.2.2 (b0a8486541, 2022-12-01)"
   xmlns:inkscape="http://www.inkscape.org/namespaces/inkscape"
   xmlns:sodipodi="http://sodipodi.sourceforge.net/DTD/sodipodi-0.dtd"
   xmlns="http://www.w3.org/2000/svg"
   xmlns:svg="http://www.w3.org/2000/svg">
  <sodipodi:namedview
     id="namedview1396"
     pagecolor="#ffffff"
     bordercolor="#000000"
     borderopacity="0.25"
     inkscape:showpageshadow="2"
     inkscape:pageopacity="0.0"
     inkscape:pagecheckerboard="0"
     inkscape:deskcolor="#d1d1d1"
     inkscape:document-units="pt"
     showgrid="false"
     inkscape:zoom="9.4294436"
     inkscape:cx="28.474639"
     inkscape:cy="37.595007"
     inkscape:window-width="3740"
     inkscape:window-height="1476"
     inkscape:window-x="1112"
     inkscape:window-y="56"
     inkscape:window-maximized="1"
     inkscape:current-layer="svg1394" />
  <defs
     id="defs1360">
    <symbol
       id="g"
       overflow="visible">
      <path
         d="m 39.078,-2.3281 c -2.0117,1.043 -4.1094,1.8281 -6.2969,2.3594 -2.1875,0.5313 -4.4648,0.79688 -6.8281,0.79688 -7.0859,0 -12.699,-1.9766 -16.844,-5.9375 -4.1367,-3.957 -6.2031,-9.3281 -6.2031,-16.109 0,-6.7891 2.0664,-12.164 6.2031,-16.125 4.1445,-3.9688 9.7578,-5.9531 16.844,-5.9531 2.3633,0 4.6406,0.26562 6.8281,0.79688 2.1875,0.53126 4.2852,1.3242 6.2969,2.375 v 8.7969 c -2.0312,-1.3828 -4.0391,-2.3984 -6.0156,-3.0469 -1.9688,-0.64453 -4.0469,-0.96875 -6.2344,-0.96875 -3.9062,0 -6.9844,1.2578 -9.2344,3.7656 -2.2422,2.5 -3.3594,5.9531 -3.3594,10.359 0,4.3867 1.1172,7.8359 3.3594,10.344 2.25,2.5 5.3281,3.75 9.2344,3.75 2.1875,0 4.2656,-0.32031 6.2344,-0.96875 1.9766,-0.64453 3.9844,-1.6602 6.0156,-3.0469 z"
         id="path1339" />
    </symbol>
    <symbol
       id="f"
       overflow="visible">
      <path
         d="m 16.031,-40.953 v 9.0625 h 10.516 v 7.2812 H 16.031 v 13.531 c 0,1.4805 0.28906,2.4805 0.875,3 0.59375,0.52344 1.7656,0.78125 3.5156,0.78125 h 5.2344 v 7.2969 h -8.7344 c -4.0312,0 -6.8867,-0.83594 -8.5625,-2.5156 -1.6797,-1.6875 -2.5156,-4.5391 -2.5156,-8.5625 v -13.531 H 0.7654 v -7.2812 h 5.0781 v -9.0625 z"
         id="path1342" />
    </symbol>
    <symbol
       id="e"
       overflow="visible">
      <path
         d="M 26.594,-27.234 V -44.312 H 36.86 V 0 H 26.594 v -4.6094 c -1.3984,1.875 -2.9453,3.25 -4.6406,4.125 -1.6875,0.875 -3.6406,1.3125 -5.8594,1.3125 -3.9297,0 -7.1562,-1.5625 -9.6875,-4.6875 -2.5234,-3.125 -3.7812,-7.1445 -3.7812,-12.062 0,-4.9141 1.2578,-8.9375 3.7812,-12.062 2.5312,-3.125 5.7578,-4.6875 9.6875,-4.6875 2.1953,0 4.1445,0.44531 5.8438,1.3281 1.707,0.88672 3.2578,2.2578 4.6562,4.1094 z m -6.7188,20.656 c 2.1875,0 3.8516,-0.79688 5,-2.3906 1.1445,-1.5938 1.7188,-3.9102 1.7188,-6.9531 0,-3.0391 -0.57422,-5.3594 -1.7188,-6.9531 -1.1484,-1.5938 -2.8125,-2.3906 -5,-2.3906 -2.168,0 -3.8242,0.79688 -4.9688,2.3906 -1.1484,1.5938 -1.7188,3.9141 -1.7188,6.9531 0,3.043 0.57031,5.3594 1.7188,6.9531 1.1445,1.5938 2.8008,2.3906 4.9688,2.3906 z"
         id="path1345" />
    </symbol>
    <symbol
       id="d"
       overflow="visible">
      <path
         d="m 21.875,-6.5781 c 2.1758,0 3.8359,-0.79688 4.9844,-2.3906 1.1562,-1.5938 1.7344,-3.9102 1.7344,-6.9531 0,-3.0391 -0.57812,-5.3594 -1.7344,-6.9531 -1.1484,-1.5938 -2.8086,-2.3906 -4.9844,-2.3906 -2.1875,0 -3.8672,0.80469 -5.0312,2.4062 -1.168,1.6055 -1.75,3.918 -1.75,6.9375 0,3.0234 0.58203,5.3359 1.75,6.9375 1.1641,1.6055 2.8438,2.4062 5.0312,2.4062 z m -6.7812,-20.656 c 1.4062,-1.8516 2.9609,-3.2227 4.6719,-4.1094 1.707,-0.88281 3.6719,-1.3281 5.8906,-1.3281 3.9375,0 7.1641,1.5625 9.6875,4.6875 2.5195,3.125 3.7812,7.1484 3.7812,12.062 0,4.918 -1.2617,8.9375 -3.7812,12.062 -2.5234,3.125 -5.75,4.6875 -9.6875,4.6875 -2.2188,0 -4.1836,-0.44531 -5.8906,-1.3281 -1.7109,-0.88281 -3.2656,-2.2539 -4.6719,-4.1094 V -7e-4 H 4.9058 v -44.312 h 10.188 z"
         id="path1348" />
    </symbol>
    <symbol
       id="c"
       overflow="visible">
      <path
         d="m 25.891,-44.312 v 6.6875 h -5.6406 c -1.4492,0 -2.4609,0.26172 -3.0312,0.78125 -0.5625,0.52344 -0.84375,1.4297 -0.84375,2.7188 v 2.2344 h 8.7188 v 7.2812 h -8.7188 v 24.609 h -10.188 v -24.609 h -5.0781 v -7.2812 h 5.0781 v -2.2344 c 0,-3.4688 0.96094,-6.0312 2.8906,-7.6875 1.9375,-1.6641 4.9375,-2.5 9,-2.5 z"
         id="path1351" />
    </symbol>
    <symbol
       id="b"
       overflow="visible">
      <path
         d="M 36.969,-19.422 V 0 h -10.25 v -14.812 c 0,-2.7891 -0.0625,-4.707 -0.1875,-5.75 -0.125,-1.0391 -0.33984,-1.8125 -0.64062,-2.3125 -0.39844,-0.65625 -0.9375,-1.1719 -1.625,-1.5469 -0.6875,-0.375 -1.4648,-0.5625 -2.3281,-0.5625 -2.1367,0 -3.8125,0.82422 -5.0312,2.4688 -1.2109,1.6484 -1.8125,3.9219 -1.8125,6.8281 V 0.001 h -10.188 v -44.312 h 10.188 v 17.078 c 1.5391,-1.8516 3.1719,-3.2227 4.8906,-4.1094 1.7266,-0.88281 3.6406,-1.3281 5.7344,-1.3281 3.6875,0 6.4844,1.1328 8.3906,3.3906 1.9062,2.2617 2.8594,5.5469 2.8594,9.8594 z"
         id="path1354" />
    </symbol>
    <symbol
       id="a"
       overflow="visible">
      <path
         d="m 4.9062,-31.891 h 10.188 V 0 H 4.9062 Z m 0,-12.422 h 10.188 v 8.3125 H 4.9062 Z"
         id="path1357" />
    </symbol>
  </defs>
  <path
     id="path1376"
     d="m 38.97046,29.41182 h -4.41182 c -0.41163,0 -0.73513,0.3235 -0.73513,0.73514 0,0.41163 0.3235,0.73513 0.73513,0.73513 h 4.41182 c 0.41163,0 0.73513,-0.3235 0.73513,-0.73513 5.1e-4,-0.41164 -0.323,-0.73514 -0.73513,-0.73514 z M 37.50069,11.76456 h 5.88259 c 0.41164,0 0.73514,-0.3235 0.73514,-0.73514 0,-0.41212 -0.3235,-0.73562 -0.73563,-0.73562 H 37.5002 c -0.41163,0 -0.73513,0.3235 -0.73513,0.73513 0,0.41213 0.3235,0.73563 0.73562,0.73563 z M 16.91138,36.76443 H 15.4406 c -0.41163,0 -0.73513,0.3235 -0.73513,0.73514 0,0.41163 0.3235,0.73513 0.73513,0.73513 h 1.47078 c 0.41163,0 0.73513,-0.3235 0.73513,-0.73513 5e-4,-0.41164 -0.32301,-0.73514 -0.73513,-0.73514 z M 9.55877,25.00001 c -0.41164,0 -0.73514,0.3235 -0.73514,0.73513 0,0.41164 0.3235,0.73514 0.73514,0.73514 h 1.47077 c 0.41164,0 0.73514,-0.3235 0.73514,-0.73514 0,-0.41163 -0.3235,-0.73513 -0.73514,-0.73513 z M 2.20616,26.47103 H 5.1472 c 0.41164,0 0.73514,-0.3235 0.73514,-0.73513 0,-0.41213 -0.3235,-0.73563 -0.73514,-0.73563 H 2.20616 c -0.41213,0 -0.73563,0.3235 -0.73563,0.73514 0,0.41212 0.3235,0.73562 0.73563,0.73562 z m 0,-5.88284 h 26.4709 c 3.64719,0 6.61772,-2.97054 6.61772,-6.61773 0,-3.64718 -2.97053,-6.61772 -6.61772,-6.61772 -3.64719,0 -6.61772,2.97054 -6.61772,6.61772 0,0.41164 0.32349,0.73514 0.73513,0.73514 0.41163,0 0.73513,-0.3235 0.73513,-0.73514 0,-2.83818 2.30877,-5.14695 5.14696,-5.14695 2.83818,0 5.14695,2.30877 5.14695,5.14695 5e-4,2.83819 -2.30827,5.14696 -5.14645,5.14696 H 2.20616 c -0.41213,0 -0.73563,0.3235 -0.73563,0.73562 0,0.41164 0.3235,0.73514 0.73563,0.73514 z m 41.17612,-7.35261 c -3.64719,0 -6.61773,2.97054 -6.61773,6.61773 0,0.41163 0.3235,0.73513 0.73513,0.73513 0.41164,0 0.73514,-0.3235 0.73514,-0.73513 0,-2.83819 2.30877,-5.14695 5.14695,-5.14695 2.83819,0 5.14695,2.30876 5.14695,5.14695 10e-4,2.83818 -2.30788,5.14695 -5.14644,5.14695 H 15.44035 c -0.41164,0 -0.73513,0.3235 -0.73513,0.73513 0,0.41164 0.32349,0.73514 0.73513,0.73514 H 43.38228 C 47.02946,26.47053 50,23.49999 50,19.8528 50,16.20612 47.02946,13.23558 43.38228,13.23558 Z M 27.20603,29.41182 H 0.73513 C 0.3235,29.41182 0,29.73532 0,30.14696 c 0,0.41212 0.3235,0.73562 0.73513,0.73562 h 26.4709 c 2.83819,0 5.14696,2.30877 5.14696,5.14696 0,2.83818 -2.30877,5.14695 -5.14696,5.14695 -2.83818,0 -5.14695,-2.30877 -5.14695,-5.14695 0,-0.41164 -0.3235,-0.73514 -0.73513,-0.73514 -0.41213,0 -0.73563,0.3235 -0.73563,0.73514 0,3.64718 2.97054,6.61772 6.61773,6.61772 3.64718,0 6.61772,-2.97054 6.61772,-6.61772 0,-3.64719 -2.97054,-6.61773 -6.61772,-6.61773 z"
     style="stroke-width:0.126052" />
</svg>
